<svg width="40" height="40" viewBox="0 0 40 40" fill="none" xmlns="http://www.w3.org/2000/svg">
<g filter="url(#filter0_d_212_3558)">
<path d="M23.1482 15.228C26.3318 19.6418 32.6261 22.849 31.9126 23.3636C31.1991 23.8782 23.0991 21.2257 19.9155 16.8119C16.7319 12.3981 16.7791 10.2193 18.0926 9.2719C19.4061 8.3245 19.9646 10.8142 23.1482 15.228Z" fill="#E6AF00"/>
<path fill-rule="evenodd" clip-rule="evenodd" d="M31.0299 23.3691C28.692 22.9678 22.5808 20.507 19.9156 16.8118C16.732 12.398 16.7792 10.2192 18.0927 9.2718C18.9635 8.64366 19.5025 9.52643 20.6947 11.4791C21.3007 12.4716 22.0754 13.7405 23.1482 15.2279C25.0063 17.8039 27.9239 19.969 29.8895 21.4276C30.5045 21.8839 31.0263 22.2712 31.3934 22.5802C31.4228 22.6049 31.4512 22.6292 31.4786 22.6529C31.8888 23.0087 32.0689 23.2508 31.9126 23.3635C31.8068 23.4399 31.5384 23.4465 31.1476 23.388C31.1095 23.3824 31.0703 23.376 31.0299 23.3691ZM31.2136 23.5598C31.2134 23.5598 31.2109 23.5566 31.2071 23.5503C31.2119 23.5567 31.2138 23.5598 31.2136 23.5598ZM31.6457 22.5905C31.646 22.5907 31.6416 22.5915 31.6317 22.5923C31.6405 22.5907 31.6454 22.5903 31.6457 22.5905ZM32.7279 23.6293C32.6503 23.8146 32.5257 23.9488 32.4001 24.0394C32.1644 24.2094 31.9001 24.2431 31.7602 24.254C31.5906 24.2673 31.4096 24.2583 31.2335 24.2393C30.8783 24.201 30.4451 24.1109 29.9678 23.9822C29.0076 23.7233 27.7852 23.2851 26.4934 22.6935C23.9359 21.5221 20.9578 19.6813 19.2397 17.2993C17.6237 15.0589 16.7533 13.2896 16.4979 11.8917C16.3682 11.1814 16.3907 10.5321 16.5874 9.95858C16.7871 9.37624 17.1485 8.92535 17.6052 8.59593C17.8472 8.42136 18.1385 8.27727 18.4777 8.24508C18.8296 8.21168 19.1455 8.30691 19.4124 8.46427C19.8846 8.74279 20.2699 9.26173 20.6132 9.77809C20.8717 10.167 21.1391 10.6056 21.441 11.1006C22.036 12.0766 22.7651 13.2722 23.8241 14.7404C25.3354 16.8357 27.6131 18.6761 29.4932 20.0923C29.7919 20.3173 30.0846 20.5345 30.3627 20.7409C30.935 21.1656 31.4455 21.5445 31.82 21.8513C32.0907 22.0731 32.3605 22.3123 32.5362 22.5447C32.617 22.6517 32.753 22.852 32.7914 23.1159C32.8129 23.2642 32.8052 23.4448 32.7279 23.6293Z" fill="#C0780C"/>
<path d="M16.5094 16.407C14.4614 20.2664 8.4408 24.222 8.00248 23.9894C7.56417 23.7568 10.0601 22.4738 12.5979 16.0701C14.6459 12.2107 16.9441 10.1105 17.751 10.5387C18.5579 10.9669 18.5574 12.5476 16.5094 16.407Z" fill="#8CC900"/>
<path fill-rule="evenodd" clip-rule="evenodd" d="M11.8403 15.7209L11.8619 15.6802C12.9136 13.6983 14.0442 12.1388 15.0437 11.1151C15.5396 10.6072 16.0326 10.2008 16.4943 9.94882C16.8995 9.72767 17.5422 9.48515 18.1417 9.80329C19.0373 10.2785 19.196 11.2859 19.0229 12.3239C18.8451 13.3902 18.2817 14.846 17.2457 16.7983C16.1394 18.883 14.0121 20.9235 12.1707 22.386C11.2395 23.1256 10.3529 23.7397 9.66034 24.1591C9.31677 24.3671 9.00398 24.5375 8.74799 24.6511C8.62297 24.7065 8.48513 24.7604 8.34965 24.7942C8.28231 24.811 8.19052 24.8293 8.08652 24.8327C7.99527 24.8356 7.8089 24.8307 7.61199 24.7262C7.43396 24.6317 7.21133 24.4382 7.13992 24.1108C7.07919 23.8323 7.16435 23.6062 7.20949 23.5053C7.29623 23.3115 7.448 23.1298 7.54008 23.0199C7.6064 22.9408 7.67861 22.8573 7.75755 22.7661C7.96274 22.5289 8.2134 22.2392 8.5242 21.8359C9.36403 20.7461 10.5835 18.8921 11.8233 15.7638L11.8403 15.7209ZM8.95427 22.6368C9.84428 21.5298 11.2149 19.5608 12.598 16.0708C14.646 12.2114 16.9442 10.1112 17.7511 10.5394C18.558 10.9676 18.5576 12.5483 16.5096 16.4077C15.0448 19.168 11.5479 21.9775 9.51462 23.2688C9.23099 23.4489 8.97584 23.5994 8.75866 23.7162C8.3559 23.9328 8.08371 24.0331 8.00261 23.9901C7.87104 23.9203 8.00388 23.7558 8.3229 23.3865C8.33946 23.3674 8.35652 23.3476 8.37407 23.3274C8.38997 23.309 8.40628 23.2901 8.42297 23.2708C8.57097 23.0996 8.74995 22.8909 8.95427 22.6368Z" fill="#628D01"/>
<path d="M24.3007 16.362C26.2078 22.0475 26.4477 30.8857 25.4971 31.2045C24.5465 31.5234 21.9381 22.7213 19.2079 18.1872C16.3023 14.0293 16.8652 10.5092 18.6153 9.92222C20.3654 9.33519 22.3937 10.6766 24.3007 16.362Z" fill="#8CC900"/>
<path fill-rule="evenodd" clip-rule="evenodd" d="M26.3765 31.475C26.2833 31.631 26.0958 31.8823 25.762 31.9943C25.3624 32.1283 25.0226 31.9773 24.837 31.8535C24.6542 31.7314 24.5107 31.5682 24.4041 31.4289C24.1851 31.1428 23.9656 30.7473 23.7502 30.3117C23.3133 29.4281 22.8009 28.1857 22.2481 26.8301C22.1954 26.7008 22.1423 26.5705 22.0888 26.4392C21.0064 23.7823 19.7648 20.7348 18.5081 18.6404C16.9947 16.4665 16.3365 14.3933 16.3323 12.7174C16.3282 11.086 16.9772 9.59236 18.3502 9.13181C18.9319 8.93669 19.5588 8.89726 20.2008 9.07916C20.8356 9.259 21.4329 9.64004 21.9909 10.2029C23.0897 11.3114 24.1234 13.2128 25.0907 16.0967C26.0755 19.0327 26.6201 22.7422 26.8023 25.745C26.8935 27.2485 26.8956 28.6041 26.8097 29.6203C26.7671 30.1233 26.7003 30.578 26.5982 30.9364C26.5477 31.1136 26.4785 31.3044 26.3765 31.475ZM19.2078 18.1869C20.5042 20.3399 21.7731 23.4551 22.8501 26.0992C24.0413 29.0236 24.9978 31.3717 25.497 31.2042C26.4477 30.8853 26.2077 22.0472 24.3006 16.3617C22.3936 10.6762 20.3653 9.33486 18.6152 9.92188C16.8651 10.5089 16.3023 14.029 19.2078 18.1869Z" fill="#628D01"/>
<path fill-rule="evenodd" clip-rule="evenodd" d="M24.9811 30.8017C25.7156 30.5225 24.6033 21.8993 22.4725 16.2939C20.9858 12.3829 19.6712 10.5313 18.553 9.94384C18.5736 9.93596 18.5944 9.92849 18.6154 9.92145C20.3655 9.33443 22.3938 10.6758 24.3009 16.3613C26.2079 22.0467 26.4479 30.8849 25.4973 31.2038C25.3585 31.2503 25.1845 31.1026 24.9799 30.8021C24.9803 30.802 24.9807 30.8018 24.9811 30.8017Z" fill="#7AAA0D"/>
<path d="M19.2746 18.6987C17.6377 23.9623 11.8984 30.6793 10.8755 30.3613C9.85269 30.0432 11.7089 25.1529 13.1151 17.4446C14.7519 12.1809 16.142 10.1068 18.025 10.6923C19.9081 11.2779 20.9114 13.435 19.2746 18.6987Z" fill="#FEC200"/>
<path fill-rule="evenodd" clip-rule="evenodd" d="M12.3043 17.2456L12.3193 17.1974C13.1394 14.5603 13.9278 12.6123 14.7994 11.3911C15.2403 10.7734 15.7444 10.2809 16.3441 10.0039C16.9692 9.71508 17.6235 9.69502 18.2725 9.89682C19.5069 10.2807 20.4387 11.2067 20.7833 12.7611C21.1114 14.2414 20.9048 16.2628 20.0703 18.9464C19.2099 21.7131 17.2997 24.7988 15.5053 27.1314C14.6038 28.3033 13.7099 29.3135 12.961 30.0198C12.5896 30.3701 12.2311 30.6673 11.909 30.8715C11.749 30.9729 11.5709 31.0687 11.3849 31.131C11.2139 31.1882 10.9333 31.2522 10.6281 31.1572C10.1085 30.9957 9.89174 30.5556 9.8115 30.2317C9.73396 29.9186 9.73738 29.5626 9.76573 29.2236C9.82359 28.5318 10.0178 27.5938 10.2723 26.4877C10.3914 25.9696 10.5259 25.4058 10.6709 24.798C11.1556 22.766 11.7575 20.2429 12.2953 17.2953L12.3043 17.2456ZM10.8755 30.3615C11.8984 30.6796 17.6377 23.9625 19.2745 18.6989C20.9113 13.4353 19.908 11.2781 18.025 10.6926C16.142 10.107 14.7519 12.1812 13.1151 17.4448C12.5729 20.417 11.9637 22.9703 11.4786 25.004C10.7054 28.2446 10.247 30.1661 10.8755 30.3615Z" fill="#AD0505"/>
<path fill-rule="evenodd" clip-rule="evenodd" d="M10.8515 29.594C11.906 29.7821 16.7634 22.4021 17.7315 16.9755C18.2991 13.7932 18.0991 11.7841 17.4451 10.5967C17.6335 10.5987 17.8266 10.6308 18.0252 10.6926C19.9082 11.2781 20.9115 13.4353 19.2747 18.6989C17.6379 23.9626 11.8985 30.6796 10.8757 30.3615C10.6311 30.2854 10.5511 29.948 10.5903 29.3731C10.6543 29.4996 10.7401 29.5741 10.8515 29.594Z" fill="#DA9308"/>
<path d="M22.8548 19.0072C22.8548 27.3954 19.3555 34.6322 18.6882 34.6322C18.0208 34.6322 14.5215 25.7957 14.5215 19.0072C14.5215 12.2187 16.387 10.0488 18.6882 10.0488C20.9893 10.0488 22.8548 12.2187 22.8548 19.0072Z" fill="#FA2D11"/>
<path fill-rule="evenodd" clip-rule="evenodd" d="M19.3969 35.1736C19.3145 35.2464 19.0588 35.4658 18.6882 35.4658C18.4436 35.4658 18.2608 35.3686 18.1653 35.3068C18.0621 35.2402 17.9814 35.1632 17.9238 35.1018C17.8081 34.9785 17.7033 34.8287 17.6112 34.6817C17.423 34.381 17.2139 33.9709 16.9962 33.4886C16.5575 32.517 16.0462 31.1679 15.5595 29.6149C14.5893 26.5194 13.6882 22.5217 13.6882 19.0075C13.6882 15.5633 14.157 13.1579 15.0093 11.5855C15.4419 10.7875 15.9834 10.1858 16.6268 9.78628C17.2728 9.3852 17.977 9.21582 18.6882 9.21582C19.3995 9.21582 20.1036 9.3852 20.7496 9.78628C21.3931 10.1858 21.9345 10.7875 22.3671 11.5855C23.2195 13.1579 23.6882 15.5633 23.6882 19.0075C23.6882 23.3112 22.7918 27.3082 21.8119 30.2305C21.3219 31.6919 20.8057 32.9002 20.3598 33.7558C20.1385 34.1803 19.9238 34.5388 19.7272 34.8029C19.6308 34.9324 19.5199 35.0649 19.3969 35.1736ZM18.6882 34.6325C19.3556 34.6325 22.8549 27.3957 22.8549 19.0075C22.8549 12.219 20.9894 10.0492 18.6882 10.0492C16.387 10.0492 14.5216 12.219 14.5216 19.0075C14.5216 25.796 18.0209 34.6325 18.6882 34.6325Z" fill="#AD0505"/>
<path fill-rule="evenodd" clip-rule="evenodd" d="M18.688 34.6322C19.3554 34.6322 22.8547 27.3954 22.8547 19.0072C22.8547 12.2187 20.9892 10.0488 18.688 10.0488C18.4554 10.0488 18.2272 10.071 18.005 10.1179C18.1813 10.1118 18.3591 10.1205 18.5379 10.1427C20.8215 10.4266 22.405 12.8101 21.5675 19.5467C20.9076 24.8539 18.894 29.5211 17.3494 32.1858C17.9506 33.6905 18.4702 34.6322 18.688 34.6322Z" fill="#CC2009"/>
<path d="M16.6594 13.3994C17.3799 13.3812 18.0473 16.6676 18.1501 20.7397C18.2529 24.8118 17.7521 28.1276 17.0316 28.1458C16.3111 28.164 15.6437 24.8776 15.5409 20.8055C15.4381 16.7334 15.9389 13.4176 16.6594 13.3994Z" fill="#FF553E"/>
<path fill-rule="evenodd" clip-rule="evenodd" d="M16.5095 17.3031C16.7388 17.3225 16.909 17.5241 16.8896 17.7534C16.8143 18.6446 16.8735 21.8972 17.0298 23.5552C17.0514 23.7843 16.8832 23.9875 16.6541 24.0091C16.425 24.0307 16.2218 23.8625 16.2002 23.6334C16.0411 21.947 15.9783 18.641 16.0593 17.6832C16.0786 17.4539 16.2802 17.2838 16.5095 17.3031Z" fill="white"/>
<path fill-rule="evenodd" clip-rule="evenodd" d="M20.5539 5.76906L20.553 5.77077L20.5494 5.77791L20.5346 5.80753C20.5215 5.8338 20.5024 5.8726 20.4787 5.92146C20.4312 6.01936 20.366 6.15675 20.2952 6.314C20.1501 6.63663 19.9955 7.01274 19.9152 7.30043C19.8121 7.66935 19.7488 8.18694 19.7127 8.64017C19.6951 8.86104 19.6847 9.05648 19.6787 9.19647C19.6757 9.26634 19.6739 9.32208 19.6727 9.35989C19.6722 9.37879 19.6718 9.39318 19.6716 9.4026L19.6713 9.41293L19.6713 9.41518C19.6713 9.41516 19.6713 9.41519 19.6713 9.41518C19.6648 9.76024 19.3798 10.0351 19.0347 10.0286C18.6896 10.0221 18.415 9.7371 18.4215 9.39198L19.0464 9.4037C18.4215 9.39198 18.4215 9.39204 18.4215 9.39198L18.4216 9.39017L18.4216 9.38632L18.4219 9.37268C18.4222 9.36101 18.4227 9.34425 18.4233 9.32287C18.4246 9.28015 18.4266 9.21891 18.4299 9.14303C18.4364 8.99153 18.4476 8.7804 18.4667 8.54094C18.5039 8.07349 18.574 7.45534 18.7113 6.96405C18.8182 6.58124 19.0055 6.13414 19.1553 5.80118C19.232 5.63063 19.3025 5.48213 19.3539 5.37609C19.3797 5.32298 19.4007 5.2803 19.4155 5.25057L19.4328 5.21595L19.4376 5.20649L19.4396 5.20263C19.4396 5.20259 19.4396 5.20255 19.9903 5.48251L19.4396 5.20263C19.596 4.89494 19.9723 4.77224 20.28 4.92868C20.5877 5.0851 20.7103 5.46138 20.5539 5.76906Z" fill="#506A05"/>
<path d="M22.0303 21.7288C21.8044 22.0353 21.3729 22.1007 21.0663 21.8749C20.7598 21.649 20.6944 21.2175 20.9202 20.9109C21.1461 20.6044 21.5776 20.539 21.8842 20.7648C22.1907 20.9907 22.2561 21.4222 22.0303 21.7288Z" fill="#BB0202"/>
<path d="M22.351 19.7388C22.1557 20.004 21.7824 20.0606 21.5173 19.8652C21.2521 19.6699 21.1956 19.2966 21.3909 19.0315C21.5862 18.7663 21.9595 18.7097 22.2247 18.9051C22.4898 19.1004 22.5464 19.4737 22.351 19.7388Z" fill="#BB0202"/>
<path d="M21.7507 23.6083C21.5553 23.8735 21.182 23.93 20.9169 23.7347C20.6518 23.5394 20.5952 23.1661 20.7905 22.9009C20.9858 22.6358 21.3591 22.5792 21.6243 22.7745C21.8894 22.9699 21.946 23.3432 21.7507 23.6083Z" fill="#BB0202"/>
<path d="M21.2076 17.6546C21.0123 17.9198 20.639 17.9764 20.3739 17.781C20.1087 17.5857 20.0522 17.2124 20.2475 16.9473C20.4428 16.6821 20.8161 16.6255 21.0813 16.8209C21.3464 17.0162 21.403 17.3895 21.2076 17.6546Z" fill="#BB0202"/>
<path d="M21.9516 15.918C21.8156 16.1025 21.5559 16.1419 21.3713 16.006C21.1868 15.87 21.1474 15.6102 21.2834 15.4257C21.4193 15.2412 21.6791 15.2018 21.8636 15.3377C22.0482 15.4737 22.0875 15.7335 21.9516 15.918Z" fill="#BB0202"/>
<path d="M22.242 17.9013C22.1408 18.0386 21.9474 18.068 21.81 17.9668C21.6727 17.8656 21.6433 17.6722 21.7445 17.5348C21.8457 17.3974 22.0391 17.3681 22.1765 17.4693C22.3139 17.5705 22.3432 17.7639 22.242 17.9013Z" fill="#BB0202"/>
<path d="M20.7911 28.327C20.6552 28.5115 20.3954 28.5509 20.2109 28.415C20.0263 28.279 19.987 28.0192 20.1229 27.8347C20.2588 27.6502 20.5186 27.6108 20.7032 27.7468C20.8877 27.8827 20.9271 28.1425 20.7911 28.327Z" fill="#BB0202"/>
<path d="M21.5663 25.6297C21.4303 25.8142 21.1705 25.8536 20.986 25.7176C20.8015 25.5817 20.7621 25.3219 20.8981 25.1374C21.034 24.9528 21.2938 24.9135 21.4783 25.0494C21.6628 25.1854 21.7022 25.4451 21.5663 25.6297Z" fill="#BB0202"/>
<path fill-rule="evenodd" clip-rule="evenodd" d="M19.0987 8.15563C18.1439 7.55362 15.8654 7.27083 14.3897 10.9558C15.126 11.1066 16.1677 11.178 17.086 10.9591C17.0821 11.6593 17.2576 12.5146 17.7063 13.5494C18.5024 13.0185 19.5555 12.0456 19.9337 10.9527C20.5115 11.4992 21.4294 11.9774 22.8389 12.2564C22.8675 10.5252 22.1834 7.27922 19.2184 8.14458C19.1946 8.20458 19.1727 8.26863 19.1532 8.33623C19.1391 8.32388 19.1248 8.31154 19.1104 8.29921C19.1074 8.25209 19.1035 8.20424 19.0987 8.15563Z" fill="#B6EC1C"/>
<path fill-rule="evenodd" clip-rule="evenodd" d="M14.9842 10.6301C15.6059 10.7057 16.3384 10.7088 16.9894 10.5537C17.1138 10.524 17.245 10.5531 17.3451 10.6327C17.4453 10.7122 17.5034 10.8334 17.5027 10.9613C17.4998 11.4845 17.6084 12.1243 17.8935 12.8978C18.5617 12.3697 19.2645 11.6123 19.54 10.8163C19.5862 10.6826 19.6972 10.5815 19.8347 10.5478C19.9721 10.5142 20.1172 10.5526 20.22 10.6498C20.6584 11.0644 21.3476 11.4593 22.4093 11.732C22.3611 10.9826 22.1812 10.1029 21.7916 9.43707C21.5538 9.03054 21.2509 8.72542 20.8724 8.56031C20.5375 8.41423 20.1052 8.36097 19.5401 8.49087C19.4928 8.60899 19.3937 8.69989 19.2701 8.73602C19.1332 8.77605 18.9854 8.74328 18.8782 8.64915C18.8656 8.63808 18.8528 8.62702 18.8399 8.61596C18.7777 8.56289 18.7331 8.4932 18.7105 8.41601C18.3115 8.22217 17.7181 8.11035 17.0808 8.33996C16.4246 8.57638 15.6514 9.20098 14.9842 10.6301ZM19.1821 7.72178C18.6071 7.40968 17.7334 7.21908 16.7983 7.55596C15.777 7.9239 14.7685 8.88903 14.0029 10.8007C13.957 10.9154 13.9643 11.0445 14.0229 11.1532C14.0814 11.2619 14.1852 11.3391 14.3061 11.3638C14.9552 11.4967 15.8378 11.5739 16.6929 11.4556C16.7571 12.1141 16.9551 12.8641 17.324 13.715C17.3732 13.8283 17.47 13.914 17.5885 13.9489C17.7069 13.9838 17.8347 13.9644 17.9375 13.8959C18.6397 13.4277 19.5722 12.6068 20.0945 11.6204C20.7287 12.0694 21.597 12.4352 22.758 12.665C22.8792 12.689 23.0047 12.658 23.1008 12.5804C23.1968 12.5028 23.2535 12.3866 23.2556 12.2632C23.2705 11.3594 23.1031 10.0284 22.5109 9.01626C22.2107 8.50305 21.7884 8.05073 21.2056 7.79649C20.6379 7.54885 19.9633 7.50896 19.1821 7.72178Z" fill="#6F9602"/>
<path d="M17.541 9.15602C17.645 9.36128 17.4642 9.66208 17.137 9.82788C16.8099 9.99368 16.4604 9.96169 16.3563 9.75642C16.2523 9.55116 16.4332 9.25036 16.7603 9.08456C17.0874 8.91876 17.437 8.95076 17.541 9.15602Z" fill="#E3FF93"/>
</g>
<defs>
<filter id="filter0_d_212_3558" x="0" y="0" width="44" height="44" filterUnits="userSpaceOnUse" color-interpolation-filters="sRGB">
<feFlood flood-opacity="0" result="BackgroundImageFix"/>
<feColorMatrix in="SourceAlpha" type="matrix" values="0 0 0 0 0 0 0 0 0 0 0 0 0 0 0 0 0 0 127 0" result="hardAlpha"/>
<feOffset dx="4" dy="4"/>
<feColorMatrix type="matrix" values="0 0 0 0 0 0 0 0 0 0 0 0 0 0 0 0 0 0 0.2 0"/>
<feBlend mode="normal" in2="BackgroundImageFix" result="effect1_dropShadow_212_3558"/>
<feBlend mode="normal" in="SourceGraphic" in2="effect1_dropShadow_212_3558" result="shape"/>
</filter>
</defs>
</svg>
