<svg width="33" height="33" viewBox="0 0 33 33" fill="none" xmlns="http://www.w3.org/2000/svg">
<g clip-path="url(#clip0_272_3843)">
<path d="M27.5 1.375V5.5H31.625V8.25H27.5V12.375H24.75V8.25H20.625V5.5H24.75V1.375H27.5ZM16.5 17.875C18.0125 17.875 19.25 16.6375 19.25 15.125C19.25 13.6125 18.0125 12.375 16.5 12.375C14.9875 12.375 13.75 13.6125 13.75 15.125C13.75 16.6375 14.9875 17.875 16.5 17.875ZM19.25 4.46875V9.625H23.375V13.75H27.39C27.4587 14.2863 27.5 14.8362 27.5 15.4C27.5 19.965 23.8288 25.3687 16.5 31.625C9.17125 25.3687 5.5 19.965 5.5 15.4C5.5 8.5525 10.725 4.125 16.5 4.125C17.435 4.125 18.3562 4.235 19.25 4.46875Z" fill="white"/>
</g>
<defs>
<clipPath id="clip0_272_3843">
<rect width="33" height="33" fill="white"/>
</clipPath>
</defs>
</svg>
