<svg width="24" height="24" viewBox="0 0 24 24" fill="none" xmlns="http://www.w3.org/2000/svg">
<path fill-rule="evenodd" clip-rule="evenodd" d="M22 12C22 17.5228 17.5228 22 12 22C6.47715 22 2 17.5228 2 12C2 6.47715 6.47715 2 12 2C17.5228 2 22 6.47715 22 12ZM17.2634 10.1459C17.6201 9.72434 17.5675 9.09336 17.1459 8.73661C16.7243 8.37987 16.0934 8.43245 15.7366 8.85406L10.9386 14.5244L8.70711 12.2929C8.31658 11.9024 7.68342 11.9024 7.29289 12.2929C6.90237 12.6834 6.90237 13.3166 7.29289 13.7071L10.2929 16.7071C10.4906 16.9049 10.7621 17.0108 11.0416 16.9991C11.321 16.9875 11.5827 16.8594 11.7634 16.6459L17.2634 10.1459Z" fill="#5FD754"/>
</svg>
