<svg width="40" height="40" viewBox="0 0 40 40" fill="none" xmlns="http://www.w3.org/2000/svg">
<g filter="url(#filter0_d_212_3612)">
<path d="M22.2688 14.5009C25.767 7.37898 29.1923 7.21712 30.4677 8.02643C32.982 9.1055 31.6481 13.287 31.0143 15.4451C28.7963 22.9987 23.4987 30.822 17.4861 32.036C13.068 32.928 7.31319 32.3422 6.35662 27.891C5.53714 24.0777 8.74055 21.5149 11.7468 20.8405C14.7531 20.1661 18.7706 21.6228 22.2688 14.5009Z" fill="#A33795"/>
<path fill-rule="evenodd" clip-rule="evenodd" d="M30.4677 8.02686C32.8969 9.06937 31.7341 13.0076 31.081 15.2194C31.0581 15.297 31.0358 15.3724 31.0144 15.4455C28.7963 22.9991 23.4987 30.8224 17.4862 32.0364C13.0681 32.9284 7.31325 32.3426 6.35668 27.8914C5.53719 24.0781 8.74061 21.5154 11.7469 20.8409C12.3598 20.7034 13.0147 20.6545 13.6987 20.6034C16.3696 20.4039 19.4838 20.1713 22.2688 14.5013C25.767 7.37941 29.1924 7.21755 30.4677 8.02686ZM26.7887 7.56619C28.4221 6.63369 29.9058 6.71838 30.8558 7.28722C32.5866 8.06806 32.8548 9.88784 32.753 11.388C32.6547 12.8365 32.1953 14.3901 31.8836 15.4442C31.8594 15.526 31.8361 15.6048 31.8139 15.6803C30.6789 19.5455 28.756 23.485 26.3331 26.6272C23.9232 29.7524 20.9389 32.1894 17.6511 32.8532C15.3585 33.3161 12.6743 33.4077 10.3985 32.77C8.1033 32.1269 6.10666 30.6942 5.54194 28.0665C5.06915 25.8664 5.76787 24.0074 6.99584 22.6337C8.20371 21.2825 9.91988 20.3968 11.5645 20.0278C12.243 19.8756 12.974 19.8214 13.6603 19.7704C13.8092 19.7594 13.9559 19.7485 14.0996 19.7368C14.9384 19.6685 15.7489 19.5707 16.5581 19.299C18.1172 18.7754 19.8453 17.5452 21.5208 14.1339C23.3086 10.4943 25.1349 8.51034 26.7887 7.56619Z" fill="#800771"/>
<path fill-rule="evenodd" clip-rule="evenodd" d="M6.68164 28.901C8.23976 32.4277 13.4271 32.8556 17.4861 32.0361C23.4987 30.8221 28.7963 22.9988 31.0143 15.4452C31.0358 15.3721 31.0581 15.2967 31.081 15.2191C31.734 13.0073 32.8968 9.06906 30.4677 8.02655C30.419 7.99567 30.3672 7.9662 30.3124 7.93848C30.6398 9.5782 29.9777 11.8207 29.5422 13.2956C29.5193 13.3732 29.497 13.4486 29.4755 13.5217C27.2575 21.0753 21.9599 28.8986 15.9473 30.1126C12.797 30.7487 8.96706 30.6333 6.68164 28.901Z" fill="#8E2A82"/>
<path d="M21.3374 27.0712C21.159 27.2774 20.8472 27.2999 20.6409 27.1215C20.4347 26.9431 20.4122 26.6312 20.5906 26.425C20.7691 26.2188 21.0809 26.1963 21.2871 26.3747C21.4933 26.5531 21.5158 26.8649 21.3374 27.0712Z" fill="#6D1863"/>
<path d="M24.6985 25.2653C24.4722 25.5267 24.0769 25.5553 23.8155 25.3291C23.554 25.1029 23.5255 24.7076 23.7517 24.4461C23.9779 24.1847 24.3732 24.1561 24.6347 24.3823C24.8961 24.6085 24.9247 25.0038 24.6985 25.2653Z" fill="#6D1863"/>
<path d="M27.3149 21.9374C27.0887 22.1989 26.6933 22.2274 26.4319 22.0012C26.1705 21.775 26.1419 21.3797 26.3681 21.1182C26.5943 20.8568 26.9896 20.8282 27.2511 21.0544C27.5125 21.2806 27.5411 21.676 27.3149 21.9374Z" fill="#6D1863"/>
<path d="M20.2889 29.0616C20.0627 29.3231 19.6674 29.3517 19.4059 29.1254C19.1445 28.8992 19.1159 28.5039 19.3421 28.2425C19.5683 27.981 19.9637 27.9525 20.2251 28.1787C20.4865 28.4049 20.5151 28.8002 20.2889 29.0616Z" fill="#6D1863"/>
<path d="M23.0514 26.7295C22.8817 26.9256 22.5852 26.947 22.3891 26.7774C22.1931 26.6077 22.1716 26.3112 22.3413 26.1151C22.5109 25.919 22.8074 25.8976 23.0035 26.0673C23.1996 26.2369 23.221 26.5334 23.0514 26.7295Z" fill="#6D1863"/>
<path d="M22.2672 28.4693C22.0975 28.6654 21.801 28.6868 21.6049 28.5172C21.4089 28.3475 21.3874 28.051 21.5571 27.8549C21.7267 27.6588 22.0232 27.6374 22.2193 27.8071C22.4154 27.9767 22.4368 28.2732 22.2672 28.4693Z" fill="#6D1863"/>
<path d="M25.6413 23.849C25.4717 24.045 25.1752 24.0665 24.9791 23.8968C24.783 23.7272 24.7616 23.4307 24.9312 23.2346C25.1009 23.0385 25.3974 23.0171 25.5935 23.1867C25.7896 23.3564 25.811 23.6529 25.6413 23.849Z" fill="#6D1863"/>
<path d="M22.7877 25.1953C22.618 25.3914 22.3215 25.4128 22.1254 25.2432C21.9293 25.0735 21.9079 24.777 22.0776 24.5809C22.2472 24.3848 22.5437 24.3634 22.7398 24.5331C22.9359 24.7027 22.9573 24.9992 22.7877 25.1953Z" fill="#6D1863"/>
<path d="M18.5879 30.5553C18.3617 30.8167 17.9664 30.8453 17.7049 30.6191C17.4435 30.3928 17.4149 29.9975 17.6411 29.7361C17.8673 29.4746 18.2627 29.4461 18.5241 29.6723C18.7856 29.8985 18.8141 30.2938 18.5879 30.5553Z" fill="#6D1863"/>
<path d="M18.5702 28.3176C18.344 28.579 17.9487 28.6076 17.6873 28.3814C17.4258 28.1551 17.3973 27.7598 17.6235 27.4984C17.8497 27.2369 18.245 27.2084 18.5065 27.4346C18.7679 27.6608 18.7965 28.0561 18.5702 28.3176Z" fill="#6D1863"/>
<path d="M16.189 31.3018C15.9628 31.5633 15.5675 31.5918 15.306 31.3656C15.0446 31.1394 15.016 30.7441 15.2422 30.4826C15.4684 30.2212 15.8638 30.1926 16.1252 30.4188C16.3866 30.6451 16.4152 31.0404 16.189 31.3018Z" fill="#6D1863"/>
<path d="M16.406 29.445C16.2262 29.6528 15.9121 29.6755 15.7044 29.4957C15.4966 29.316 15.4739 29.0019 15.6537 28.7941C15.8334 28.5864 16.1475 28.5637 16.3553 28.7434C16.563 28.9232 16.5857 29.2373 16.406 29.445Z" fill="#6D1863"/>
<path d="M27.9387 20.0875C27.8268 20.2169 27.6312 20.231 27.5019 20.1191C27.3725 20.0072 27.3584 19.8116 27.4703 19.6823C27.5822 19.5529 27.7778 19.5388 27.9071 19.6507C28.0365 19.7626 28.0506 19.9582 27.9387 20.0875Z" fill="#6D1863"/>
<path d="M25.4071 22.3336C25.2952 22.463 25.0996 22.4771 24.9703 22.3652C24.8409 22.2533 24.8268 22.0577 24.9387 21.9284C25.0506 21.799 25.2462 21.7849 25.3755 21.8968C25.5049 22.0087 25.519 22.2043 25.4071 22.3336Z" fill="#6D1863"/>
<path d="M13.7244 31.4436C13.5548 31.6397 13.2583 31.6611 13.0622 31.4915C12.8661 31.3218 12.8447 31.0253 13.0144 30.8293C13.184 30.6332 13.4805 30.6117 13.6766 30.7814C13.8727 30.9511 13.8941 31.2476 13.7244 31.4436Z" fill="#6D1863"/>
<path d="M13.9685 22.3046C14.6796 23.3627 13.8775 25.1468 12.1769 26.2896C10.4764 27.4324 8.52146 27.5012 7.81041 26.4431C7.09937 25.3851 7.90149 23.6009 9.60201 22.4581C11.3025 21.3153 13.2575 21.2466 13.9685 22.3046Z" fill="#C448B5"/>
<path d="M27.3275 10.2106C28.3159 11.0157 27.1092 14.5603 24.3751 17.9169C21.6409 21.2735 17.9167 21.8752 16.875 21.6669C15.8866 20.8618 18.9584 21.8752 21.4584 17.9169C23.5417 13.9585 26.3392 9.40552 27.3275 10.2106Z" fill="#C448B5"/>
<path fill-rule="evenodd" clip-rule="evenodd" d="M10.8677 23.4302C11.1379 23.8028 11.0549 24.3239 10.6823 24.5941C10.4269 24.7792 10.2355 24.9949 10.0965 25.2428C9.87141 25.6443 9.36351 25.7872 8.96207 25.5622C8.56063 25.3371 8.41766 24.8292 8.64275 24.4277C8.90531 23.9594 9.26285 23.5646 9.70391 23.2448C10.0765 22.9746 10.5976 23.0576 10.8677 23.4302Z" fill="white"/>
<path fill-rule="evenodd" clip-rule="evenodd" d="M34.3846 7.14578C32.2557 6.86191 31.0646 7.97436 30.7577 8.48593C30.6393 8.68325 30.3833 8.74724 30.186 8.62884C29.9887 8.51045 29.9247 8.25451 30.0431 8.05718C30.5055 7.28642 32.0074 5.9881 34.4948 6.31975C34.7229 6.35017 34.8831 6.55973 34.8527 6.78783C34.8223 7.01593 34.6127 7.17619 34.3846 7.14578Z" fill="#537003"/>
<path d="M31.2684 7.65069C28.6458 4.97353 26.1198 7.65069 24.0105 8.28083C25.4562 9.37564 30.1662 10.6922 31.2684 7.65069Z" fill="#A3D711"/>
<path fill-rule="evenodd" clip-rule="evenodd" d="M29.3988 6.12149C30.1353 6.25488 30.8599 6.63875 31.566 7.35949C31.6781 7.47391 31.7146 7.64244 31.6601 7.79303C31.0148 9.57376 29.3116 10.0232 27.7444 9.93326C26.1769 9.84335 24.556 9.217 23.7589 8.61338C23.6338 8.51861 23.5725 8.36154 23.6005 8.20706C23.6284 8.05258 23.7408 7.92691 23.8912 7.88198C24.3737 7.73784 24.8907 7.47279 25.4738 7.17052C25.4849 7.16478 25.496 7.15903 25.5071 7.15327C26.0665 6.86323 26.679 6.54565 27.3135 6.33118C27.9653 6.11085 28.6677 5.98909 29.3988 6.12149ZM24.9571 8.35922C25.7039 8.71953 26.7565 9.04189 27.7921 9.10129C29.1208 9.17751 30.2566 8.82336 30.7742 7.75259C30.2408 7.26492 29.732 7.02874 29.2503 6.94149C28.7042 6.8426 28.1516 6.92755 27.5804 7.12063C27.0066 7.31457 26.4421 7.60721 25.864 7.90691L25.8546 7.91175C25.56 8.0645 25.2588 8.2206 24.9571 8.35922Z" fill="#709604"/>
<path d="M31.3865 7.69477C30.5195 8.49852 29.2187 11.9531 33.2552 14.375C32.8646 12.6823 35.599 8.43747 31.3865 7.69477Z" fill="#8CBA08"/>
<path fill-rule="evenodd" clip-rule="evenodd" d="M30.066 10.4509C29.9888 9.07246 30.57 7.88302 31.1032 7.38869C31.1988 7.30005 31.3304 7.26128 31.4588 7.28392C32.5871 7.48284 33.3268 7.93208 33.7505 8.587C34.1655 9.22846 34.2264 9.99121 34.1694 10.711C34.1223 11.3052 33.9889 11.9224 33.8698 12.4733C33.8452 12.5874 33.8211 12.6987 33.7986 12.8064C33.7312 13.128 33.6767 13.4181 33.6499 13.6751C33.6228 13.9351 33.6273 14.134 33.6611 14.2808C33.6987 14.4436 33.6353 14.6132 33.5001 14.7115C33.3649 14.8098 33.1841 14.8177 33.0408 14.7317C30.9179 13.458 30.1456 11.8709 30.066 10.4509ZM32.8215 13.5849C32.8531 13.2839 32.915 12.9602 32.9829 12.6356C33.0078 12.5168 33.0335 12.3978 33.0591 12.2788C33.1777 11.7287 33.2964 11.1782 33.3386 10.6452C33.3898 9.99937 33.3201 9.45588 33.0508 9.03966C32.8106 8.66841 32.3686 8.33361 31.535 8.14845C31.2167 8.55293 30.8416 9.39659 30.898 10.4042C30.9528 11.3809 31.4174 12.5401 32.8215 13.5849Z" fill="#709604"/>
<path d="M31.1695 7.69377C30.0154 7.43731 27.6688 7.96306 27.5149 12.1178C29.3101 11.8613 32.5544 10.6175 31.1695 7.69377Z" fill="#CDFD44"/>
<path fill-rule="evenodd" clip-rule="evenodd" d="M28.7022 7.93065C29.5675 7.21694 30.5797 7.13633 31.2601 7.28754C31.3856 7.31543 31.4912 7.39971 31.5462 7.51591C31.9255 8.31665 32.0053 9.043 31.8388 9.68717C31.6734 10.3268 31.2784 10.835 30.7994 11.2284C29.8543 12.0049 28.5094 12.3971 27.574 12.5308C27.4517 12.5482 27.328 12.5106 27.2363 12.428C27.1445 12.3453 27.0941 12.2263 27.0987 12.1029C27.1784 9.95097 27.8308 8.64938 28.7022 7.93065ZM27.9641 11.6126C28.7394 11.44 29.6358 11.1059 30.2704 10.5845C30.6539 10.2695 30.9224 9.90248 31.032 9.47862C31.1294 9.10153 31.1117 8.63862 30.8795 8.06846C30.4132 8.01811 29.7839 8.1187 29.2324 8.57353C28.6605 9.04523 28.1143 9.94688 27.9641 11.6126Z" fill="#709604"/>
</g>
<defs>
<filter id="filter0_d_212_3612" x="0" y="0" width="44" height="44" filterUnits="userSpaceOnUse" color-interpolation-filters="sRGB">
<feFlood flood-opacity="0" result="BackgroundImageFix"/>
<feColorMatrix in="SourceAlpha" type="matrix" values="0 0 0 0 0 0 0 0 0 0 0 0 0 0 0 0 0 0 127 0" result="hardAlpha"/>
<feOffset dx="4" dy="4"/>
<feColorMatrix type="matrix" values="0 0 0 0 0 0 0 0 0 0 0 0 0 0 0 0 0 0 0.2 0"/>
<feBlend mode="normal" in2="BackgroundImageFix" result="effect1_dropShadow_212_3612"/>
<feBlend mode="normal" in="SourceGraphic" in2="effect1_dropShadow_212_3612" result="shape"/>
</filter>
</defs>
</svg>
