<svg width="50" height="54" viewBox="0 0 50 54" fill="none" xmlns="http://www.w3.org/2000/svg">
<path fill-rule="evenodd" clip-rule="evenodd" d="M47.2965 27.5786L45.0165 26.963C44.4828 26.8185 43.9365 27.1722 43.8028 27.75L43.7903 27.7986C43.6565 28.3764 43.9853 28.9664 44.519 29.1108L46.799 29.7251C47.334 29.8695 47.8803 29.5158 48.0128 28.9394L48.0253 28.8894C48.1578 28.313 47.8303 27.723 47.2965 27.5786Z" fill="#FF9933"/>
<path fill-rule="evenodd" clip-rule="evenodd" d="M44.5835 15.8979L44.5497 15.8628C44.1535 15.4484 43.5172 15.4605 43.1335 15.8885L41.501 17.7123C41.1172 18.1403 41.1285 18.8274 41.5247 19.2419L41.5585 19.277C41.9535 19.6901 42.591 19.6793 42.9735 19.2513L44.6072 17.4261C44.9897 16.9982 44.9797 16.311 44.5835 15.8979Z" fill="#FF9933"/>
<path fill-rule="evenodd" clip-rule="evenodd" d="M32.3245 16.3763C32.4758 16.9487 33.0333 17.2821 33.562 17.1188L33.6083 17.1053C34.137 16.9406 34.447 16.3398 34.2958 15.7674L33.6495 13.328C33.497 12.7556 32.9408 12.4221 32.4108 12.5855L32.3658 12.599C31.8358 12.7623 31.527 13.3644 31.6783 13.9355L32.3245 16.3763Z" fill="#FF9933"/>
<path fill-rule="evenodd" clip-rule="evenodd" d="M29.9375 17.9236L28.2475 16.1592C27.8525 15.7461 27.215 15.7569 26.8325 16.1848L26.8 16.2213C26.4175 16.6492 26.4275 17.3364 26.8238 17.7508L28.5138 19.5153C28.9088 19.9284 29.5463 19.9162 29.9288 19.4896L29.9625 19.4518C30.345 19.0239 30.3338 18.3367 29.9375 17.9236Z" fill="#FF9933"/>
<path fill-rule="evenodd" clip-rule="evenodd" d="M44.8575 33.5037L43.1675 31.7392C42.7725 31.3261 42.135 31.3369 41.7525 31.7649L41.72 31.8013C41.3375 32.2293 41.3475 32.9164 41.7437 33.3309L43.4325 35.0953C43.8287 35.5084 44.4662 35.4963 44.8487 35.0697L44.8825 35.0319C45.265 34.6039 45.2537 33.9168 44.8575 33.5037Z" fill="#FF9933"/>
<path fill-rule="evenodd" clip-rule="evenodd" d="M43.732 23.2149C43.8832 23.7873 44.4395 24.1207 44.9695 23.9574L47.2282 23.2594C47.7582 23.0961 48.0682 22.494 47.917 21.9216L47.9032 21.873C47.752 21.3019 47.1957 20.9671 46.6657 21.1318L44.4057 21.8298C43.877 21.9931 43.567 22.5939 43.7182 23.1663L43.732 23.2149Z" fill="#FF9933"/>
<path fill-rule="evenodd" clip-rule="evenodd" d="M37.8067 17.0281L37.853 17.0403C38.3867 17.1847 38.933 16.831 39.0667 16.2532L39.6367 13.7922C39.7705 13.2144 39.443 12.6245 38.908 12.48L38.863 12.4679C38.328 12.3234 37.7817 12.6771 37.6492 13.2549L37.078 15.7173C36.9455 16.2937 37.273 16.8837 37.8067 17.0281Z" fill="#FF9933"/>
<path fill-rule="evenodd" clip-rule="evenodd" d="M37.4015 18.886C34.1828 18.0166 30.9265 19.9323 29.8065 23.2209C29.8703 23.2195 29.9315 23.2155 29.9953 23.2155C34.6028 23.2155 38.4665 26.7133 39.434 31.3803C40.7065 30.4542 41.6803 29.0448 42.0815 27.3114C42.944 23.5881 40.8478 19.8162 37.4015 18.886Z" fill="#FF9933"/>
<path fill-rule="evenodd" clip-rule="evenodd" d="M29.9949 24.9829C29.2886 24.9829 28.6049 25.0815 27.9524 25.2664C26.7299 21.5229 23.4286 18.8418 19.5461 18.8418C14.7874 18.8418 10.9011 22.8675 10.6461 27.9367C10.3549 27.8962 10.0599 27.8665 9.75862 27.8665C6.05612 27.8665 3.05487 31.1079 3.05487 35.1066C3.05487 39.1039 6.05612 42.3466 9.75862 42.3466H29.9949C34.2574 42.3466 37.7349 38.7624 38.0074 34.2318C38.0186 34.0441 38.0336 33.8551 38.0336 33.6648C38.0336 28.8696 34.4336 24.9829 29.9949 24.9829Z" fill="white"/>
</svg>
