<svg width="50" height="54" viewBox="0 0 50 54" fill="none" xmlns="http://www.w3.org/2000/svg">
<path fill-rule="evenodd" clip-rule="evenodd" d="M47.2966 27.5786L45.0166 26.963C44.4828 26.8185 43.9366 27.1722 43.8028 27.75L43.7903 27.7986C43.6566 28.3764 43.9853 28.9664 44.5191 29.1108L46.7991 29.7251C47.3341 29.8695 47.8803 29.5158 48.0128 28.9394L48.0253 28.8894C48.1578 28.313 47.8303 27.723 47.2966 27.5786Z" fill="#FF9933"/>
<path fill-rule="evenodd" clip-rule="evenodd" d="M44.5835 15.8979L44.5497 15.8628C44.1535 15.4484 43.5172 15.4605 43.1335 15.8885L41.501 17.7123C41.1172 18.1403 41.1285 18.8274 41.5247 19.2419L41.5585 19.277C41.9535 19.6901 42.591 19.6793 42.9735 19.2513L44.6072 17.4261C44.9897 16.9982 44.9797 16.311 44.5835 15.8979Z" fill="#FF9933"/>
<path fill-rule="evenodd" clip-rule="evenodd" d="M32.3246 16.3763C32.4758 16.9487 33.0333 17.2821 33.5621 17.1188L33.6083 17.1053C34.1371 16.9406 34.4471 16.3398 34.2958 15.7674L33.6496 13.328C33.4971 12.7556 32.9408 12.4221 32.4108 12.5855L32.3658 12.599C31.8358 12.7623 31.5271 13.3644 31.6783 13.9355L32.3246 16.3763Z" fill="#FF9933"/>
<path fill-rule="evenodd" clip-rule="evenodd" d="M29.9376 17.9236L28.2476 16.1592C27.8526 15.7461 27.2151 15.7569 26.8326 16.1848L26.8001 16.2213C26.4176 16.6492 26.4276 17.3364 26.8238 17.7508L28.5138 19.5153C28.9088 19.9284 29.5463 19.9162 29.9288 19.4896L29.9626 19.4518C30.3451 19.0239 30.3338 18.3367 29.9376 17.9236Z" fill="#FF9933"/>
<path fill-rule="evenodd" clip-rule="evenodd" d="M44.8576 33.5037L43.1676 31.7392C42.7726 31.3261 42.1351 31.3369 41.7526 31.7649L41.7201 31.8013C41.3376 32.2293 41.3476 32.9164 41.7439 33.3309L43.4326 35.0953C43.8289 35.5084 44.4664 35.4963 44.8489 35.0697L44.8826 35.0319C45.2651 34.6039 45.2539 33.9168 44.8576 33.5037Z" fill="#FF9933"/>
<path fill-rule="evenodd" clip-rule="evenodd" d="M43.732 23.2149C43.8833 23.7873 44.4395 24.1207 44.9695 23.9574L47.2283 23.2594C47.7583 23.0961 48.0683 22.494 47.917 21.9216L47.9033 21.873C47.752 21.3019 47.1958 20.9671 46.6658 21.1318L44.4058 21.8298C43.877 21.9931 43.567 22.5939 43.7183 23.1663L43.732 23.2149Z" fill="#FF9933"/>
<path fill-rule="evenodd" clip-rule="evenodd" d="M37.8068 17.0281L37.853 17.0403C38.3868 17.1847 38.933 16.831 39.0668 16.2532L39.6368 13.7922C39.7705 13.2144 39.443 12.6245 38.908 12.48L38.863 12.4679C38.328 12.3234 37.7818 12.6771 37.6493 13.2549L37.078 15.7173C36.9455 16.2937 37.273 16.8837 37.8068 17.0281Z" fill="#FF9933"/>
<path fill-rule="evenodd" clip-rule="evenodd" d="M37.4016 18.886C34.1829 18.0166 30.9266 19.9323 29.8066 23.2209C29.8704 23.2195 29.9316 23.2155 29.9954 23.2155C34.6029 23.2155 38.4666 26.7133 39.4341 31.3803C40.7066 30.4542 41.6804 29.0448 42.0816 27.3114C42.9441 23.5881 40.8479 19.8162 37.4016 18.886Z" fill="#FF9933"/>
<path fill-rule="evenodd" clip-rule="evenodd" d="M29.9949 24.9829C29.2887 24.9829 28.6049 25.0815 27.9524 25.2664C26.7299 21.5229 23.4287 18.8418 19.5462 18.8418C14.7874 18.8418 10.9012 22.8675 10.6462 27.9367C10.3549 27.8962 10.0599 27.8665 9.75868 27.8665C6.05618 27.8665 3.05493 31.1079 3.05493 35.1066C3.05493 39.1039 6.05618 42.3466 9.75868 42.3466H29.9949C34.2574 42.3466 37.7349 38.7624 38.0074 34.2318C38.0187 34.0441 38.0337 33.8551 38.0337 33.6648C38.0337 28.8696 34.4337 24.9829 29.9949 24.9829Z" fill="white"/>
</svg>
