<svg width="50" height="54" viewBox="0 0 50 54" fill="none" xmlns="http://www.w3.org/2000/svg">
<path fill-rule="evenodd" clip-rule="evenodd" d="M47.2966 27.5795L45.0166 26.9639C44.4828 26.8195 43.9366 27.1732 43.8028 27.751L43.7903 27.7996C43.6566 28.3774 43.9853 28.9673 44.5191 29.1118L46.7991 29.726C47.3341 29.8705 47.8803 29.5168 48.0128 28.9403L48.0253 28.8904C48.1578 28.3139 47.8303 27.724 47.2966 27.5795Z" fill="#FF9933"/>
<path fill-rule="evenodd" clip-rule="evenodd" d="M44.5835 15.8989L44.5498 15.8638C44.1535 15.4493 43.5173 15.4615 43.1335 15.8894L41.501 17.7133C41.1173 18.1412 41.1285 18.8284 41.5248 19.2428L41.5585 19.2779C41.9535 19.691 42.591 19.6802 42.9735 19.2523L44.6073 17.4271C44.9898 16.9991 44.9798 16.312 44.5835 15.8989Z" fill="#FF9933"/>
<path fill-rule="evenodd" clip-rule="evenodd" d="M32.3246 16.3753C32.4758 16.9477 33.0333 17.2811 33.5621 17.1178L33.6083 17.1043C34.1371 16.9396 34.4471 16.3388 34.2958 15.7664L33.6496 13.327C33.4971 12.7546 32.9408 12.4211 32.4108 12.5845L32.3658 12.598C31.8358 12.7613 31.5271 13.3634 31.6783 13.9345L32.3246 16.3753Z" fill="#FF9933"/>
<path fill-rule="evenodd" clip-rule="evenodd" d="M29.9376 17.9226L28.2476 16.1582C27.8526 15.7451 27.2151 15.7559 26.8326 16.1838L26.8001 16.2203C26.4176 16.6482 26.4276 17.3354 26.8238 17.7498L28.5138 19.5143C28.9088 19.9274 29.5463 19.9152 29.9288 19.4886L29.9626 19.4508C30.3451 19.0229 30.3338 18.3357 29.9376 17.9226Z" fill="#FF9933"/>
<path fill-rule="evenodd" clip-rule="evenodd" d="M44.8575 33.5047L43.1676 31.7402C42.7726 31.3271 42.1351 31.3379 41.7526 31.7659L41.7201 31.8023C41.3376 32.2303 41.3476 32.9174 41.7438 33.3319L43.4326 35.0963C43.8288 35.5094 44.4663 35.4973 44.8488 35.0707L44.8825 35.0329C45.265 34.6049 45.2538 33.9178 44.8575 33.5047Z" fill="#FF9933"/>
<path fill-rule="evenodd" clip-rule="evenodd" d="M43.732 23.2149C43.8833 23.7873 44.4395 24.1207 44.9695 23.9574L47.2283 23.2594C47.7583 23.0961 48.0683 22.494 47.917 21.9216L47.9033 21.873C47.752 21.3019 47.1958 20.9671 46.6658 21.1318L44.4058 21.8298C43.877 21.9931 43.567 22.5939 43.7183 23.1663L43.732 23.2149Z" fill="#FF9933"/>
<path fill-rule="evenodd" clip-rule="evenodd" d="M37.8068 17.0281L37.853 17.0403C38.3868 17.1847 38.933 16.831 39.0668 16.2532L39.6368 13.7922C39.7705 13.2144 39.443 12.6245 38.908 12.48L38.863 12.4679C38.328 12.3234 37.7818 12.6771 37.6493 13.2549L37.078 15.7173C36.9455 16.2937 37.273 16.8837 37.8068 17.0281Z" fill="#FF9933"/>
<path fill-rule="evenodd" clip-rule="evenodd" d="M37.4016 18.887C34.1829 18.0176 30.9266 19.9332 29.8066 23.2218C29.8704 23.2205 29.9316 23.2165 29.9954 23.2165C34.6029 23.2165 38.4666 26.7143 39.4341 31.3813C40.7066 30.4552 41.6804 29.0458 42.0816 27.3124C42.9441 23.5891 40.8479 19.8171 37.4016 18.887Z" fill="#FF9933"/>
<path fill-rule="evenodd" clip-rule="evenodd" d="M29.9949 24.9829C29.2887 24.9829 28.6049 25.0815 27.9524 25.2664C26.7299 21.5229 23.4287 18.8418 19.5462 18.8418C14.7874 18.8418 10.9012 22.8675 10.6462 27.9367C10.3549 27.8962 10.0599 27.8665 9.75868 27.8665C6.05618 27.8665 3.05493 31.1079 3.05493 35.1066C3.05493 39.1039 6.05618 42.3466 9.75868 42.3466H29.9949C34.2574 42.3466 37.7349 38.7624 38.0074 34.2318C38.0187 34.0441 38.0337 33.8551 38.0337 33.6648C38.0337 28.8696 34.4337 24.9829 29.9949 24.9829Z" fill="white"/>
</svg>
