<svg width="18" height="18" viewBox="0 0 18 18" fill="none" xmlns="http://www.w3.org/2000/svg">
<path d="M8.9869 3.48C10.6745 3.48 11.8128 4.21 12.4619 4.82L14.9982 2.34C13.4405 0.890001 11.4134 0 8.9869 0C5.47198 0 2.43636 2.02 0.958496 4.96L3.8643 7.22C4.59325 5.05 6.61033 3.48 8.9869 3.48Z" fill="white"/>
<path d="M17.6146 9.19938C17.6146 8.45938 17.5547 7.91938 17.4249 7.35938H8.98706V10.6994H13.9399C13.84 11.5294 13.3008 12.7794 12.1026 13.6194L14.9385 15.8194C16.636 14.2494 17.6146 11.9394 17.6146 9.19938Z" fill="white"/>
<path d="M3.8744 10.7809C3.68468 10.2209 3.57484 9.62094 3.57484 9.00094C3.57484 8.38094 3.68468 7.78094 3.86442 7.22094L0.958615 4.96094C0.349495 6.18094 0 7.55094 0 9.00094C0 10.4509 0.349495 11.8209 0.958615 13.0409L3.8744 10.7809Z" fill="white"/>
<path d="M8.98692 17.9993C11.4134 17.9993 13.4505 17.1993 14.9383 15.8193L12.1024 13.6193C11.3435 14.1493 10.325 14.5193 8.98692 14.5193C6.61036 14.5193 4.59327 12.9493 3.87431 10.7793L0.968506 13.0393C2.44637 15.9793 5.472 17.9993 8.98692 17.9993Z" fill="white"/>
</svg>
