<svg width="33" height="33" viewBox="0 0 33 33" fill="none" xmlns="http://www.w3.org/2000/svg">
<path d="M32.4402 12.9631L29.6966 10.5901L28.2751 9.42715L17.5649 0.390892C16.941 -0.130297 16.0071 -0.130297 15.3832 0.390892L4.67297 9.42715L3.25155 10.5901L0.50788 12.9631C-0.130245 13.5459 -0.172495 14.5031 0.412032 15.1347C0.996559 15.7662 2.00051 15.8481 2.68959 15.3204L3.25155 14.8489V28.2854C3.25155 30.8892 5.47152 33 8.20999 33H11.5156V23.5709C11.5156 20.9671 13.7356 18.8563 16.4741 18.8563C19.2125 18.8563 21.4325 20.9671 21.4325 23.5709V33H24.7381C27.4766 33 29.6966 30.8892 29.6966 28.2854V14.8489L30.2585 15.3204C30.9434 15.8924 31.9861 15.8291 32.589 15.1789C33.1906 14.5277 33.124 13.5363 32.4402 12.9631Z" fill="white"/>
</svg>
