<svg width="28" height="32" viewBox="0 0 28 32" fill="none" xmlns="http://www.w3.org/2000/svg">
<path d="M14.3393 8.38018C13.7784 4.18159 10.4555 4.85707 8.46179 2.60542C9.02323 3.99624 12.4714 7.82222 14.3393 8.38018Z" fill="#73B40D"/>
<path fill-rule="evenodd" clip-rule="evenodd" d="M14.9353 9.08434C15.1703 8.87907 15.2869 8.56679 15.2452 8.25473C15.0876 7.07486 14.7254 6.17128 14.1919 5.45968C13.6624 4.75349 13.0101 4.29822 12.3756 3.94657C12.0611 3.77224 11.7394 3.61735 11.4386 3.4737C11.4156 3.46273 11.3927 3.45182 11.37 3.44097C11.088 3.30638 10.8244 3.1806 10.5658 3.04329C10.0135 2.75004 9.53778 2.43112 9.14142 1.98348C8.84403 1.64761 8.35202 1.57792 7.97562 1.81836C7.59922 2.05879 7.44759 2.53962 7.61634 2.95766C7.80663 3.42906 8.19321 4.01204 8.63339 4.58648C9.08896 5.18102 9.65504 5.83427 10.2603 6.45744C10.8648 7.07972 11.5212 7.68528 12.1594 8.17765C12.7793 8.65603 13.4521 9.08306 14.0818 9.27113C14.379 9.35993 14.7003 9.28962 14.9353 9.08434ZM14.0928 7.25965C14.1999 7.58956 14.2834 7.96033 14.3395 8.37974C14.0338 8.28843 13.6858 8.10959 13.315 7.86822C12.257 7.17943 11.0137 5.98144 10.0403 4.85517C9.27045 3.96449 8.66934 3.11866 8.46199 2.60499C9.08819 3.31221 9.8455 3.73066 10.6072 4.10206C10.731 4.16244 10.8549 4.22157 10.9784 4.2805C12.2725 4.89792 13.5194 5.49285 14.0928 7.25965Z" fill="#436C02"/>
<path d="M14.6659 9.73001C15.2268 5.53142 18.6521 3.50495 20.8674 3.9553C17.5445 4.4056 18.4306 8.68369 14.6659 9.73001Z" fill="#73B40D"/>
<path fill-rule="evenodd" clip-rule="evenodd" d="M14.0635 10.4295C13.8327 10.224 13.7188 9.91462 13.7601 9.60565C14.3787 4.97496 18.2228 2.47083 21.0466 3.04491C21.4848 3.134 21.7954 3.53208 21.7809 3.98607C21.7664 4.44007 21.4311 4.81685 20.9881 4.87688C19.8444 5.03187 19.4286 5.75255 18.7374 7.05962L18.7291 7.07537C18.065 8.33142 17.1863 9.99334 14.9069 10.6268C14.611 10.7091 14.2942 10.635 14.0635 10.4295ZM14.8757 8.6803C14.7857 9.01371 14.7148 9.3639 14.6658 9.73066C15.0407 9.62648 15.3694 9.49025 15.6608 9.32895C16.8474 8.67213 17.4144 7.59957 17.9524 6.58185C18.2215 6.07273 18.4834 5.57734 18.8119 5.15458C19.2851 4.5457 19.8966 4.08749 20.8673 3.95595C20.0847 3.79684 19.1511 3.94688 18.2461 4.39261C16.8131 5.09834 15.452 6.54534 14.8757 8.6803Z" fill="#436C02"/>
<path fill-rule="evenodd" clip-rule="evenodd" d="M14.6646 2.12695C15.1694 2.12695 15.5786 2.54292 15.5786 3.05603V9.81092C15.5786 10.324 15.1694 10.74 14.6646 10.74C14.1597 10.74 13.7505 10.324 13.7505 9.81092V3.05603C13.7505 2.54292 14.1597 2.12695 14.6646 2.12695Z" fill="#457003"/>
<path d="M10.6771 9.13557C5.55141 8.6913 0.598869 12.9241 0.930035 18.1421C1.46173 27.689 9.34791 31.0717 14 31.0717C18.4304 31.0717 26.1838 27.8691 27.0699 18.1421C27.4011 12.9242 22.4485 8.6913 17.3228 9.13557C15.971 9.25274 14.4726 10.0806 14 10.1661C13.5273 10.0806 12.0289 9.25274 10.6771 9.13557Z" fill="#FF3A1A"/>
<path fill-rule="evenodd" clip-rule="evenodd" d="M27.9813 18.2139L27.9801 18.2268C27.0378 28.5713 18.7507 31.9998 14 31.9998C11.4868 31.9998 8.15373 31.095 5.36413 28.9236C2.54526 26.7294 0.300222 23.2533 0.0176587 18.1972C-0.352827 12.3213 5.16827 7.72464 10.7548 8.20886C11.5631 8.27892 12.374 8.55466 12.9924 8.79301C13.2027 8.87407 13.4095 8.95848 13.5857 9.03042C13.6668 9.06352 13.7415 9.09398 13.807 9.12026C13.8814 9.15008 13.9452 9.17507 14 9.19557C14.0548 9.17507 14.1186 9.15008 14.193 9.12026C14.2585 9.09398 14.3332 9.06352 14.4143 9.03042C14.5905 8.95848 14.7973 8.87407 15.0076 8.79301C15.626 8.55466 16.4369 8.27892 17.2452 8.20886C22.8329 7.72454 28.3552 12.3233 27.9821 18.2009L27.9813 18.2139ZM14 10.1651C13.843 10.1367 13.573 10.0265 13.2327 9.88754C12.5483 9.60815 11.58 9.21284 10.6771 9.13458C5.55144 8.69031 0.598898 12.9232 0.930064 18.1411C1.46176 27.688 9.34794 31.0707 14 31.0707C18.4304 31.0707 26.1839 27.8682 27.0699 18.1411C27.4012 12.9232 22.4485 8.69031 17.3229 9.13458C16.42 9.21284 15.4517 9.60815 14.7673 9.88754C14.427 10.0265 14.157 10.1367 14 10.1651Z" fill="#A20505"/>
<path fill-rule="evenodd" clip-rule="evenodd" d="M3.02808 12.2501C4.89079 10.1484 7.7558 8.88237 10.677 9.13557C11.5799 9.21383 12.5482 9.60914 13.2326 9.88853C13.5729 10.0274 13.8429 10.1377 13.9999 10.1661C14.1569 10.1377 14.427 10.0274 14.7672 9.88853C15.4516 9.60914 16.4199 9.21383 17.3228 9.13557C20.4142 8.86762 23.4426 10.301 25.2869 12.6257C22.8825 11.3739 19.9901 10.7057 17.3228 10.9369C16.4199 11.0151 15.4516 11.4104 14.7672 11.6898C14.427 11.8287 14.1569 11.939 13.9999 11.9674C13.843 11.939 13.5729 11.8287 13.2326 11.6898C12.5482 11.4104 11.58 11.0151 10.6771 10.9369C7.91965 10.6979 5.24618 11.218 3.02808 12.2501Z" fill="#E83214"/>
<path fill-rule="evenodd" clip-rule="evenodd" d="M5.172 27.5584C7.55331 29.0768 10.1982 29.7205 12.2276 29.7205C16.6581 29.7205 24.4115 26.518 25.2976 16.7909C25.4555 14.3031 24.4123 12.0392 22.7219 10.3994C25.4083 11.9866 27.2774 14.8707 27.0698 18.1419C26.1837 27.869 18.4303 31.0715 13.9998 31.0715C11.4478 31.0715 7.92251 30.0535 5.172 27.5584Z" fill="#E83214"/>
<path d="M14.6645 8.11835C17.7658 5.30632 18.6519 8.45865 21.5317 8.90895C20.0768 9.1792 16.1348 9.41554 14.6645 8.11835Z" fill="#8ED918"/>
<path fill-rule="evenodd" clip-rule="evenodd" d="M13.7505 8.12412C13.7487 7.85713 13.86 7.60226 14.0561 7.42452C14.9021 6.65741 15.6942 6.20638 16.4948 6.07459C17.3166 5.93932 18.0084 6.16297 18.5903 6.45888C18.8747 6.60354 19.147 6.77285 19.3963 6.93154C19.4496 6.96546 19.5017 6.99882 19.5531 7.03168C19.7517 7.15881 19.9388 7.2785 20.1371 7.39494C20.6239 7.68069 21.1074 7.90207 21.6708 7.99016C22.1119 8.05913 22.4395 8.4418 22.4458 8.89538C22.4521 9.34897 22.1352 9.74084 21.6961 9.82238C20.8998 9.97029 19.48 10.1017 18.0579 10.0288C17.3443 9.99224 16.6034 9.90299 15.9263 9.72662C15.261 9.55333 14.5846 9.27755 14.0654 8.81946C13.867 8.64443 13.7523 8.39112 13.7505 8.12412ZM15.4075 7.52638C15.1741 7.68425 14.9273 7.87964 14.6646 8.11783C14.8907 8.31738 15.1754 8.48064 15.5005 8.61307C16.579 9.05239 18.1026 9.15241 19.4122 9.11244C20.274 9.08613 21.0432 8.9992 21.5318 8.90844C20.7926 8.79285 20.1848 8.49925 19.6371 8.17417C19.4376 8.05577 19.2461 7.93319 19.0592 7.81351C17.9291 7.09018 16.9651 6.47311 15.4075 7.52638Z" fill="#436C02"/>
<path d="M13.9999 8.45959C12.2278 6.20793 10.234 7.55891 6.46811 7.78406C8.01876 8.68472 12.2738 9.37494 13.9999 8.45959Z" fill="#8ED918"/>
<path fill-rule="evenodd" clip-rule="evenodd" d="M14.8944 8.65095C14.9507 8.37915 14.8845 8.09599 14.7137 7.87908C14.1856 7.20797 13.5988 6.75586 12.9228 6.50115C12.2589 6.25106 11.5812 6.21904 10.9181 6.26606C10.3601 6.30563 9.7538 6.40736 9.13897 6.51052C9.03871 6.52734 8.93822 6.54421 8.83767 6.56084C8.10136 6.68267 7.3079 6.80304 6.41447 6.85645C6.01067 6.8806 5.67049 7.17164 5.57819 7.57194C5.4859 7.97225 5.66343 8.38661 6.01464 8.5906C6.9468 9.13202 8.54074 9.54921 10.0647 9.7258C10.8431 9.81598 11.6441 9.84849 12.3802 9.79328C13.1011 9.73922 13.8326 9.59613 14.4228 9.28317C14.6651 9.15468 14.8381 8.92275 14.8944 8.65095ZM13.2941 7.75354C13.5354 7.93488 13.7696 8.16672 14 8.45945C13.737 8.59892 13.4152 8.70112 13.0533 8.77098C11.7544 9.02168 9.93774 8.85583 8.45904 8.50157C7.64567 8.30671 6.93457 8.05484 6.46815 7.78393C7.21058 7.73954 7.88413 7.6514 8.50069 7.55573C8.77613 7.51299 9.04019 7.46875 9.29394 7.42623C10.9788 7.14396 12.2088 6.93787 13.2941 7.75354Z" fill="#436C02"/>
<path d="M10.8788 11.8998C11.7894 13.277 10.8799 15.5188 8.84757 16.9071C6.8152 18.2954 4.42949 18.3044 3.51894 16.9272C2.60839 15.55 3.5178 13.3082 5.55017 11.9199C7.58255 10.5317 9.96826 10.5227 10.8788 11.8998Z" fill="#FE7B7B"/>
<path fill-rule="evenodd" clip-rule="evenodd" d="M7.1049 12.9935C7.40124 13.409 7.31017 13.9899 6.90148 14.2911C6.60232 14.5116 6.37728 14.7691 6.21382 15.0654C5.96693 15.513 5.40982 15.6724 4.96949 15.4214C4.52915 15.1705 4.37234 14.6042 4.61923 14.1567C4.91823 13.6146 5.32545 13.1574 5.82832 12.7868C6.23701 12.4856 6.80856 12.5781 7.1049 12.9935Z" fill="white"/>
<path d="M22.0258 21.8601C21.7333 22.2637 21.1743 22.3498 20.7772 22.0525C20.3802 21.7552 20.2954 21.187 20.5879 20.7834C20.8805 20.3798 21.4395 20.2937 21.8365 20.591C22.2336 20.8884 22.3183 21.4565 22.0258 21.8601Z" fill="#BD1106"/>
<path d="M23.4431 24.8532C23.1506 25.2568 22.5916 25.3429 22.1945 25.0456C21.7975 24.7482 21.7127 24.18 22.0052 23.7765C22.2978 23.3729 22.8568 23.2868 23.2538 23.5841C23.6509 23.8814 23.7356 24.4496 23.4431 24.8532Z" fill="#BD1106"/>
<path d="M24.507 21.7829C24.2876 22.0856 23.8684 22.1502 23.5706 21.9272C23.2728 21.7042 23.2092 21.2781 23.4286 20.9754C23.648 20.6727 24.0673 20.6081 24.3651 20.8311C24.6628 21.0541 24.7264 21.4803 24.507 21.7829Z" fill="#BD1106"/>
<path d="M21.1909 27.2052C20.8983 27.6087 20.3393 27.6948 19.9423 27.3975C19.5452 27.1002 19.4605 26.532 19.753 26.1284C20.0455 25.7249 20.6045 25.6387 21.0016 25.9361C21.3986 26.2334 21.4834 26.8016 21.1909 27.2052Z" fill="#BD1106"/>
<path d="M20.3333 24.2564C20.0408 24.66 19.4818 24.7461 19.0847 24.4488C18.6877 24.1515 18.6029 23.5833 18.8955 23.1797C19.188 22.7761 19.747 22.69 20.1441 22.9873C20.5411 23.2847 20.6258 23.8529 20.3333 24.2564Z" fill="#BD1106"/>
<path d="M17.8626 28.5564C17.5701 28.96 17.011 29.0461 16.614 28.7488C16.217 28.4514 16.1322 27.8833 16.4247 27.4797C16.7173 27.0761 17.2763 26.99 17.6733 27.2873C18.0704 27.5846 18.1551 28.1528 17.8626 28.5564Z" fill="#BD1106"/>
<path d="M17.5145 25.6978C17.222 26.1013 16.663 26.1875 16.2659 25.8901C15.8689 25.5928 15.7841 25.0246 16.0767 24.6211C16.3692 24.2175 16.9282 24.1314 17.3252 24.4287C17.7223 24.726 17.807 25.2942 17.5145 25.6978Z" fill="#BD1106"/>
<path d="M14.3736 29.0409C14.1542 29.3436 13.7349 29.4082 13.4371 29.1852C13.1393 28.9622 13.0758 28.5361 13.2952 28.2334C13.5146 27.9307 13.9338 27.8661 14.2316 28.0891C14.5294 28.3121 14.593 28.7382 14.3736 29.0409Z" fill="#BD1106"/>
</svg>
