<svg width="32" height="30" viewBox="0 0 32 30" fill="none" xmlns="http://www.w3.org/2000/svg">
<path d="M16.8758 10.7499C20.374 3.62801 23.7994 3.46614 25.0747 4.27545C27.5891 5.35452 26.2551 9.53598 25.6214 11.6941C23.4033 19.2477 18.1057 27.071 12.0932 28.285C7.67509 29.177 1.92025 28.5912 0.963678 24.14C0.144194 20.3267 3.34761 17.764 6.35389 17.0895C9.36017 16.4151 13.3776 17.8719 16.8758 10.7499Z" fill="#A33795"/>
<path fill-rule="evenodd" clip-rule="evenodd" d="M25.0747 4.27491C27.5038 5.31742 26.341 9.25566 25.688 11.4675C25.665 11.545 25.6428 11.6205 25.6213 11.6936C23.4032 19.2471 18.1056 27.0705 12.0931 28.2844C7.67502 29.1765 1.92018 28.5906 0.96361 24.1394C0.144125 20.3261 3.34754 17.7634 6.35382 17.089C6.96671 16.9515 7.62162 16.9026 8.30559 16.8515C10.9766 16.652 14.0907 16.4194 16.8758 10.7494C20.374 3.62746 23.7993 3.4656 25.0747 4.27491ZM21.3956 3.81424C23.029 2.88173 24.5127 2.96643 25.4628 3.53527C27.1936 4.31611 27.4617 6.13589 27.3599 7.63602C27.2616 9.08452 26.8022 10.6382 26.4905 11.6923C26.4664 11.7741 26.4431 11.8529 26.4209 11.9284C25.2859 15.7936 23.363 19.7331 20.9401 22.8752C18.5302 26.0005 15.5458 28.4375 12.258 29.1013C9.96542 29.5642 7.28127 29.6557 5.00545 29.0181C2.71023 28.375 0.71359 26.9423 0.148877 24.3145C-0.323918 22.1145 0.374802 20.2554 1.60277 18.8817C2.81065 17.5306 4.52681 16.6448 6.17141 16.2759C6.84997 16.1236 7.5809 16.0694 8.26722 16.0185C8.4161 16.0074 8.56288 15.9965 8.70658 15.9848C9.54538 15.9165 10.3558 15.8188 11.165 15.547C12.7241 15.0234 14.4522 13.7933 16.1278 10.382C17.9155 6.74233 19.7418 4.75838 21.3956 3.81424Z" fill="#800771"/>
<path fill-rule="evenodd" clip-rule="evenodd" d="M1.28857 25.15C2.84669 28.6768 8.03403 29.1046 12.0931 28.2851C18.1056 27.0711 23.4032 19.2478 25.6213 11.6943C25.6427 11.6211 25.665 11.5457 25.6879 11.4681C26.341 9.25633 27.5038 5.31809 25.0746 4.27558C25.026 4.24469 24.9742 4.21522 24.9194 4.1875C25.2467 5.82722 24.5846 8.06977 24.1491 9.54465C24.1262 9.62221 24.104 9.69765 24.0825 9.77077C21.8644 17.3243 16.5668 25.1477 10.5543 26.3616C7.40397 26.9977 3.574 26.8823 1.28857 25.15Z" fill="#8E2A82"/>
<path d="M15.9443 23.3202C15.7659 23.5264 15.4541 23.5489 15.2479 23.3705C15.0417 23.1921 15.0191 22.8803 15.1976 22.6741C15.376 22.4678 15.6878 22.4453 15.894 22.6237C16.1002 22.8022 16.1228 23.114 15.9443 23.3202Z" fill="#6D1863"/>
<path d="M19.3054 21.5143C19.0792 21.7758 18.6839 21.8043 18.4224 21.5781C18.161 21.3519 18.1324 20.9566 18.3586 20.6951C18.5848 20.4337 18.9801 20.4051 19.2416 20.6313C19.503 20.8575 19.5316 21.2529 19.3054 21.5143Z" fill="#6D1863"/>
<path d="M21.9218 18.1864C21.6956 18.4479 21.3003 18.4764 21.0388 18.2502C20.7774 18.024 20.7488 17.6287 20.975 17.3673C21.2012 17.1058 21.5966 17.0772 21.858 17.3035C22.1195 17.5297 22.148 17.925 21.9218 18.1864Z" fill="#6D1863"/>
<path d="M14.8958 25.3107C14.6696 25.5721 14.2743 25.6007 14.0128 25.3745C13.7514 25.1483 13.7228 24.7529 13.9491 24.4915C14.1753 24.23 14.5706 24.2015 14.832 24.4277C15.0935 24.6539 15.122 25.0492 14.8958 25.3107Z" fill="#6D1863"/>
<path d="M17.6583 22.9785C17.4886 23.1746 17.1922 23.196 16.9961 23.0264C16.8 22.8567 16.7786 22.5602 16.9482 22.3641C17.1179 22.1681 17.4144 22.1466 17.6105 22.3163C17.8065 22.486 17.828 22.7824 17.6583 22.9785Z" fill="#6D1863"/>
<path d="M16.8741 24.7183C16.7044 24.9144 16.408 24.9358 16.2119 24.7662C16.0158 24.5965 15.9944 24.3 16.164 24.1039C16.3337 23.9079 16.6302 23.8864 16.8263 24.0561C17.0223 24.2258 17.0438 24.5223 16.8741 24.7183Z" fill="#6D1863"/>
<path d="M20.2483 20.098C20.0786 20.2941 19.7821 20.3155 19.586 20.1458C19.3899 19.9762 19.3685 19.6797 19.5382 19.4836C19.7078 19.2875 20.0043 19.2661 20.2004 19.4358C20.3965 19.6054 20.4179 19.9019 20.2483 20.098Z" fill="#6D1863"/>
<path d="M17.3946 21.4443C17.2249 21.6404 16.9284 21.6618 16.7324 21.4922C16.5363 21.3225 16.5148 21.026 16.6845 20.8299C16.8542 20.6339 17.1507 20.6124 17.3467 20.7821C17.5428 20.9518 17.5642 21.2483 17.3946 21.4443Z" fill="#6D1863"/>
<path d="M13.1948 26.8043C12.9686 27.0657 12.5733 27.0943 12.3119 26.8681C12.0504 26.6419 12.0219 26.2465 12.2481 25.9851C12.4743 25.7237 12.8696 25.6951 13.131 25.9213C13.3925 26.1475 13.4211 26.5428 13.1948 26.8043Z" fill="#6D1863"/>
<path d="M13.1772 24.5666C12.951 24.828 12.5556 24.8566 12.2942 24.6304C12.0328 24.4042 12.0042 24.0088 12.2304 23.7474C12.4566 23.486 12.8519 23.4574 13.1134 23.6836C13.3748 23.9098 13.4034 24.3051 13.1772 24.5666Z" fill="#6D1863"/>
<path d="M10.7959 27.5509C10.5697 27.8123 10.1744 27.8409 9.91295 27.6147C9.6515 27.3884 9.62294 26.9931 9.84915 26.7317C10.0754 26.4702 10.4707 26.4417 10.7321 26.6679C10.9936 26.8941 11.0221 27.2894 10.7959 27.5509Z" fill="#6D1863"/>
<path d="M11.0129 25.6941C10.8332 25.9018 10.519 25.9245 10.3113 25.7448C10.1035 25.565 10.0808 25.2509 10.2606 25.0431C10.4403 24.8354 10.7545 24.8127 10.9622 24.9925C11.17 25.1722 11.1927 25.4863 11.0129 25.6941Z" fill="#6D1863"/>
<path d="M22.5456 16.3365C22.4337 16.4659 22.2382 16.48 22.1088 16.3681C21.9795 16.2562 21.9653 16.0606 22.0772 15.9313C22.1892 15.8019 22.3847 15.7878 22.5141 15.8997C22.6434 16.0116 22.6575 16.2072 22.5456 16.3365Z" fill="#6D1863"/>
<path d="M20.014 18.5826C19.9021 18.712 19.7065 18.7261 19.5772 18.6142C19.4479 18.5023 19.4337 18.3067 19.5456 18.1774C19.6575 18.048 19.8531 18.0339 19.9824 18.1458C20.1118 18.2577 20.1259 18.4533 20.014 18.5826Z" fill="#6D1863"/>
<path d="M8.33138 27.6927C8.16172 27.8887 7.86523 27.9102 7.66914 27.7405C7.47306 27.5709 7.45164 27.2744 7.62129 27.0783C7.79095 26.8822 8.08744 26.8608 8.28353 27.0304C8.47961 27.2001 8.50103 27.4966 8.33138 27.6927Z" fill="#6D1863"/>
<path d="M8.57535 18.5546C9.2864 19.6127 8.48427 21.3968 6.78375 22.5396C5.08323 23.6824 3.12827 23.7512 2.41722 22.6931C1.70618 21.6351 2.5083 19.8509 4.20883 18.7081C5.90935 17.5653 7.86431 17.4966 8.57535 18.5546Z" fill="#C448B5"/>
<path d="M21.9345 6.45865C22.9229 7.26374 21.7161 10.8083 18.982 14.1649C16.2479 17.5215 12.5237 18.1232 11.4819 17.9149C10.4936 17.1098 13.5653 18.1232 16.0653 14.1649C18.1486 10.2066 20.9461 5.65356 21.9345 6.45865Z" fill="#C448B5"/>
<path fill-rule="evenodd" clip-rule="evenodd" d="M5.47479 19.6793C5.74496 20.0519 5.66193 20.5729 5.28933 20.8431C5.03399 21.0282 4.84255 21.244 4.70355 21.4919C4.47847 21.8933 3.97057 22.0363 3.56913 21.8112C3.16768 21.5861 3.02472 21.0782 3.2498 20.6768C3.51237 20.2085 3.8699 19.8136 4.31096 19.4938C4.68356 19.2236 5.20462 19.3067 5.47479 19.6793Z" fill="white"/>
<path fill-rule="evenodd" clip-rule="evenodd" d="M28.9914 3.3948C26.8625 3.11094 25.6714 4.22339 25.3645 4.73495C25.2461 4.93228 24.9901 4.99626 24.7928 4.87787C24.5955 4.75947 24.5315 4.50353 24.6499 4.3062C25.1124 3.53544 26.6142 2.23712 29.1016 2.56878C29.3297 2.59919 29.4899 2.80876 29.4595 3.03686C29.4291 3.26496 29.2195 3.42521 28.9914 3.3948Z" fill="#537003"/>
<path d="M25.8753 3.90069C23.2528 1.22353 20.7267 3.90069 18.6175 4.53083C20.0632 5.62564 24.7731 6.94224 25.8753 3.90069Z" fill="#A3D711"/>
<path fill-rule="evenodd" clip-rule="evenodd" d="M24.0057 2.37052C24.7423 2.50391 25.4669 2.88777 26.1729 3.60852C26.285 3.72293 26.3216 3.89147 26.267 4.04205C25.6217 5.82278 23.9185 6.27217 22.3513 6.18228C20.7839 6.09238 19.1629 5.46602 18.3659 4.8624C18.2407 4.76763 18.1795 4.61056 18.2074 4.45608C18.2353 4.3016 18.3477 4.17594 18.4981 4.131C18.9806 3.98686 19.4976 3.72181 20.0807 3.41954C20.0918 3.4138 20.1029 3.40805 20.114 3.40229C20.6734 3.11226 21.286 2.79468 21.9204 2.5802C22.5722 2.35988 23.2746 2.23811 24.0057 2.37052ZM19.564 4.60825C20.3108 4.96856 21.3635 5.29092 22.399 5.35032C23.7277 5.42653 24.8635 5.07239 25.3811 4.00161C24.8478 3.51395 24.339 3.27776 23.8572 3.19051C23.3112 3.09163 22.7585 3.17657 22.1873 3.36965C21.6136 3.56359 21.049 3.85623 20.4709 4.15594L20.4616 4.16078C20.1669 4.31352 19.8658 4.46963 19.564 4.60825Z" fill="#709604"/>
<path d="M25.9934 3.94379C25.1264 4.74754 23.8257 8.20212 27.8621 10.624C27.4715 8.93129 30.2059 4.6865 25.9934 3.94379Z" fill="#8CBA08"/>
<path fill-rule="evenodd" clip-rule="evenodd" d="M24.6729 6.69989C24.5957 5.32148 25.1769 4.13204 25.7101 3.63771C25.8057 3.54907 25.9373 3.5103 26.0657 3.53294C27.194 3.73186 27.9337 4.18111 28.3574 4.83602C28.7724 5.47748 28.8333 6.24024 28.7763 6.96004C28.7292 7.55421 28.5958 8.17138 28.4768 8.72232C28.4521 8.83646 28.4281 8.94776 28.4055 9.05542C28.3382 9.37707 28.2836 9.66712 28.2568 9.92414C28.2297 10.1841 28.2342 10.3831 28.2681 10.5298C28.3056 10.6927 28.2423 10.8622 28.1071 10.9605C27.9719 11.0588 27.791 11.0668 27.6477 10.9808C25.5248 9.70704 24.7525 8.11988 24.6729 6.69989ZM27.4284 9.8339C27.46 9.53295 27.5219 9.20922 27.5899 8.88463C27.6147 8.76583 27.6404 8.64682 27.6661 8.52779C27.7847 7.97773 27.9033 7.42724 27.9456 6.89421C27.9968 6.24839 27.927 5.7049 27.6577 5.28868C27.4176 4.91743 26.9755 4.58264 26.142 4.39748C25.8237 4.80196 25.4485 5.64562 25.505 6.65327C25.5597 7.62992 26.0244 8.7891 27.4284 9.8339Z" fill="#709604"/>
<path d="M25.7766 3.9428C24.6225 3.68633 22.2758 4.21208 22.1219 8.36682C23.9172 8.11034 27.1615 6.86648 25.7766 3.9428Z" fill="#CDFD44"/>
<path fill-rule="evenodd" clip-rule="evenodd" d="M23.309 4.17968C24.1743 3.46596 25.1865 3.38535 25.8669 3.53656C25.9924 3.56445 26.098 3.64873 26.1531 3.76493C26.5324 4.56567 26.6121 5.29203 26.4456 5.93619C26.2802 6.57586 25.8852 7.08399 25.4062 7.47747C24.4612 8.25391 23.1162 8.64617 22.1808 8.7798C22.0586 8.79727 21.9349 8.75961 21.8431 8.67699C21.7513 8.59437 21.7009 8.4753 21.7055 8.3519C21.7852 6.19999 22.4376 4.89841 23.309 4.17968ZM22.571 7.86158C23.3462 7.68906 24.2426 7.35493 24.8772 6.83357C25.2607 6.51856 25.5292 6.1515 25.6388 5.72765C25.7362 5.35056 25.7185 4.88764 25.4863 4.31748C25.02 4.26713 24.3907 4.36772 23.8392 4.82255C23.2673 5.29425 22.7211 6.19591 22.571 7.86158Z" fill="#709604"/>
</svg>
