<svg width="364" height="33" viewBox="0 0 364 33" fill="none" xmlns="http://www.w3.org/2000/svg">
<path d="M22.785 32.979V20.2841C23.936 20.2841 25.036 20.255 26.135 20.295C26.768 20.318 27.047 20.1141 27.108 19.4561C27.232 18.1181 27.432 16.7871 27.623 15.2801C26.462 15.2801 25.343 15.2851 24.223 15.2801C22.47 15.2701 22.752 15.4381 22.738 13.8101C22.732 13.0931 22.7321 12.3721 22.7881 11.6581C22.8881 10.3851 23.34 9.91105 24.625 9.77805C25.366 9.70105 26.1191 9.73105 26.8661 9.71005C27.1561 9.70205 27.4451 9.68504 27.7991 9.67004C27.7991 8.30304 27.822 7.02005 27.775 5.74005C27.768 5.54005 27.447 5.17706 27.269 5.17606C25.249 5.15606 23.196 4.75204 21.229 5.53604C20.1296 5.95748 19.1877 6.70902 18.5327 7.68741C17.8777 8.66579 17.5418 9.823 17.571 11C17.505 12.164 17.531 13.335 17.571 14.5C17.591 15.089 17.3891 15.3 16.8041 15.289C15.6681 15.261 14.531 15.281 13.328 15.281V20.248H17.515V32.923C17.179 32.943 16.863 32.9781 16.548 32.9781C11.788 32.9814 7.02807 32.9814 2.26807 32.9781C0.616066 32.9781 0 32.358 0 30.704C0 21.2434 0 11.7831 0 2.32306C0 0.782059 0.645091 0.128047 2.16809 0.123047C11.6588 0.123047 21.149 0.123047 30.639 0.123047C32.265 0.123047 32.873 0.723041 32.874 2.32904C32.874 11.7897 32.874 21.2501 32.874 30.7101C32.874 32.3891 32.2891 32.9711 30.6061 32.9731C28.0331 32.9811 25.457 32.979 22.785 32.979Z" fill="#00EFE1"/>
<path d="M113.797 16.5131C113.816 18.6868 113.4 20.8422 112.575 22.8531C111.749 24.864 110.53 26.6897 108.99 28.2232C107.449 29.7568 105.618 30.9672 103.603 31.7836C101.589 32.5999 99.4314 33.0057 97.2579 32.9771C95.0988 32.9702 92.9623 32.5367 90.9713 31.7014C88.9803 30.8661 87.174 29.6456 85.6562 28.11C84.1384 26.5743 82.939 24.7539 82.1271 22.7532C81.3151 20.7526 80.9066 18.6112 80.9249 16.4521C80.9424 14.2796 81.3891 12.132 82.2395 10.1328C83.0899 8.13353 84.3272 6.32213 85.8801 4.80275C87.433 3.28337 89.271 2.08597 91.2883 1.27943C93.3056 0.472898 95.4626 0.0731428 97.6349 0.103133C101.942 0.174426 106.049 1.93399 109.072 5.0031C112.094 8.0722 113.791 12.2054 113.797 16.5131ZM97.3589 30.8321C98.9509 30.4821 100.54 30.1211 102.135 29.7891C102.735 29.6641 102.935 29.3471 102.768 28.7711C101.883 25.6491 100.999 22.5268 100.118 19.4041C99.9779 18.9091 99.7039 18.8041 99.2499 19.0321C97.8679 19.7321 96.4389 20.3501 95.1029 21.1321C92.6682 22.4988 90.6148 24.4537 89.1299 26.8181C88.7729 27.3971 88.7509 27.7341 89.4019 28.1721C91.7703 29.7511 94.5172 30.6693 97.3589 30.8321ZM98.8779 16.3771C98.5949 15.7951 98.2779 15.2251 98.0389 14.6251C97.8389 14.1341 97.5699 14.1401 97.1279 14.2641C92.8925 15.4609 88.5111 16.0624 84.1099 16.0511C83.4639 16.0511 83.2699 16.2911 83.2909 16.8921C83.3568 19.5703 84.1898 22.1732 85.6909 24.3921C86.0349 24.8991 86.4329 25.3691 86.8249 25.8821C90.6609 21.0381 90.6139 20.3241 98.8779 16.3771ZM91.5259 3.84514C87.1489 5.51314 83.6999 10.9021 83.7919 13.7301C88.1614 13.6577 92.5046 13.0379 96.7199 11.8851L91.5259 3.84514ZM94.1689 2.84514L99.4369 11.0581C102.274 10.0722 104.783 8.32226 106.689 6.00114C105.013 4.5018 102.998 3.43138 100.817 2.8817C98.6362 2.33202 96.3546 2.31949 94.1679 2.84514H94.1689ZM100.392 13.2001L101.548 15.7001L111.456 16.1691C111.4 13.0424 110.272 10.0297 108.261 7.63512C106.106 10.0766 103.412 11.9823 100.392 13.2011V13.2001ZM105.355 28.0881C105.465 28.0427 105.571 27.9882 105.672 27.9251C108.529 25.8475 110.498 22.7697 111.187 19.3051C111.228 19.1131 110.887 18.6631 110.664 18.6201C109.208 18.3003 107.734 18.0682 106.251 17.9251C105.035 17.8997 103.818 17.9468 102.608 18.0661L105.355 28.0881Z" fill="#00EFE1"/>
<path d="M161.88 25.5244V6.12442C161.988 6.10509 162.096 6.09207 162.205 6.08542C165.378 6.08542 168.552 6.06642 171.725 6.11842C173.162 6.05704 174.578 6.47959 175.746 7.31842C176.264 7.78334 176.671 8.35904 176.936 9.00274C177.201 9.64645 177.318 10.3416 177.277 11.0365C177.236 11.7315 177.04 12.4084 176.702 13.0169C176.364 13.6254 175.893 14.1499 175.324 14.5514L174.724 14.9514C174.937 15.0514 175.06 15.1164 175.187 15.1694C175.992 15.4699 176.692 15.9974 177.202 16.6879C177.713 17.3784 178.012 18.2022 178.064 19.0594C178.29 20.4375 177.989 21.8503 177.221 23.0164C176.74 23.6559 176.136 24.1926 175.444 24.5948C174.752 24.9971 173.987 25.2567 173.193 25.3584C172.448 25.4755 171.695 25.5284 170.941 25.5164C167.942 25.5344 164.942 25.5244 161.88 25.5244ZM166.139 22.1634C168.056 22.1634 169.91 22.2634 171.748 22.1324C173.223 22.0324 173.889 21.0754 173.869 19.5544C173.906 19.2403 173.878 18.922 173.786 18.6193C173.695 18.3165 173.542 18.0357 173.338 17.7943C173.134 17.5529 172.882 17.3561 172.599 17.2159C172.315 17.0757 172.006 16.9952 171.69 16.9794C169.89 16.8574 168.075 16.9014 166.267 16.8794C166.233 16.8794 166.199 16.9264 166.138 16.9714L166.139 22.1634ZM166.148 13.9634C167.784 13.9634 169.338 14.0054 170.888 13.9514C171.187 13.9597 171.485 13.9059 171.763 13.7935C172.041 13.6811 172.292 13.5125 172.501 13.2983C172.711 13.084 172.873 12.8289 172.979 12.5487C173.085 12.2686 173.132 11.9696 173.117 11.6704C173.129 11.3716 173.078 11.0737 172.968 10.7958C172.857 10.5179 172.69 10.2663 172.476 10.0571C172.262 9.84802 172.007 9.68606 171.727 9.58172C171.447 9.47739 171.148 9.433 170.849 9.45141C169.772 9.40341 168.693 9.41742 167.614 9.40742C167.128 9.40742 166.642 9.40742 166.148 9.40742V13.9634Z" fill="#00EFE1"/>
<path d="M193.424 19.4105H184.175C183.241 19.4105 183.241 19.4105 183.356 20.3445C183.421 20.7841 183.577 21.2054 183.814 21.5817C184.05 21.9579 184.362 22.281 184.73 22.5304C185.098 22.7798 185.513 22.9501 185.95 23.0305C186.388 23.1109 186.836 23.0997 187.269 22.9975C187.766 22.9598 188.248 22.804 188.673 22.5431C189.098 22.2823 189.455 21.9238 189.714 21.4975C189.755 21.4272 189.811 21.3666 189.877 21.3198C189.944 21.2731 190.02 21.2412 190.1 21.2265C191.087 21.2035 192.074 21.2145 193.142 21.2145C192.856 22.3958 192.227 23.4658 191.333 24.2895C190.359 25.1924 189.11 25.7415 187.787 25.8485C186.435 26.0423 185.057 25.9012 183.772 25.4375C182.76 25.0772 181.857 24.464 181.148 23.6562C180.44 22.8485 179.95 21.873 179.725 20.8225C179.337 19.5573 179.274 18.2144 179.543 16.9186C179.812 15.6227 180.404 14.4157 181.264 13.4095C182.1 12.4357 183.192 11.7168 184.417 11.335C185.642 10.9532 186.95 10.9239 188.191 11.2505C189.343 11.4723 190.41 12.0137 191.269 12.813C192.129 13.6123 192.746 14.6372 193.05 15.7705C193.433 16.9432 193.561 18.1844 193.424 19.4105ZM183.383 16.9575H189.539C189.568 16.5501 189.508 16.1413 189.363 15.7593C189.218 15.3773 188.992 15.0314 188.701 14.7453C188.409 14.4592 188.059 14.2398 187.674 14.1022C187.29 13.9646 186.88 13.9122 186.473 13.9485C186.067 13.9225 185.66 13.9819 185.279 14.1231C184.897 14.2642 184.549 14.4839 184.258 14.768C183.967 15.052 183.738 15.394 183.588 15.7718C183.437 16.1497 183.367 16.555 183.383 16.9615V16.9575Z" fill="#00EFE1"/>
<path d="M190.34 7.45117V9.26218H182.613V7.45117H190.34Z" fill="#00EFE1"/>
<path d="M263.478 0C266.313 0.143 269.16 0.167008 271.978 0.458008C274.045 0.647325 275.97 1.59146 277.386 3.11011C278.801 4.62876 279.608 6.61552 279.651 8.69101C279.8 13.3823 279.85 18.0763 279.8 22.773C279.774 25.502 279.2 28.127 277.166 30.185C275.603 31.7993 273.463 32.7278 271.216 32.767C266.075 32.884 260.924 32.967 255.789 32.767C254.664 32.7768 253.548 32.5629 252.506 32.1375C251.464 31.7122 250.517 31.084 249.72 30.2894C248.923 29.4949 248.292 28.5498 247.864 27.5092C247.436 26.4687 247.218 25.3533 247.225 24.228C247.025 19.185 247.002 14.121 247.212 9.07901C247.436 3.70601 250.987 0.430014 256.38 0.252014C258.741 0.174014 261.106 0.239014 263.469 0.239014L263.478 0ZM263.353 30.171C265.9 30.076 268.48 30.098 271.035 29.856C274.572 29.521 276.653 27.503 276.771 24.019C276.939 19.062 276.932 14.091 276.771 9.133C276.66 5.655 274.655 3.60401 271.165 3.26901C266.013 2.7916 260.827 2.7879 255.674 3.258C252.124 3.569 250.174 5.95002 250.067 9.34702C249.92 14.126 249.957 18.915 250.053 23.697C250.126 27.317 252.221 29.514 255.884 29.862C258.354 30.092 260.844 30.076 263.353 30.171Z" fill="#00EFE1"/>
<path d="M263.415 8.13159C264.516 8.11704 265.609 8.32095 266.631 8.73153C267.653 9.14211 268.583 9.75122 269.369 10.5236C270.154 11.296 270.778 12.2164 271.205 13.2315C271.632 14.2466 271.854 15.3363 271.857 16.4376C271.879 17.5537 271.679 18.6631 271.267 19.7009C270.856 20.7387 270.241 21.684 269.46 22.4816C268.679 23.2793 267.747 23.9132 266.718 24.3464C265.689 24.7796 264.584 25.0034 263.468 25.0046C262.36 25.0094 261.262 24.7947 260.238 24.3731C259.214 23.9515 258.283 23.3312 257.5 22.5481C256.716 21.7649 256.096 20.8344 255.674 19.8102C255.252 18.786 255.037 17.6883 255.041 16.5806C255.021 15.4719 255.223 14.3704 255.636 13.3413C256.049 12.3121 256.664 11.3761 257.444 10.5885C258.225 9.80091 259.156 9.17771 260.181 8.75573C261.206 8.33375 262.306 8.12152 263.415 8.13159ZM263.405 22.0196C264.13 22.0425 264.852 21.9173 265.527 21.6515C266.202 21.3856 266.816 20.9849 267.331 20.4737C267.846 19.9625 268.251 19.3516 268.522 18.6784C268.792 18.0052 268.923 17.2839 268.905 16.5586C268.916 15.8417 268.786 15.1296 268.521 14.4633C268.256 13.797 267.862 13.1898 267.361 12.6765C266.861 12.1632 266.263 11.754 265.604 11.4726C264.945 11.1911 264.236 11.043 263.519 11.0366C262.787 11.0299 262.06 11.1682 261.381 11.4436C260.703 11.719 260.085 12.1261 259.565 12.6413C259.044 13.1565 258.631 13.7696 258.348 14.4454C258.066 15.1212 257.92 15.8462 257.919 16.5786C257.93 18.0259 258.513 19.4102 259.54 20.4296C260.568 21.449 261.957 22.0209 263.404 22.0206L263.405 22.0196Z" fill="#00EFE1"/>
<path d="M272.251 5.8328C272.504 5.83319 272.754 5.88347 272.987 5.98075C273.221 6.07803 273.432 6.2204 273.611 6.39969C273.789 6.57899 273.93 6.79167 274.026 7.02558C274.121 7.25949 274.17 7.51002 274.169 7.76279C274.171 8.0162 274.122 8.26745 274.027 8.5022C273.932 8.73696 273.791 8.95064 273.613 9.13099C273.435 9.31133 273.223 9.45483 272.99 9.55329C272.756 9.65175 272.505 9.70324 272.252 9.70481C271.991 9.71073 271.732 9.66318 271.49 9.56513C271.248 9.46708 271.029 9.32059 270.846 9.13465C270.663 8.94871 270.519 8.72727 270.425 8.48395C270.331 8.24064 270.287 7.98058 270.297 7.71979C270.299 7.46677 270.351 7.21661 270.45 6.98401C270.55 6.75142 270.695 6.54107 270.877 6.3653C271.059 6.18953 271.274 6.05187 271.51 5.96042C271.746 5.86898 271.998 5.8256 272.251 5.8328Z" fill="#00EFE1"/>
<path d="M362.31 9.55504C361.844 8.68573 361.188 7.93256 360.391 7.35137C359.594 6.77018 358.676 6.3759 357.706 6.19781C356.736 6.01971 355.738 6.06239 354.786 6.32262C353.835 6.58286 352.954 7.05396 352.21 7.70104L350.81 9.00805C350.228 8.31405 351.11 7.16503 350.26 6.82903C349.422 6.65392 348.56 6.62283 347.712 6.73705C347.522 6.74807 347.331 6.74807 347.141 6.73705C346.421 6.64305 346.266 7.00503 346.279 7.65203C346.322 9.93803 346.322 12.2241 346.338 14.5101C346.322 18.6847 346.307 22.8594 346.293 27.034C346.293 27.49 346.18 27.914 346.94 28.011C350.767 28.496 351.122 28.199 350.906 24.389C350.9 24.3418 350.891 24.295 350.879 24.2491V20.6971C352.854 23.3021 355.293 23.765 358.031 23.297C358.855 23.1593 359.638 22.841 360.324 22.3651C361.011 21.8892 361.584 21.2673 362.002 20.5441C363.042 18.9116 363.621 17.0274 363.675 15.0922C363.729 13.1569 363.257 11.2432 362.31 9.55504ZM356.869 19.03C354.325 19.888 352.318 19.4141 351.29 17.7111C350.714 16.6457 350.476 15.4306 350.607 14.2269C350.737 13.0231 351.23 11.8873 352.021 10.97C352.386 10.576 352.851 10.599 353.194 10.303C355.967 9.99103 357.394 10.543 358.234 12.253C358.723 13.3869 358.855 14.6431 358.612 15.854C358.369 17.0649 357.763 18.1728 356.874 19.03H356.869Z" fill="#00EFE1"/>
<path d="M339.972 6.74313C338.989 6.73513 338.672 6.97713 338.686 7.99813C338.724 10.7621 338.651 13.5291 338.586 16.2981C338.601 16.8478 338.454 17.3898 338.163 17.8567C337.873 18.3236 337.452 18.6948 336.952 18.9242C336.677 18.9942 336.406 19.0871 336.127 19.1341C333.113 19.6491 331.727 18.5161 331.647 15.4411C331.606 13.7731 331.629 12.1031 331.626 10.4341C331.62 6.58111 331.626 6.58116 327.787 6.76516C327.692 6.77086 327.596 6.77086 327.501 6.76516C327.011 6.72916 326.823 6.9561 326.837 7.4421C326.937 10.9651 326.525 14.5121 327.144 18.0081C327.268 19.1567 327.724 20.2442 328.456 21.138C329.188 22.0317 330.164 22.6931 331.266 23.0412C333.626 23.851 336.186 23.8626 338.553 23.0741C341.508 22.4271 342.68 20.2811 343.147 17.5741C343.428 15.1087 343.507 12.6244 343.383 10.1461C343.405 6.73514 343.385 6.76913 339.972 6.74313Z" fill="#00EFE1"/>
<path d="M328.742 28.1481H341.763C339.486 24.4451 329.739 25.0311 328.742 28.1481Z" fill="#00EFE1"/>
</svg>
