<svg width="29" height="28" viewBox="0 0 29 28" fill="none" xmlns="http://www.w3.org/2000/svg">
<path d="M26.9151 7.57752C25.8716 6.63285 24.4777 5.97333 22.8599 5.65769C22.7082 5.62807 22.5663 5.5667 22.4454 5.47846C22.3245 5.39023 22.228 5.27758 22.1636 5.1495C21.5686 3.97035 20.6679 2.93946 19.5383 2.14497C18.0928 1.14158 16.335 0.611368 14.4539 0.611368C12.3105 0.605194 10.2395 1.3151 8.6359 2.60573C7.13006 3.82313 6.09028 5.50467 5.62235 7.45216C5.58333 7.61701 5.4944 7.76872 5.36557 7.89021C5.23673 8.01171 5.0731 8.09819 4.89308 8.13991C3.33746 8.49565 2.67103 8.84799 1.83099 9.52671C0.640009 10.4889 0.0177612 11.7994 0.0177612 13.3048C0.0177612 15.0298 0.716546 16.4466 2.0382 17.4019C3.1962 18.2382 4.77796 18.6803 6.61359 18.6803H21.1742C23.2401 18.6803 25.1634 18.0332 26.5878 16.8576C28.0712 15.6351 28.8901 13.94 28.8901 12.0852C28.8901 10.3071 28.2056 8.74861 26.9151 7.57752Z" fill="white"/>
<path d="M5.49354 25.0036C5.31336 25.0035 5.13658 24.9591 4.98206 24.875C4.82754 24.7909 4.70106 24.6703 4.61612 24.5261C4.53117 24.3819 4.49094 24.2195 4.49972 24.0562C4.50849 23.8929 4.56594 23.7348 4.66595 23.5988L6.65716 20.8884C6.72972 20.7897 6.823 20.7049 6.93166 20.6389C7.04032 20.573 7.16224 20.527 7.29046 20.5038C7.41867 20.4806 7.55068 20.4805 7.67893 20.5036C7.80718 20.5266 7.92917 20.5724 8.03794 20.6382C8.1467 20.7041 8.24011 20.7887 8.31282 20.8873C8.38554 20.9859 8.43614 21.0966 8.46174 21.2129C8.48733 21.3293 8.48743 21.4491 8.46201 21.5654C8.43659 21.6818 8.38616 21.7925 8.3136 21.8912L6.32238 24.6016C6.23139 24.7254 6.10812 24.8268 5.96353 24.8969C5.81894 24.9671 5.6575 25.0037 5.49354 25.0036Z" fill="white"/>
<path d="M8.48034 27.714C8.30021 27.7138 8.12351 27.6692 7.96908 27.5851C7.81465 27.501 7.68826 27.3804 7.60339 27.2362C7.51852 27.092 7.47835 26.9297 7.48715 26.7664C7.49595 26.6031 7.5534 26.4451 7.65337 26.3091L11.6358 20.8884C11.7083 20.7897 11.8016 20.7049 11.9103 20.6389C12.0189 20.573 12.1408 20.527 12.2691 20.5038C12.3973 20.4806 12.5293 20.4805 12.6575 20.5036C12.7858 20.5266 12.9078 20.5724 13.0165 20.6382C13.1253 20.7041 13.2187 20.7887 13.2914 20.8873C13.3641 20.9859 13.4147 21.0966 13.4403 21.2129C13.4659 21.3293 13.466 21.4491 13.4406 21.5654C13.4152 21.6818 13.3648 21.7925 13.2922 21.8912L9.3098 27.312C9.21875 27.4358 9.09538 27.5373 8.95067 27.6074C8.80596 27.6776 8.6444 27.7142 8.48034 27.714Z" fill="white"/>
<path d="M15.4495 25.0036C15.2693 25.0035 15.0926 24.9591 14.938 24.875C14.7835 24.7909 14.6571 24.6703 14.5721 24.5261C14.4872 24.3819 14.4469 24.2195 14.4557 24.0562C14.4645 23.8929 14.5219 23.7348 14.6219 23.5988L16.6131 20.8884C16.7597 20.6891 16.9875 20.5507 17.2464 20.5038C17.5054 20.4569 17.7742 20.5053 17.9939 20.6382C18.2135 20.7712 18.366 20.9779 18.4177 21.2129C18.4694 21.4479 18.4161 21.6919 18.2695 21.8912L16.2784 24.6016C16.1874 24.7254 16.0641 24.8268 15.9195 24.8969C15.7749 24.9671 15.6135 25.0037 15.4495 25.0036Z" fill="white"/>
<path d="M18.4363 27.714C18.2562 27.7139 18.0794 27.6694 17.9249 27.5853C17.7703 27.5012 17.6439 27.3807 17.5589 27.2365C17.474 27.0923 17.4338 26.9298 17.4425 26.7665C17.4513 26.6032 17.5088 26.4451 17.6088 26.3091L21.5911 20.8884C21.7377 20.6891 21.9655 20.5507 22.2244 20.5038C22.4834 20.4569 22.7523 20.5053 22.9719 20.6382C23.1916 20.7712 23.344 20.9779 23.3957 21.2129C23.4474 21.4479 23.3941 21.6919 23.2476 21.8912L19.2652 27.312C19.1742 27.4357 19.0509 27.5372 18.9063 27.6073C18.7617 27.6774 18.6003 27.7141 18.4363 27.714Z" fill="white"/>
</svg>
