<svg width="60" height="36" viewBox="0 0 60 36" fill="none" xmlns="http://www.w3.org/2000/svg">
<path d="M1.85467 15.9806C2.12442 15.9806 2.38811 15.908 2.6124 15.772C2.83669 15.636 3.0115 15.4427 3.11473 15.2166C3.21796 14.9904 3.24497 14.7416 3.19235 14.5015C3.13972 14.2614 3.00982 14.0409 2.81908 13.8678C2.62834 13.6947 2.38532 13.5768 2.12075 13.5291C1.85618 13.4813 1.58195 13.5058 1.33273 13.5995C1.08351 13.6932 0.870505 13.8518 0.72064 14.0553C0.570774 14.2589 0.490784 14.4981 0.490784 14.7429C0.490784 15.0712 0.634478 15.386 0.890256 15.6181C1.14603 15.8502 1.49294 15.9806 1.85467 15.9806ZM7.31021 15.9806H16.8574C17.9426 15.9806 18.9833 15.5894 19.7506 14.8931C20.518 14.1968 20.949 13.2524 20.949 12.2676C20.949 11.2829 20.518 10.3385 19.7506 9.64218C18.9833 8.94587 17.9426 8.55469 16.8574 8.55469C16.1399 8.55738 15.4353 8.72789 14.8116 9.04975C14.6553 9.1306 14.5182 9.23872 14.4081 9.36786C14.2981 9.49701 14.2173 9.64463 14.1704 9.80223C14.1235 9.95984 14.1114 10.1243 14.1348 10.2862C14.1583 10.448 14.2168 10.6041 14.3069 10.7453C14.3972 10.8861 14.5171 11.0094 14.66 11.108C14.8028 11.2066 14.9657 11.2787 15.1393 11.3201C15.3129 11.3615 15.4937 11.3714 15.6716 11.3492C15.8494 11.327 16.0206 11.2732 16.1755 11.1909C16.3853 11.0884 16.6192 11.0333 16.8574 11.03C17.2191 11.03 17.566 11.1604 17.8218 11.3925C18.0776 11.6246 18.2213 11.9394 18.2213 12.2676C18.2213 12.5959 18.0776 12.9107 17.8218 13.1428C17.566 13.3749 17.2191 13.5053 16.8574 13.5053H7.31021C6.94848 13.5053 6.60157 13.6357 6.34579 13.8678C6.09002 14.0999 5.94632 14.4147 5.94632 14.7429C5.94632 15.0712 6.09002 15.386 6.34579 15.6181C6.60157 15.8502 6.94848 15.9806 7.31021 15.9806ZM1.85467 20.9312H11.4019C11.7636 20.9312 12.1105 20.8008 12.3663 20.5687C12.622 20.3366 12.7657 20.0218 12.7657 19.6935C12.7657 19.3653 12.622 19.0505 12.3663 18.8184C12.1105 18.5863 11.7636 18.4559 11.4019 18.4559H1.85467C1.49294 18.4559 1.14603 18.5863 0.890256 18.8184C0.634478 19.0505 0.490784 19.3653 0.490784 19.6935C0.490784 20.0218 0.634478 20.3366 0.890256 20.5687C1.14603 20.8008 1.49294 20.9312 1.85467 20.9312ZM25.0407 15.9806C25.3105 15.9806 25.5741 15.908 25.7984 15.772C26.0227 15.636 26.1975 15.4427 26.3008 15.2166C26.404 14.9904 26.431 14.7416 26.3784 14.5015C26.3258 14.2614 26.1959 14.0409 26.0051 13.8678C25.8144 13.6947 25.5714 13.5768 25.3068 13.5291C25.0422 13.4813 24.768 13.5058 24.5188 13.5995C24.2695 13.6932 24.0565 13.8518 23.9067 14.0553C23.7568 14.2589 23.6768 14.4981 23.6768 14.7429C23.6768 15.0712 23.8205 15.386 24.0763 15.6181C24.3321 15.8502 24.679 15.9806 25.0407 15.9806ZM22.3129 18.4559H16.8574C16.4957 18.4559 16.1488 18.5863 15.893 18.8184C15.6372 19.0505 15.4935 19.3653 15.4935 19.6935C15.4935 20.0218 15.6372 20.3366 15.893 20.5687C16.1488 20.8008 16.4957 20.9312 16.8574 20.9312H22.3129C22.6747 20.9312 23.0216 21.0616 23.2773 21.2937C23.5331 21.5258 23.6768 21.8406 23.6768 22.1688C23.6768 22.4971 23.5331 22.8119 23.2773 23.044C23.0216 23.2761 22.6747 23.4065 22.3129 23.4065C21.9512 23.4065 21.6043 23.5369 21.3485 23.769C21.0927 24.0011 20.949 24.3159 20.949 24.6441C20.949 24.9724 21.0927 25.2872 21.3485 25.5193C21.6043 25.7514 21.9512 25.8818 22.3129 25.8818C23.3981 25.8818 24.4388 25.4906 25.2062 24.7943C25.9735 24.098 26.4046 23.1536 26.4046 22.1688C26.4046 21.1841 25.9735 20.2397 25.2062 19.5434C24.4388 18.8471 23.3981 18.4559 22.3129 18.4559ZM14.1296 23.4065H8.67409C8.31237 23.4065 7.96546 23.5369 7.70968 23.769C7.4539 24.0011 7.31021 24.3159 7.31021 24.6441C7.31021 24.9724 7.4539 25.2872 7.70968 25.5193C7.96546 25.7514 8.31237 25.8818 8.67409 25.8818H14.1296C14.4914 25.8818 14.8383 26.0122 15.094 26.2443C15.3498 26.4764 15.4935 26.7912 15.4935 27.1194C15.4935 27.4477 15.3498 27.7625 15.094 27.9946C14.8383 28.2267 14.4914 28.3571 14.1296 28.3571C13.8914 28.3538 13.6575 28.2986 13.4477 28.1962C13.2924 28.1066 13.1189 28.0465 12.9374 28.0194C12.7558 27.9923 12.5702 27.9988 12.3915 28.0385C12.2128 28.0782 12.0449 28.1503 11.8977 28.2505C11.7506 28.3506 11.6272 28.4768 11.5352 28.6213C11.4431 28.7658 11.3842 28.9257 11.3621 29.0914C11.3399 29.2571 11.3549 29.4252 11.4061 29.5855C11.4574 29.7458 11.5438 29.895 11.6603 30.0242C11.7767 30.1534 11.9208 30.2599 12.0838 30.3373C12.7075 30.6592 13.4121 30.8297 14.1296 30.8324C15.2148 30.8324 16.2555 30.4412 17.0229 29.7449C17.7902 29.0486 18.2213 28.1042 18.2213 27.1194C18.2213 26.1347 17.7902 25.1903 17.0229 24.494C16.2555 23.7977 15.2148 23.4065 14.1296 23.4065ZM3.21855 23.4065H1.85467C1.49294 23.4065 1.14603 23.5369 0.890256 23.769C0.634478 24.0011 0.490784 24.3159 0.490784 24.6441C0.490784 24.9724 0.634478 25.2872 0.890256 25.5193C1.14603 25.7514 1.49294 25.8818 1.85467 25.8818H3.21855C3.58028 25.8818 3.92719 25.7514 4.18296 25.5193C4.43874 25.2872 4.58244 24.9724 4.58244 24.6441C4.58244 24.3159 4.43874 24.0011 4.18296 23.769C3.92719 23.5369 3.58028 23.4065 3.21855 23.4065Z" fill="white"/>
<path fill-rule="evenodd" clip-rule="evenodd" d="M49.5178 34.3649C49.5178 35.1417 46.9447 35.7751 46.0107 35.7751C45.0744 35.7751 42.5037 35.1417 42.5037 34.3649L44.3131 17.6095C44.3131 16.8304 45.0744 16.1992 46.0107 16.1992C46.9471 16.1992 47.7083 16.8304 47.7083 17.6095L49.5178 34.3649Z" fill="white"/>
<path fill-rule="evenodd" clip-rule="evenodd" d="M47.1733 8.31949C47.1733 8.93744 46.6625 9.43622 46.0351 9.43622C45.4027 9.43622 44.8944 8.93744 44.8944 8.31949V1.85306C44.8944 1.23731 45.4027 0.736328 46.0351 0.736328C46.6625 0.736328 47.1733 1.23731 47.1733 1.85306V8.31949Z" fill="white"/>
<path fill-rule="evenodd" clip-rule="evenodd" d="M34.6967 20.3282C34.0522 20.732 33.2326 20.6636 32.858 20.1803C32.4932 19.697 32.7097 18.9731 33.3517 18.5714L40.091 14.334C40.7331 13.9323 41.5576 13.9963 41.9273 14.4797C42.2969 14.9652 42.078 15.6869 41.4335 16.0908L34.6967 20.3282Z" fill="white"/>
<path fill-rule="evenodd" clip-rule="evenodd" d="M58.6965 18.1428C59.0093 18.3172 59.2332 18.5971 59.3189 18.921C59.4046 19.245 59.3452 19.5866 59.1537 19.8709C58.9482 20.1474 58.6301 20.3385 58.2694 20.4022C57.9086 20.4659 57.5347 20.3971 57.2299 20.2107L50.3325 16.1875C50.1773 16.1011 50.0423 15.9879 49.9353 15.8542C49.8283 15.7205 49.7514 15.569 49.7089 15.4083C49.6665 15.2476 49.6593 15.0809 49.6879 14.9177C49.7164 14.7545 49.7801 14.5981 49.8753 14.4572C50.0811 14.1823 50.3985 13.9925 50.758 13.9293C51.1176 13.866 51.4901 13.9344 51.7942 14.1195L58.6965 18.1428Z" fill="white"/>
<path fill-rule="evenodd" clip-rule="evenodd" d="M44.1693 12.6689C44.1693 11.7677 44.8999 11.0371 45.8011 11.0371H46.0113C46.9125 11.0371 47.6431 11.7677 47.6431 12.6689C47.6431 13.5701 46.9125 14.3007 46.0113 14.3007H45.8011C44.8999 14.3007 44.1693 13.5701 44.1693 12.6689Z" fill="white"/>
</svg>
