<svg width="29" height="26" viewBox="0 0 29 26" fill="none" xmlns="http://www.w3.org/2000/svg">
<path d="M20.747 17.2563C20.544 15.5963 19.7255 14.0482 18.4257 12.8657C17.126 11.6833 15.422 10.9366 13.5933 10.7482C11.7645 10.5598 9.91946 10.9408 8.36064 11.8288C6.80182 12.7167 5.62172 14.059 5.01381 15.6354C3.62081 15.7388 2.32591 16.3273 1.40016 17.2775C0.474413 18.2276 -0.0104118 19.466 0.0471723 20.7332C0.104756 22.0004 0.700285 23.1983 1.7091 24.0761C2.71791 24.9539 4.0618 25.4436 5.45946 25.4426H20.7957C21.992 25.4426 23.1393 25.0114 23.9853 24.2437C24.8312 23.4761 25.3064 22.435 25.3064 21.3494C25.3064 20.2639 24.8312 19.2227 23.9853 18.4551C23.1393 17.6875 21.992 17.2563 20.7957 17.2563H20.747Z" fill="white"/>
<path d="M18.9915 1.70145C18.9915 1.48433 18.8964 1.27611 18.7273 1.12258C18.5581 0.969061 18.3286 0.882813 18.0893 0.882812C17.8501 0.882813 17.6206 0.969061 17.4514 1.12258C17.2823 1.27611 17.1872 1.48433 17.1872 1.70145V3.33871C17.1872 3.55583 17.2823 3.76405 17.4514 3.91758C17.6206 4.0711 17.8501 4.15735 18.0893 4.15735C18.3286 4.15735 18.5581 4.0711 18.7273 3.91758C18.8964 3.76405 18.9915 3.55583 18.9915 3.33871V1.70145ZM25.7449 4.91704C25.831 4.84152 25.8997 4.75119 25.947 4.65132C25.9943 4.55144 26.0192 4.44402 26.0202 4.33532C26.0213 4.22662 25.9984 4.11883 25.9531 4.01822C25.9077 3.91761 25.8407 3.82621 25.756 3.74935C25.6713 3.67248 25.5706 3.6117 25.4597 3.57053C25.3489 3.52937 25.2301 3.50866 25.1103 3.5096C24.9905 3.51055 24.8721 3.53313 24.7621 3.57603C24.652 3.61894 24.5525 3.6813 24.4692 3.75949L23.1918 4.91704C23.0224 5.07076 22.9273 5.27924 22.9273 5.49663C22.9273 5.71402 23.0224 5.92251 23.1918 6.07623C23.3612 6.22994 23.591 6.3163 23.8305 6.3163C24.0701 6.3163 24.2998 6.22994 24.4692 6.07623L25.7449 4.91704ZM11.7095 3.75949C11.5393 3.61037 11.3114 3.52786 11.0749 3.52972C10.8384 3.53159 10.6121 3.61768 10.4448 3.76946C10.2776 3.92125 10.1827 4.12657 10.1806 4.34121C10.1786 4.55586 10.2695 4.76264 10.4338 4.91704L11.7095 6.07623C11.7933 6.15234 11.8929 6.21272 12.0025 6.25391C12.1121 6.2951 12.2295 6.3163 12.3482 6.3163C12.4668 6.3163 12.5842 6.2951 12.6938 6.25391C12.8034 6.21272 12.903 6.15234 12.9869 6.07623C13.0708 6.00011 13.1373 5.90975 13.1827 5.81031C13.2281 5.71086 13.2514 5.60427 13.2514 5.49663C13.2514 5.38899 13.2281 5.28241 13.1827 5.18296C13.1373 5.08351 13.0708 4.99315 12.9869 4.91704L11.7095 3.75949ZM14.8381 9.28363C15.0623 8.86194 15.3836 8.48879 15.7803 8.18935C16.177 7.88991 16.6398 7.67115 17.1376 7.54783C17.6353 7.4245 18.1564 7.39948 18.6658 7.47445C19.1751 7.54942 19.6608 7.72264 20.0901 7.98242C20.5194 8.2422 20.8823 8.5825 21.1543 8.98036C21.4263 9.37823 21.6012 9.82441 21.667 10.2888C21.7329 10.7532 21.6882 11.225 21.536 11.6724C21.3839 12.1198 21.1277 12.5324 20.7849 12.8823C21.144 13.3424 21.4561 13.8352 21.7159 14.3526C22.3274 13.8513 22.8046 13.2299 23.1113 12.5358C23.4179 11.8417 23.5458 11.0932 23.4853 10.3474C23.4248 9.60163 23.1774 8.87824 22.7621 8.23237C22.3467 7.58651 21.7743 7.03524 21.0885 6.62058C20.4028 6.20593 19.6217 5.93884 18.8049 5.83967C17.9881 5.74051 17.1571 5.81189 16.3754 6.04838C15.5936 6.28487 14.8816 6.68022 14.2938 7.20429C13.7059 7.72836 13.2577 8.36731 12.9833 9.07243C13.6184 9.09044 14.239 9.16248 14.8381 9.28363ZM22.9284 15.9539C24.011 16.3059 24.9582 16.9199 25.6745 17.709C25.7727 17.6368 25.8531 17.5467 25.9105 17.4445C25.9679 17.3423 26.001 17.2303 26.0076 17.1158C26.0143 17.0013 25.9943 16.8867 25.949 16.7796C25.9038 16.6726 25.8342 16.5753 25.7449 16.4942L24.4692 15.3366C24.3406 15.2192 24.1758 15.14 23.9966 15.1093C23.8173 15.0786 23.632 15.098 23.4651 15.1648C23.2982 15.2317 23.1576 15.3429 23.0618 15.4838C22.966 15.6246 22.9195 15.7885 22.9284 15.9539ZM26.2085 9.88779C25.9693 9.88779 25.7398 9.97403 25.5706 10.1276C25.4015 10.2811 25.3064 10.4893 25.3064 10.7064C25.3064 10.9235 25.4015 11.1318 25.5706 11.2853C25.7398 11.4388 25.9693 11.5251 26.2085 11.5251H28.0128C28.2521 11.5251 28.4815 11.4388 28.6507 11.2853C28.8199 11.1318 28.9149 10.9235 28.9149 10.7064C28.9149 10.4893 28.8199 10.2811 28.6507 10.1276C28.4815 9.97403 28.2521 9.88779 28.0128 9.88779H26.2085Z" fill="white"/>
</svg>
