<svg width="27" height="31" viewBox="0 0 27 31" fill="none" xmlns="http://www.w3.org/2000/svg">
<path d="M16.3582 10.5239C19.5418 14.9377 25.836 18.1449 25.1225 18.6595C24.409 19.1741 16.3091 16.5216 13.1255 12.1078C9.9419 7.694 9.98911 5.51519 11.3026 4.56779C12.6161 3.6204 13.1746 6.11011 16.3582 10.5239Z" fill="#E6AF00"/>
<path fill-rule="evenodd" clip-rule="evenodd" d="M24.2398 18.665C21.902 18.2637 15.7908 15.8029 13.1255 12.1077C9.94193 7.6939 9.98914 5.51509 11.3026 4.56769C12.1735 3.93956 12.7125 4.82233 13.9047 6.77504C14.5107 7.76753 15.2854 9.03642 16.3582 10.5238C18.2162 13.0998 21.1339 15.2649 23.0995 16.7235C23.7145 17.1798 24.2363 17.5671 24.6033 17.8761C24.6327 17.9008 24.6611 17.9251 24.6885 17.9488C25.0987 18.3046 25.2789 18.5467 25.1226 18.6594C25.0167 18.7358 24.7483 18.7424 24.3576 18.6839C24.3195 18.6782 24.2802 18.6719 24.2398 18.665ZM24.4236 18.8557C24.4233 18.8557 24.4209 18.8525 24.417 18.8462C24.4219 18.8526 24.4238 18.8557 24.4236 18.8557ZM24.8557 17.8864C24.856 17.8866 24.8516 17.8874 24.8416 17.8882C24.8504 17.8866 24.8554 17.8862 24.8557 17.8864ZM25.9379 18.9252C25.8603 19.1105 25.7357 19.2447 25.61 19.3353C25.3744 19.5053 25.1101 19.539 24.9702 19.5499C24.8006 19.5632 24.6196 19.5542 24.4435 19.5352C24.0883 19.4969 23.655 19.4068 23.1777 19.2781C22.2176 19.0192 20.9952 18.581 19.7033 17.9894C17.1458 16.818 14.1677 14.9772 12.4496 12.5952C10.8337 10.3548 9.96331 8.58546 9.7079 7.18757C9.57813 6.47727 9.60068 5.82798 9.79736 5.25448C9.99707 4.67214 10.3584 4.22125 10.8151 3.89183C11.0572 3.71726 11.3485 3.57317 11.6877 3.54098C12.0396 3.50758 12.3555 3.60281 12.6223 3.76016C13.0946 4.03869 13.4799 4.55762 13.8231 5.07399C14.0816 5.46292 14.349 5.90145 14.6509 6.39652C15.246 7.37246 15.975 8.56807 17.0341 10.0363C18.5454 12.1316 20.8231 13.972 22.7032 15.3882C23.0019 15.6132 23.2946 15.8304 23.5726 16.0368C24.1449 16.4615 24.6554 16.8404 25.0299 17.1472C25.3007 17.369 25.5704 17.6082 25.7461 17.8406C25.827 17.9476 25.963 18.1479 26.0013 18.4118C26.0229 18.5601 26.0152 18.7407 25.9379 18.9252Z" fill="#C0780C"/>
<path d="M9.7194 11.7029C7.6714 15.5623 1.65076 19.5179 1.21245 19.2853C0.774128 19.0527 3.27006 17.7697 5.80788 11.366C7.85588 7.50661 10.154 5.40642 10.961 5.83462C11.7679 6.26281 11.7674 7.84352 9.7194 11.7029Z" fill="#8CC900"/>
<path fill-rule="evenodd" clip-rule="evenodd" d="M5.05016 11.0168L5.07178 10.9761C6.12345 8.99422 7.25399 7.43475 8.25357 6.41097C8.74948 5.90306 9.24239 5.49673 9.70416 5.24472C10.1094 5.02356 10.7521 4.78105 11.3516 5.09918C12.2471 5.57441 12.4058 6.58181 12.2328 7.6198C12.055 8.68611 11.4915 10.1419 10.4555 12.0942C9.34926 14.1789 7.22194 16.2194 5.38057 17.6819C4.44933 18.4215 3.56276 19.0356 2.87018 19.455C2.52661 19.663 2.21382 19.8334 1.95783 19.947C1.83281 20.0024 1.69497 20.0563 1.55949 20.0901C1.49215 20.1069 1.40036 20.1252 1.29636 20.1286C1.20511 20.1315 1.01874 20.1266 0.821833 20.0221C0.643803 19.9276 0.421169 19.7341 0.349755 19.4066C0.289027 19.1282 0.374193 18.9021 0.419328 18.8012C0.506067 18.6074 0.657843 18.4257 0.749918 18.3158C0.816236 18.2367 0.888447 18.1532 0.967387 18.062C1.17258 17.8248 1.42324 17.5351 1.73404 17.1318C2.57386 16.042 3.79339 14.188 5.03318 11.0597L5.05016 11.0168ZM2.1641 17.9327C3.05412 16.8257 4.42479 14.8567 5.80789 11.3667C7.85589 7.50728 10.154 5.4071 10.961 5.8353C11.7679 6.26349 11.7674 7.8442 9.71941 11.7036C8.25465 14.4639 4.75775 17.2734 2.72446 18.5646C2.44083 18.7448 2.18568 18.8953 1.9685 19.0121C1.56574 19.2287 1.29355 19.329 1.21245 19.286C1.08087 19.2162 1.21372 19.0517 1.53274 18.6824C1.5493 18.6633 1.56636 18.6435 1.58391 18.6233C1.59981 18.6049 1.61611 18.586 1.63281 18.5667C1.7808 18.3955 1.95979 18.1868 2.1641 17.9327Z" fill="#628D01"/>
<path d="M17.5105 11.6579C19.4176 17.3434 19.6576 26.1816 18.7069 26.5004C17.7563 26.8193 15.1479 18.0172 12.4177 13.4831C9.51219 9.32523 10.075 5.80514 11.8251 5.21812C13.5752 4.63109 15.6035 5.97248 17.5105 11.6579Z" fill="#8CC900"/>
<path fill-rule="evenodd" clip-rule="evenodd" d="M19.5864 26.7709C19.4932 26.9269 19.3058 27.1782 18.972 27.2902C18.5723 27.4242 18.2326 27.2732 18.047 27.1494C17.8642 27.0273 17.7207 26.8641 17.614 26.7248C17.3951 26.4387 17.1756 26.0432 16.9602 25.6076C16.5233 24.724 16.0109 23.4816 15.4581 22.126C15.4054 21.9967 15.3523 21.8664 15.2988 21.7351C14.2163 19.0782 12.9748 16.0307 11.7181 13.9363C10.2046 11.7624 9.5465 9.68924 9.54227 8.01332C9.53815 6.38188 10.1871 4.88826 11.5602 4.42771C12.1419 4.23258 12.7688 4.19316 13.4108 4.37506C14.0456 4.5549 14.6428 4.93594 15.2008 5.49883C16.2997 6.6073 17.3333 8.50875 18.3007 11.3926C19.2855 14.3286 19.8301 18.0381 20.0122 21.0409C20.1034 22.5444 20.1056 23.9 20.0197 24.9162C19.9771 25.4192 19.9103 25.8739 19.8082 26.2323C19.7577 26.4095 19.6884 26.6003 19.5864 26.7709ZM12.4178 13.4828C13.7142 15.6357 14.9831 18.751 16.0601 21.3951C17.2513 24.3195 18.2077 26.6676 18.707 26.5001C19.6576 26.1812 19.4176 17.3431 17.5106 11.6576C15.6035 5.97214 13.5753 4.63076 11.8252 5.21778C10.0751 5.80481 9.51223 9.3249 12.4178 13.4828Z" fill="#628D01"/>
<path fill-rule="evenodd" clip-rule="evenodd" d="M18.191 26.0976C18.9256 25.8184 17.8133 17.1952 15.6825 11.5898C14.1958 7.67877 12.8811 5.82719 11.7629 5.23974C11.7836 5.23186 11.8044 5.22439 11.8254 5.21735C13.5755 4.63033 15.6038 5.97171 17.5108 11.6572C19.4179 17.3426 19.6579 26.1808 18.7072 26.4997C18.5685 26.5462 18.3944 26.3985 18.1898 26.098C18.1902 26.0979 18.1906 26.0977 18.191 26.0976Z" fill="#7AAA0D"/>
<path d="M12.4845 13.9946C10.8477 19.2582 5.10837 25.9752 4.08551 25.6572C3.06265 25.3391 4.91884 20.4488 6.32508 12.7405C7.96191 7.47684 9.35197 5.40267 11.235 5.98823C13.118 6.57379 14.1214 8.73092 12.4845 13.9946Z" fill="#FEC200"/>
<path fill-rule="evenodd" clip-rule="evenodd" d="M5.5143 12.5415L5.52929 12.4933C6.34934 9.85618 7.13773 7.90822 8.00939 6.687C8.4503 6.06929 8.95432 5.57683 9.55407 5.29976C10.1792 5.01098 10.8335 4.99092 11.4824 5.19271C12.7169 5.5766 13.6487 6.50255 13.9933 8.05701C14.3214 9.53731 14.1147 11.5587 13.2802 14.2423C12.4199 17.009 10.5096 20.0947 8.71525 22.4273C7.81379 23.5992 6.91983 24.6094 6.17091 25.3157C5.79956 25.666 5.4411 25.9632 5.11896 26.1674C4.95895 26.2688 4.78089 26.3646 4.59487 26.4269C4.42384 26.4841 4.14329 26.5481 3.83801 26.4531C3.31843 26.2916 3.1017 25.8515 3.02146 25.5276C2.94392 25.2145 2.94735 24.8585 2.97569 24.5195C3.03355 23.8277 3.22781 22.8897 3.48221 21.7836C3.60138 21.2655 3.73588 20.7017 3.88086 20.0939C4.3656 18.0619 4.9675 15.5388 5.50524 12.5912L5.5143 12.5415ZM4.08547 25.6574C5.10833 25.9755 10.8477 19.2584 12.4845 13.9948C14.1213 8.73115 13.118 6.57402 11.235 5.98846C9.35193 5.4029 7.96186 7.47707 6.32504 12.7407C5.78281 15.7129 5.17369 18.2662 4.68851 20.2999C3.9154 23.5405 3.45701 25.462 4.08547 25.6574Z" fill="#AD0505"/>
<path fill-rule="evenodd" clip-rule="evenodd" d="M4.06134 24.8899C5.11587 25.078 9.97328 17.698 10.9413 12.2714C11.509 9.08913 11.309 7.07998 10.6549 5.89258C10.8434 5.89456 11.0365 5.92673 11.235 5.98847C13.118 6.57404 14.1214 8.73117 12.4845 13.9948C10.8477 19.2585 5.10838 25.9755 4.08552 25.6574C3.84094 25.5813 3.76097 25.2439 3.8001 24.669C3.86409 24.7955 3.94996 24.87 4.06134 24.8899Z" fill="#DA9308"/>
<path d="M16.0648 14.3031C16.0648 22.6913 12.5654 29.9281 11.8981 29.9281C11.2308 29.9281 7.73145 21.0916 7.73145 14.3031C7.73145 7.51456 9.59693 5.34473 11.8981 5.34473C14.1993 5.34473 16.0648 7.51456 16.0648 14.3031Z" fill="#FA2D11"/>
<path fill-rule="evenodd" clip-rule="evenodd" d="M12.6067 30.4695C12.5243 30.5423 12.2686 30.7617 11.8981 30.7617C11.6535 30.7617 11.4707 30.6645 11.3751 30.6027C11.272 30.5361 11.1912 30.4591 11.1336 30.3977C11.0179 30.2744 10.9131 30.1246 10.8211 29.9776C10.6329 29.6769 10.4237 29.2668 10.206 28.7845C9.76735 27.8129 9.256 26.4638 8.7693 24.9108C7.79919 21.8153 6.89807 17.8176 6.89807 14.3034C6.89807 10.8592 7.36681 8.45385 8.21917 6.8814C8.65177 6.08335 9.19321 5.48167 9.83666 5.08218C10.4827 4.68109 11.1868 4.51172 11.8981 4.51172C12.6093 4.51172 13.3135 4.68109 13.9595 5.08218C14.6029 5.48167 15.1444 6.08335 15.577 6.8814C16.4293 8.45385 16.8981 10.8592 16.8981 14.3034C16.8981 18.6071 16.0017 22.6041 15.0217 25.5264C14.5317 26.9878 14.0156 28.1961 13.5696 29.0517C13.3484 29.4762 13.1337 29.8347 12.9371 30.0987C12.8406 30.2283 12.7297 30.3608 12.6067 30.4695ZM11.8981 29.9284C12.5654 29.9284 16.0647 22.6916 16.0647 14.3034C16.0647 7.51488 14.1993 5.34505 11.8981 5.34505C9.59689 5.34505 7.7314 7.51488 7.7314 14.3034C7.7314 21.0919 11.2308 29.9284 11.8981 29.9284Z" fill="#AD0505"/>
<path fill-rule="evenodd" clip-rule="evenodd" d="M11.8981 29.9281C12.5654 29.9281 16.0648 22.6913 16.0648 14.3031C16.0648 7.51456 14.1993 5.34473 11.8981 5.34473C11.6655 5.34473 11.4373 5.3669 11.2151 5.41378C11.3914 5.40769 11.5692 5.41639 11.748 5.43862C14.0316 5.72254 15.6151 8.10595 14.7776 14.8426C14.1177 20.1498 12.104 24.817 10.5594 27.4817C11.1606 28.9864 11.6803 29.9281 11.8981 29.9281Z" fill="#CC2009"/>
<path d="M9.86921 8.69533C10.5897 8.67714 11.2571 11.9635 11.3599 16.0356C11.4627 20.1077 10.962 23.4235 10.2415 23.4417C9.52097 23.4599 8.85356 20.1735 8.75076 16.1014C8.64796 12.0293 9.14871 8.71352 9.86921 8.69533Z" fill="#FF553E"/>
<path fill-rule="evenodd" clip-rule="evenodd" d="M9.71962 12.599C9.94892 12.6184 10.1191 12.82 10.0997 13.0493C10.0244 13.9405 10.0836 17.1931 10.2399 18.8511C10.2615 19.0802 10.0933 19.2834 9.86422 19.305C9.63512 19.3266 9.43188 19.1584 9.41027 18.9293C9.25123 17.2429 9.18841 13.9369 9.26935 12.9791C9.28873 12.7498 9.49032 12.5797 9.71962 12.599Z" fill="white"/>
<path fill-rule="evenodd" clip-rule="evenodd" d="M13.7637 1.06496L13.7629 1.06667L13.7592 1.07381L13.7444 1.10343C13.7314 1.12969 13.7122 1.1685 13.6885 1.21736C13.641 1.31526 13.5758 1.45265 13.5051 1.6099C13.3599 1.93252 13.2054 2.30864 13.125 2.59633C13.0219 2.96525 12.9586 3.48284 12.9225 3.93607C12.905 4.15694 12.8946 4.35238 12.8886 4.49237C12.8856 4.56224 12.8837 4.61798 12.8826 4.65579C12.882 4.67469 12.8816 4.68908 12.8814 4.6985L12.8812 4.70883L12.8811 4.71108C12.8811 4.71106 12.8811 4.71109 12.8811 4.71108C12.8746 5.05614 12.5896 5.33096 12.2445 5.32449C11.8994 5.31802 11.6249 5.033 11.6314 4.68788L12.2562 4.6996C11.6314 4.68788 11.6314 4.68794 11.6314 4.68788L11.6314 4.68607L11.6315 4.68222L11.6318 4.66858C11.6321 4.65691 11.6325 4.64014 11.6331 4.61877C11.6344 4.57605 11.6365 4.51481 11.6397 4.43893C11.6462 4.28743 11.6574 4.0763 11.6765 3.83683C11.7137 3.36939 11.7838 2.75124 11.9211 2.25995C12.0281 1.87714 12.2153 1.43004 12.3651 1.09707C12.4418 0.926525 12.5123 0.778026 12.5638 0.671984C12.5895 0.618877 12.6106 0.576196 12.6254 0.54647L12.6427 0.511853L12.6475 0.502386L12.6494 0.498532C12.6494 0.498491 12.6495 0.498453 13.2001 0.77841L12.6494 0.498532C12.8059 0.190838 13.1821 0.0681402 13.4898 0.224576C13.7975 0.381 13.9201 0.757279 13.7637 1.06496Z" fill="#506A05"/>
<path d="M15.2403 17.0247C15.0145 17.3312 14.583 17.3966 14.2764 17.1708C13.9699 16.9449 13.9045 16.5134 14.1303 16.2068C14.3561 15.9003 14.7877 15.8349 15.0942 16.0607C15.4008 16.2866 15.4662 16.7181 15.2403 17.0247Z" fill="#BB0202"/>
<path d="M15.5611 15.0347C15.3658 15.2999 14.9925 15.3565 14.7274 15.1611C14.4622 14.9658 14.4056 14.5925 14.601 14.3273C14.7963 14.0622 15.1696 14.0056 15.4347 14.201C15.6999 14.3963 15.7565 14.7696 15.5611 15.0347Z" fill="#BB0202"/>
<path d="M14.9607 18.9042C14.7654 19.1693 14.3921 19.2259 14.127 19.0306C13.8618 18.8353 13.8053 18.462 14.0006 18.1968C14.1959 17.9317 14.5692 17.8751 14.8344 18.0704C15.0995 18.2658 15.1561 18.6391 14.9607 18.9042Z" fill="#BB0202"/>
<path d="M14.4177 12.9505C14.2224 13.2157 13.8491 13.2723 13.584 13.0769C13.3188 12.8816 13.2622 12.5083 13.4576 12.2431C13.6529 11.978 14.0262 11.9214 14.2913 12.1168C14.5565 12.3121 14.6131 12.6854 14.4177 12.9505Z" fill="#BB0202"/>
<path d="M15.1617 11.2139C15.0257 11.3984 14.7659 11.4378 14.5814 11.3019C14.3969 11.1659 14.3575 10.9061 14.4935 10.7216C14.6294 10.5371 14.8892 10.4977 15.0737 10.6336C15.2582 10.7696 15.2976 11.0294 15.1617 11.2139Z" fill="#BB0202"/>
<path d="M15.4521 13.1972C15.3509 13.3345 15.1575 13.3639 15.0201 13.2627C14.8827 13.1615 14.8534 12.9681 14.9546 12.8307C15.0558 12.6933 15.2492 12.664 15.3866 12.7652C15.524 12.8664 15.5533 13.0598 15.4521 13.1972Z" fill="#BB0202"/>
<path d="M14.0012 23.6229C13.8652 23.8074 13.6055 23.8468 13.4209 23.7109C13.2364 23.5749 13.197 23.3151 13.333 23.1306C13.4689 22.9461 13.7287 22.9067 13.9132 23.0427C14.0978 23.1786 14.1371 23.4384 14.0012 23.6229Z" fill="#BB0202"/>
<path d="M14.7763 20.9256C14.6404 21.1101 14.3806 21.1495 14.1961 21.0135C14.0116 20.8776 13.9722 20.6178 14.1081 20.4333C14.2441 20.2487 14.5039 20.2094 14.6884 20.3453C14.8729 20.4813 14.9123 20.741 14.7763 20.9256Z" fill="#BB0202"/>
<path fill-rule="evenodd" clip-rule="evenodd" d="M12.3088 3.45153C11.354 2.84951 9.07544 2.56673 7.59978 6.25168C8.3361 6.40246 9.37774 6.47389 10.296 6.25501C10.2922 6.9552 10.4677 7.81054 10.9164 8.84527C11.7125 8.31445 12.7656 7.34155 13.1438 6.24859C13.7216 6.79506 14.6395 7.27332 16.049 7.55232C16.0776 5.82114 15.3935 2.57512 12.4284 3.44048C12.4047 3.50047 12.3828 3.56453 12.3632 3.63213C12.3492 3.61977 12.3349 3.60744 12.3205 3.59511C12.3175 3.54799 12.3136 3.50013 12.3088 3.45153Z" fill="#B6EC1C"/>
<path fill-rule="evenodd" clip-rule="evenodd" d="M8.1943 5.92596C8.81601 6.00164 9.54847 6.00473 10.1995 5.84956C10.3239 5.81991 10.455 5.84904 10.5552 5.92859C10.6554 6.00813 10.7134 6.12927 10.7127 6.25717C10.7099 6.78035 10.8185 7.42024 11.1036 8.19369C11.7717 7.66558 12.4746 6.90816 12.7501 6.1122C12.7963 5.97848 12.9073 5.87738 13.0447 5.84374C13.1822 5.81009 13.3273 5.8485 13.4301 5.94572C13.8685 6.36028 14.5577 6.75522 15.6194 7.02791C15.5711 6.27852 15.3912 5.39879 15.0017 4.73297C14.7639 4.32644 14.461 4.02132 14.0825 3.85621C13.7476 3.71013 13.3153 3.65687 12.7501 3.78677C12.7029 3.90488 12.6038 3.99579 12.4802 4.03192C12.3433 4.07195 12.1955 4.03918 12.0883 3.94505C12.0757 3.93398 12.0629 3.92292 12.05 3.91186C11.9878 3.85879 11.9432 3.7891 11.9206 3.71191C11.5216 3.51807 10.9282 3.40625 10.2909 3.63586C9.63465 3.87228 8.86145 4.49688 8.1943 5.92596ZM12.3922 3.01767C11.8172 2.70558 10.9435 2.51498 10.0084 2.85186C8.9871 3.2198 7.97858 4.18493 7.21302 6.09665C7.16711 6.21128 7.17441 6.34037 7.23296 6.44909C7.2915 6.55782 7.39526 6.63497 7.51623 6.65974C8.16526 6.79265 9.04789 6.86983 9.90298 6.75147C9.96716 7.41 10.1651 8.15995 10.5341 9.0109C10.5833 9.12419 10.6801 9.20986 10.7985 9.24479C10.917 9.27972 11.0448 9.26032 11.1475 9.19181C11.8498 8.72357 12.7822 7.90273 13.3046 6.91632C13.9388 7.36534 14.8071 7.73109 15.9681 7.96092C16.0892 7.9849 16.2148 7.95392 16.3108 7.87633C16.4069 7.79873 16.4636 7.68253 16.4656 7.55906C16.4806 6.65532 16.3131 5.3243 15.721 4.31216C15.4207 3.79895 14.9985 3.34663 14.4157 3.09239C13.848 2.84475 13.1734 2.80486 12.3922 3.01767Z" fill="#6F9602"/>
<path d="M10.751 4.45192C10.855 4.65718 10.6741 4.95798 10.347 5.12378C10.0199 5.28958 9.67032 5.25758 9.56629 5.05232C9.46226 4.84706 9.64313 4.54626 9.97026 4.38046C10.2974 4.21466 10.6469 4.24665 10.751 4.45192Z" fill="#E3FF93"/>
</svg>
