<svg width="30" height="26" viewBox="0 0 30 26" fill="none" xmlns="http://www.w3.org/2000/svg">
<path d="M21.1867 17.2563C20.9837 15.5963 20.1652 14.0482 18.8655 12.8657C17.5657 11.6833 15.8617 10.9366 14.033 10.7482C12.2042 10.5598 10.3592 10.9408 8.80036 11.8288C7.24154 12.7167 6.06144 14.059 5.45353 15.6354C4.06053 15.7388 2.76563 16.3273 1.83989 17.2775C0.91414 18.2276 0.429316 19.466 0.4869 20.7332C0.544484 22.0004 1.14001 23.1983 2.14882 24.0761C3.15764 24.9539 4.50153 25.4436 5.89919 25.4426H21.2354C22.4317 25.4426 23.579 25.0114 24.425 24.2437C25.2709 23.4761 25.7461 22.435 25.7461 21.3494C25.7461 20.2639 25.2709 19.2227 24.425 18.4551C23.579 17.6875 22.4317 17.2563 21.2354 17.2563H21.1867Z" fill="white"/>
<path d="M19.4312 1.70145C19.4312 1.48433 19.3362 1.27611 19.167 1.12258C18.9978 0.969061 18.7684 0.882813 18.5291 0.882812C18.2898 0.882813 18.0604 0.969061 17.8912 1.12258C17.722 1.27611 17.627 1.48433 17.627 1.70145V3.33871C17.627 3.55583 17.722 3.76405 17.8912 3.91758C18.0604 4.0711 18.2898 4.15735 18.5291 4.15735C18.7684 4.15735 18.9978 4.0711 19.167 3.91758C19.3362 3.76405 19.4312 3.55583 19.4312 3.33871V1.70145ZM26.1846 4.91704C26.2708 4.84152 26.3395 4.75119 26.3868 4.65132C26.434 4.55144 26.4589 4.44402 26.46 4.33532C26.461 4.22662 26.4382 4.11883 26.3928 4.01822C26.3475 3.91761 26.2805 3.82621 26.1958 3.74935C26.1111 3.67248 26.0103 3.6117 25.8995 3.57053C25.7886 3.52937 25.6698 3.50866 25.55 3.5096C25.4303 3.51055 25.3119 3.53313 25.2018 3.57603C25.0917 3.61894 24.9922 3.6813 24.909 3.75949L23.6316 4.91704C23.4622 5.07076 23.367 5.27924 23.367 5.49663C23.367 5.71402 23.4622 5.92251 23.6316 6.07623C23.801 6.22994 24.0307 6.3163 24.2703 6.3163C24.5098 6.3163 24.7396 6.22994 24.909 6.07623L26.1846 4.91704ZM12.1492 3.75949C11.9791 3.61037 11.7512 3.52786 11.5147 3.52972C11.2781 3.53159 11.0519 3.61768 10.8846 3.76946C10.7173 3.92125 10.6225 4.12657 10.6204 4.34121C10.6183 4.55586 10.7093 4.76264 10.8736 4.91704L12.1492 6.07623C12.2331 6.15234 12.3327 6.21272 12.4423 6.25391C12.5518 6.2951 12.6693 6.3163 12.7879 6.3163C12.9065 6.3163 13.024 6.2951 13.1336 6.25391C13.2432 6.21272 13.3428 6.15234 13.4266 6.07623C13.5105 6.00011 13.577 5.90975 13.6224 5.81031C13.6678 5.71086 13.6912 5.60427 13.6912 5.49663C13.6912 5.38899 13.6678 5.28241 13.6224 5.18296C13.577 5.08351 13.5105 4.99315 13.4266 4.91704L12.1492 3.75949ZM15.2778 9.28363C15.5021 8.86194 15.8234 8.48879 16.22 8.18935C16.6167 7.88991 17.0795 7.67115 17.5773 7.54783C18.0751 7.4245 18.5962 7.39948 19.1055 7.47445C19.6148 7.54942 20.1005 7.72264 20.5298 7.98242C20.9591 8.2422 21.322 8.5825 21.594 8.98036C21.8661 9.37823 22.0409 9.82441 22.1068 10.2888C22.1726 10.7532 22.128 11.225 21.9758 11.6724C21.8236 12.1198 21.5675 12.5324 21.2247 12.8823C21.5837 13.3424 21.8959 13.8352 22.1557 14.3526C22.7671 13.8513 23.2444 13.2299 23.551 12.5358C23.8576 11.8417 23.9856 11.0932 23.9251 10.3474C23.8646 9.60163 23.6172 8.87824 23.2018 8.23237C22.7865 7.58651 22.2141 7.03524 21.5283 6.62058C20.8425 6.20593 20.0614 5.93884 19.2446 5.83967C18.4279 5.74051 17.5969 5.81189 16.8151 6.04838C16.0333 6.28487 15.3214 6.68022 14.7335 7.20429C14.1457 7.72836 13.6975 8.36731 13.423 9.07243C14.0581 9.09044 14.6788 9.16248 15.2778 9.28363ZM23.3681 15.9539C24.4507 16.3059 25.3979 16.9199 26.1142 17.709C26.2125 17.6368 26.2929 17.5467 26.3503 17.4445C26.4076 17.3423 26.4407 17.2303 26.4474 17.1158C26.454 17.0013 26.434 16.8867 26.3888 16.7796C26.3435 16.6726 26.2739 16.5753 26.1846 16.4942L24.909 15.3366C24.7804 15.2192 24.6156 15.14 24.4363 15.1093C24.257 15.0786 24.0717 15.098 23.9049 15.1648C23.738 15.2317 23.5973 15.3429 23.5015 15.4838C23.4057 15.6246 23.3592 15.7885 23.3681 15.9539ZM26.6483 9.88779C26.409 9.88779 26.1796 9.97403 26.0104 10.1276C25.8412 10.2811 25.7462 10.4893 25.7462 10.7064C25.7462 10.9235 25.8412 11.1318 26.0104 11.2853C26.1796 11.4388 26.409 11.5251 26.6483 11.5251H28.4526C28.6918 11.5251 28.9213 11.4388 29.0905 11.2853C29.2596 11.1318 29.3547 10.9235 29.3547 10.7064C29.3547 10.4893 29.2596 10.2811 29.0905 10.1276C28.9213 9.97403 28.6918 9.88779 28.4526 9.88779H26.6483Z" fill="white"/>
</svg>
