<svg width="16" height="16" viewBox="0 0 16 16" fill="none" xmlns="http://www.w3.org/2000/svg">
<circle cx="8" cy="8" r="8" fill="#D55151"/>
<path d="M8.55653 11.2899C8.76942 11.077 8.98232 10.8641 9.19521 10.6512C9.44003 10.4064 9.68486 10.1615 9.92969 9.91672C10.0194 9.827 10.1091 9.73728 10.1988 9.64756C10.2749 9.57153 10.3509 9.4955 10.4269 9.41946C10.5015 9.34495 10.5729 9.27044 10.611 9.16857C10.684 8.97395 10.6384 8.74894 10.497 8.59845C10.3557 8.451 10.1398 8.39327 9.94365 8.4526C9.81593 8.49216 9.72773 8.57731 9.63649 8.66855C9.58023 8.72482 9.52244 8.7826 9.46618 8.83887C9.23808 9.06696 9.00998 9.29506 8.78188 9.52316C8.75888 9.54616 8.71955 9.52987 8.71955 9.49734C8.71961 9.17963 8.71968 8.85981 8.71974 8.54254C8.7198 8.23542 8.71985 7.92527 8.71991 7.61815C8.71997 7.33232 8.72002 7.0465 8.72008 6.75763C8.72013 6.4718 8.72019 6.18901 8.72024 5.90318C8.72028 5.68729 8.72032 5.4714 8.72189 5.25398C8.7219 5.20229 8.7219 5.15364 8.72191 5.10195C8.72043 4.90582 8.6186 4.72492 8.44834 4.62764C8.27048 4.52581 8.04242 4.53194 7.87212 4.64752C7.72158 4.74941 7.63185 4.92123 7.63181 5.10368C7.63178 5.26179 7.63175 5.41991 7.63172 5.57803C7.63167 5.8669 7.63161 6.15577 7.63003 6.44616C7.62845 6.76088 7.62991 7.07559 7.62833 7.39031C7.62826 7.74607 7.6282 8.10184 7.62661 8.45913C7.62502 8.79513 7.62648 9.13113 7.6249 9.46713C7.62489 9.5109 7.57197 9.53281 7.54102 9.50186C7.45598 9.41682 7.37051 9.33135 7.2859 9.24674C7.15821 9.11905 7.029 8.98985 6.90132 8.86216C6.84963 8.81048 6.79947 8.76032 6.74779 8.70863C6.65962 8.62047 6.57602 8.5247 6.45896 8.47455C6.25525 8.38641 6.0135 8.43359 5.85688 8.59022C5.70025 8.74684 5.65459 8.99011 5.74121 9.1923C5.78377 9.29264 5.85825 9.36408 5.93273 9.43856C6.01634 9.52217 6.09994 9.60577 6.18355 9.68938C6.28083 9.78666 6.37964 9.88547 6.47692 9.98275C6.59397 10.0998 6.71253 10.2184 6.82958 10.3354C6.97247 10.4783 7.11687 10.6227 7.25976 10.7656C7.36617 10.872 7.47257 10.9784 7.57898 11.0848C7.64434 11.1502 7.70818 11.214 7.77354 11.2794C7.90123 11.4071 8.07758 11.4709 8.25699 11.4404C8.37102 11.4237 8.47594 11.3705 8.55653 11.2899Z" fill="white"/>
</svg>
