<svg width="16" height="16" viewBox="0 0 16 16" fill="none" xmlns="http://www.w3.org/2000/svg">
<circle cx="8" cy="8" r="8" fill="#D55151"/>
<path d="M8.55653 11.2908C8.76942 11.078 8.98232 10.8651 9.19521 10.6522C9.44003 10.4073 9.68486 10.1625 9.92969 9.91769C10.0194 9.82797 10.1091 9.73826 10.1988 9.64854C10.2749 9.5725 10.3509 9.49647 10.4269 9.42044C10.5015 9.34593 10.5729 9.27141 10.611 9.16954C10.684 8.97492 10.6384 8.74992 10.497 8.59943C10.3557 8.45198 10.1398 8.39425 9.94365 8.45358C9.81593 8.49313 9.72773 8.57829 9.63649 8.66953C9.58023 8.72579 9.52244 8.78358 9.46618 8.83984C9.23808 9.06794 9.00998 9.29604 8.78188 9.52414C8.75888 9.54714 8.71955 9.53085 8.71955 9.49831C8.71961 9.18061 8.71968 8.86079 8.71974 8.54351C8.7198 8.2364 8.71985 7.92624 8.71991 7.61913C8.71997 7.3333 8.72002 7.04747 8.72008 6.7586C8.72013 6.47277 8.72019 6.18999 8.72024 5.90416C8.72028 5.68826 8.72032 5.47237 8.72189 5.25496C8.7219 5.20327 8.7219 5.15462 8.72191 5.10292C8.72043 4.9068 8.6186 4.72589 8.44834 4.62862C8.27048 4.52679 8.04242 4.53292 7.87212 4.6485C7.72158 4.75039 7.63185 4.92221 7.63181 5.10465C7.63178 5.26277 7.63175 5.42089 7.63172 5.57901C7.63167 5.86788 7.63161 6.15675 7.63003 6.44714C7.62845 6.76185 7.62991 7.07657 7.62833 7.39128C7.62826 7.74705 7.6282 8.10282 7.62661 8.4601C7.62502 8.7961 7.62648 9.1321 7.6249 9.46811C7.62489 9.51187 7.57197 9.53379 7.54102 9.50284C7.45598 9.4178 7.37051 9.33233 7.2859 9.24772C7.15821 9.12003 7.029 8.99082 6.90132 8.86314C6.84963 8.81145 6.79947 8.76129 6.74779 8.70961C6.65962 8.62145 6.57602 8.52568 6.45896 8.47553C6.25525 8.38739 6.0135 8.43456 5.85688 8.59119C5.70025 8.74782 5.65459 8.99109 5.74121 9.19328C5.78377 9.29361 5.85825 9.36506 5.93273 9.43954C6.01634 9.52315 6.09994 9.60675 6.18355 9.69035C6.28083 9.78764 6.37964 9.88644 6.47692 9.98373C6.59397 10.1008 6.71253 10.2193 6.82958 10.3364C6.97247 10.4793 7.11687 10.6237 7.25976 10.7666C7.36617 10.873 7.47257 10.9794 7.57898 11.0858C7.64434 11.1511 7.70818 11.215 7.77354 11.2804C7.90123 11.408 8.07758 11.4719 8.25699 11.4414C8.37102 11.4247 8.47594 11.3714 8.55653 11.2908Z" fill="white"/>
</svg>
