<svg width="18" height="12" viewBox="0 0 18 12" fill="none" xmlns="http://www.w3.org/2000/svg">
<path fill-rule="evenodd" clip-rule="evenodd" d="M16.6667 0.666016H15.6667C15.1145 0.666016 14.6667 1.11373 14.6667 1.66602V10.3327C14.6667 10.885 15.1145 11.3327 15.6667 11.3327H16.6667C17.219 11.3327 17.6667 10.885 17.6667 10.3327V1.66602C17.6667 1.11373 17.219 0.666016 16.6667 0.666016ZM11.0001 2.99935H12.0001C12.5524 2.99935 13.0001 3.44706 13.0001 3.99935V10.3327C13.0001 10.885 12.5524 11.3327 12.0001 11.3327H11.0001C10.4478 11.3327 10.0001 10.885 10.0001 10.3327V3.99935C10.0001 3.44706 10.4478 2.99935 11.0001 2.99935ZM7.33341 5.33268H6.33341C5.78113 5.33268 5.33341 5.7804 5.33341 6.33268V10.3327C5.33341 10.885 5.78113 11.3327 6.33341 11.3327H7.33341C7.8857 11.3327 8.33341 10.885 8.33341 10.3327V6.33268C8.33341 5.7804 7.8857 5.33268 7.33341 5.33268ZM2.66675 7.33268H1.66675C1.11446 7.33268 0.666748 7.7804 0.666748 8.33268V10.3327C0.666748 10.885 1.11446 11.3327 1.66675 11.3327H2.66675C3.21903 11.3327 3.66675 10.885 3.66675 10.3327V8.33268C3.66675 7.7804 3.21903 7.33268 2.66675 7.33268Z" fill="white"/>
</svg>
