<svg width="18" height="12" viewBox="0 0 18 12" fill="none" xmlns="http://www.w3.org/2000/svg">
<path fill-rule="evenodd" clip-rule="evenodd" d="M16.6667 0.666016H15.6667C15.1144 0.666016 14.6667 1.11373 14.6667 1.66602V10.3327C14.6667 10.885 15.1144 11.3327 15.6667 11.3327H16.6667C17.2189 11.3327 17.6667 10.885 17.6667 10.3327V1.66602C17.6667 1.11373 17.2189 0.666016 16.6667 0.666016ZM11 2.99935H12C12.5523 2.99935 13 3.44706 13 3.99935V10.3327C13 10.885 12.5523 11.3327 12 11.3327H11C10.4477 11.3327 9.99999 10.885 9.99999 10.3327V3.99935C9.99999 3.44706 10.4477 2.99935 11 2.99935ZM7.33332 5.33268H6.33332C5.78104 5.33268 5.33332 5.7804 5.33332 6.33268V10.3327C5.33332 10.885 5.78104 11.3327 6.33332 11.3327H7.33332C7.88561 11.3327 8.33332 10.885 8.33332 10.3327V6.33268C8.33332 5.7804 7.88561 5.33268 7.33332 5.33268ZM2.66666 7.33268H1.66666C1.11437 7.33268 0.666656 7.7804 0.666656 8.33268V10.3327C0.666656 10.885 1.11437 11.3327 1.66666 11.3327H2.66666C3.21894 11.3327 3.66666 10.885 3.66666 10.3327V8.33268C3.66666 7.7804 3.21894 7.33268 2.66666 7.33268Z" fill="white"/>
</svg>
