<svg width="70" height="60" viewBox="0 0 70 60" fill="none" xmlns="http://www.w3.org/2000/svg">
<path fill-rule="evenodd" clip-rule="evenodd" d="M54.8002 57.5267C52.8773 55.4547 53.1161 52.2183 54.8419 49.9795C58.0644 45.7992 59.9811 40.5606 59.9811 34.8742C59.9811 21.198 48.8944 10.1113 35.2182 10.1113C21.542 10.1113 10.4553 21.198 10.4553 34.8742C10.4553 40.5772 12.3832 45.8298 15.6227 50.0161C17.3892 52.2988 17.5965 55.6301 15.571 57.6865C13.7332 59.5524 10.7269 59.6825 9.00574 57.7084C3.68055 51.6005 0.455322 43.614 0.455322 34.8742C0.455322 15.6752 16.0192 0.111328 35.2182 0.111328C54.4172 0.111328 69.9811 15.6752 69.9811 34.8742C69.9811 43.5854 66.7769 51.5483 61.4828 57.6485C59.7218 59.6775 56.6278 59.496 54.8002 57.5267Z" fill="white" fill-opacity="0.5"/>
</svg>
