<svg width="96" height="96" viewBox="0 0 96 96" fill="none" xmlns="http://www.w3.org/2000/svg">
<g filter="url(#filter0_d_212_3451)">
<path d="M46.9242 28.1661C46.223 23.574 42.0694 24.3128 39.5773 21.8501C40.2791 23.3712 44.5893 27.5558 46.9242 28.1661Z" fill="#73B40D"/>
<path fill-rule="evenodd" clip-rule="evenodd" d="M47.6692 28.9364C47.9629 28.7118 48.1088 28.3703 48.0567 28.029C47.8596 26.7385 47.4069 25.7502 46.74 24.9719C46.0782 24.1996 45.2627 23.7016 44.4697 23.317C44.0765 23.1263 43.6744 22.9569 43.2983 22.7998C43.2696 22.7878 43.2411 22.7759 43.2126 22.764C42.8601 22.6168 42.5306 22.4792 42.2073 22.3291C41.517 22.0083 40.9223 21.6595 40.4269 21.1699C40.0552 20.8026 39.4401 20.7263 38.9696 20.9893C38.4991 21.2523 38.3096 21.7782 38.5205 22.2354C38.7584 22.751 39.2416 23.3886 39.7919 24.0169C40.3613 24.6672 41.0689 25.3816 41.8256 26.0632C42.5811 26.7438 43.4017 27.4061 44.1993 27.9447C44.9743 28.4679 45.8153 28.935 46.6023 29.1406C46.9739 29.2378 47.3755 29.1609 47.6692 28.9364ZM46.6161 26.9406C46.7499 27.3015 46.8544 27.707 46.9245 28.1657C46.5424 28.0658 46.1073 27.8702 45.6439 27.6062C44.3213 26.8529 42.7673 25.5426 41.5505 24.3108C40.5882 23.3366 39.8368 22.4115 39.5776 21.8497C40.3604 22.6232 41.307 23.0809 42.2591 23.4871C42.4139 23.5531 42.5688 23.6178 42.7232 23.6822C44.3407 24.3575 45.8993 25.0082 46.6161 26.9406Z" fill="#436C02"/>
<path d="M47.3323 29.6425C48.0334 25.0503 52.3151 22.8339 55.0842 23.3265C50.9306 23.819 52.0382 28.4981 47.3323 29.6425Z" fill="#73B40D"/>
<path fill-rule="evenodd" clip-rule="evenodd" d="M46.5794 30.4083C46.291 30.1836 46.1485 29.8452 46.2001 29.5072C46.9735 24.4425 51.7785 21.7037 55.3083 22.3316C55.8561 22.429 56.2444 22.8644 56.2262 23.3609C56.2081 23.8575 55.789 24.2696 55.2353 24.3352C53.8056 24.5048 53.2858 25.293 52.4219 26.7226L52.4115 26.7398C51.5813 28.1136 50.483 29.9313 47.6337 30.6242C47.2638 30.7141 46.8679 30.633 46.5794 30.4083ZM47.5947 28.4952C47.4822 28.8598 47.3936 29.2428 47.3323 29.644C47.8009 29.53 48.2119 29.381 48.5761 29.2046C50.0593 28.4862 50.768 27.3131 51.4405 26.2C51.7769 25.6432 52.1043 25.1014 52.515 24.639C53.1065 23.973 53.8709 23.4719 55.0843 23.328C54.106 23.154 52.9389 23.3181 51.8077 23.8056C50.0165 24.5775 48.315 26.1601 47.5947 28.4952Z" fill="#436C02"/>
<path fill-rule="evenodd" clip-rule="evenodd" d="M47.3306 21.3262C47.9616 21.3262 48.4732 21.7811 48.4732 22.3423V29.7304C48.4732 30.2916 47.9616 30.7465 47.3306 30.7465C46.6995 30.7465 46.188 30.2916 46.188 29.7304V22.3423C46.188 21.7811 46.6995 21.3262 47.3306 21.3262Z" fill="#457003"/>
<path d="M42.3463 28.9921C35.9392 28.5062 29.7485 33.1358 30.1625 38.8428C30.8271 49.2846 40.6848 52.9843 46.4999 52.9843C52.038 52.9843 61.7297 49.4816 62.8373 38.8428C63.2514 33.1358 57.0606 28.5062 50.6535 28.9921C48.9637 29.1202 47.0907 30.0257 46.4999 30.1192C45.9091 30.0257 44.0361 29.1202 42.3463 28.9921Z" fill="#FF3A1A"/>
<path fill-rule="evenodd" clip-rule="evenodd" d="M63.9766 38.9225L63.9751 38.9366C62.7972 50.2507 52.4384 54.0006 46.5 54.0006C43.3585 54.0006 39.1922 53.0111 35.7052 50.6361C32.1816 48.2362 29.3753 44.4343 29.0221 38.9043C28.559 32.4777 35.4603 27.4501 42.4435 27.9797C43.4539 28.0564 44.4675 28.3579 45.2405 28.6186C45.5033 28.7073 45.7618 28.7996 45.9822 28.8783C46.0835 28.9145 46.1768 28.9478 46.2587 28.9765C46.3517 29.0092 46.4315 29.0365 46.5 29.0589C46.5685 29.0365 46.6483 29.0092 46.7413 28.9765C46.8232 28.9478 46.9165 28.9145 47.0178 28.8783C47.2382 28.7996 47.4967 28.7073 47.7595 28.6186C48.5325 28.3579 49.5461 28.0564 50.5565 27.9797C57.5411 27.45 64.444 32.4798 63.9776 38.9084L63.9766 38.9225ZM46.5 30.1193C46.3038 30.0883 45.9662 29.9677 45.5409 29.8157C44.6854 29.5102 43.475 29.0778 42.3464 28.9922C35.9393 28.5063 29.7486 33.1359 30.1626 38.8429C30.8272 49.2847 40.6849 52.9844 46.5 52.9844C52.038 52.9844 61.7298 49.4817 62.8374 38.8429C63.2515 33.1359 57.0607 28.5063 50.6536 28.9922C49.525 29.0778 48.3146 29.5102 47.4591 29.8157C47.0338 29.9677 46.6962 30.0883 46.5 30.1193Z" fill="#A20505"/>
<path fill-rule="evenodd" clip-rule="evenodd" d="M32.7852 32.3985C35.1135 30.0998 38.6948 28.7152 42.3464 28.9921C43.475 29.0777 44.6853 29.51 45.5408 29.8156C45.9661 29.9676 46.3037 30.0882 46.4999 30.1192C46.6962 30.0882 47.0338 29.9676 47.4591 29.8156C48.3146 29.51 49.5249 29.0777 50.6535 28.9921C54.5178 28.699 58.3033 30.2667 60.6087 32.8094C57.6032 31.4402 53.9877 30.7094 50.6535 30.9622C49.5249 31.0478 48.3146 31.4802 47.4591 31.7857C47.0338 31.9377 46.6962 32.0583 46.5 32.0893C46.3038 32.0583 45.9662 31.9377 45.5408 31.7857C44.6854 31.4802 43.475 31.0478 42.3464 30.9622C38.8996 30.7008 35.5578 31.2698 32.7852 32.3985Z" fill="#E83214"/>
<path fill-rule="evenodd" clip-rule="evenodd" d="M35.4651 49.1423C38.4417 50.803 41.7479 51.5071 44.2846 51.5071C49.8227 51.5071 59.5145 48.0044 60.622 37.3656C60.8195 34.6446 59.5154 32.1685 57.4024 30.375C60.7605 32.111 63.0969 35.2654 62.8373 38.8432C61.7297 49.482 52.0379 52.9847 46.4999 52.9847C43.3098 52.9847 38.9032 51.8713 35.4651 49.1423Z" fill="#E83214"/>
<path d="M47.3306 27.8799C51.2072 24.8043 52.3149 28.2521 55.9146 28.7446C54.0959 29.0402 49.1684 29.2987 47.3306 27.8799Z" fill="#8ED918"/>
<path fill-rule="evenodd" clip-rule="evenodd" d="M46.188 27.8874C46.1858 27.5954 46.3249 27.3166 46.57 27.1222C47.6275 26.2832 48.6177 25.7899 49.6184 25.6458C50.6456 25.4978 51.5104 25.7424 52.2377 26.0661C52.5933 26.2243 52.9337 26.4095 53.2453 26.583C53.3119 26.6201 53.3771 26.6566 53.4412 26.6926C53.6895 26.8316 53.9233 26.9625 54.1713 27.0899C54.7798 27.4024 55.3842 27.6445 56.0884 27.7409C56.6398 27.8163 57.0493 28.2349 57.0571 28.731C57.0649 29.2271 56.6688 29.6557 56.12 29.7448C55.1247 29.9066 53.3499 30.0504 51.5722 29.9706C50.6803 29.9306 49.7542 29.833 48.9078 29.6401C48.0761 29.4506 47.2306 29.1489 46.5816 28.6479C46.3336 28.4565 46.1902 28.1794 46.188 27.8874ZM48.2593 27.2336C47.9674 27.4063 47.6589 27.62 47.3306 27.8805C47.6133 28.0988 47.9691 28.2773 48.3755 28.4222C49.7237 28.9027 51.6281 29.0121 53.2651 28.9684C54.3424 28.9396 55.3038 28.8445 55.9146 28.7452C54.9906 28.6188 54.2308 28.2977 53.5463 27.9421C53.2969 27.8126 53.0575 27.6786 52.8238 27.5477C51.4113 26.7565 50.2063 26.0816 48.2593 27.2336Z" fill="#436C02"/>
<path d="M46.4999 28.2525C44.2848 25.7898 41.7925 27.2674 37.0851 27.5137C39.0234 28.4988 44.3423 29.2537 46.4999 28.2525Z" fill="#8ED918"/>
<path fill-rule="evenodd" clip-rule="evenodd" d="M47.618 28.4629C47.6885 28.1656 47.6056 27.8559 47.3922 27.6187C46.732 26.8847 45.9986 26.3902 45.1535 26.1116C44.3237 25.8381 43.4765 25.803 42.6477 25.8545C41.9501 25.8977 41.1923 26.009 40.4238 26.1218C40.2984 26.1402 40.1728 26.1587 40.0471 26.1769C39.1267 26.3101 38.1349 26.4418 37.0181 26.5002C36.5134 26.5266 36.0882 26.8449 35.9728 27.2827C35.8574 27.7206 36.0793 28.1738 36.5183 28.3969C37.6836 28.9891 39.676 29.4454 41.581 29.6385C42.5539 29.7371 43.5552 29.7727 44.4753 29.7123C45.3765 29.6532 46.2908 29.4967 47.0285 29.1544C47.3314 29.0138 47.5476 28.7602 47.618 28.4629ZM45.6177 27.4814C45.9193 27.6797 46.212 27.9333 46.5 28.2534C46.1712 28.406 45.7691 28.5178 45.3167 28.5942C43.6931 28.8684 41.4222 28.687 39.5738 28.2995C38.5571 28.0864 37.6683 27.8109 37.0852 27.5146C38.0133 27.4661 38.8552 27.3697 39.6259 27.265C39.9702 27.2183 40.3003 27.1699 40.6175 27.1234C42.7235 26.8146 44.2611 26.5892 45.6177 27.4814Z" fill="#436C02"/>
<path d="M42.5986 32.0159C43.7368 33.5221 42.6 35.9741 40.0596 37.4925C37.5191 39.0108 34.537 39.0207 33.3988 37.5144C32.2606 36.0082 33.3973 33.5562 35.9378 32.0378C38.4783 30.5194 41.4604 30.5096 42.5986 32.0159Z" fill="#FE7B7B"/>
<path fill-rule="evenodd" clip-rule="evenodd" d="M37.881 33.2118C38.2514 33.6662 38.1376 34.3015 37.6267 34.631C37.2528 34.8721 36.9715 35.1538 36.7671 35.4779C36.4585 35.9674 35.7622 36.1417 35.2117 35.8673C34.6613 35.5928 34.4653 34.9735 34.7739 34.484C35.1477 33.8911 35.6567 33.391 36.2853 32.9857C36.7961 32.6562 37.5106 32.7575 37.881 33.2118Z" fill="white"/>
<path d="M56.5323 42.9097C56.1666 43.3511 55.4679 43.4453 54.9716 43.1201C54.4752 42.7949 54.3693 42.1735 54.735 41.7321C55.1006 41.2907 55.7994 41.1965 56.2957 41.5217C56.792 41.8469 56.8979 42.4683 56.5323 42.9097Z" fill="#BD1106"/>
<path d="M58.3039 46.1834C57.9382 46.6247 57.2395 46.7189 56.7432 46.3937C56.2469 46.0686 56.141 45.4471 56.5066 45.0057C56.8723 44.5643 57.571 44.4701 58.0673 44.7953C58.5636 45.1205 58.6696 45.742 58.3039 46.1834Z" fill="#BD1106"/>
<path d="M59.6338 42.8253C59.3596 43.1564 58.8355 43.227 58.4633 42.9831C58.091 42.7392 58.0116 42.2731 58.2858 41.9421C58.5601 41.611 59.0841 41.5404 59.4564 41.7843C59.8286 42.0282 59.908 42.4943 59.6338 42.8253Z" fill="#BD1106"/>
<path d="M55.4886 48.7558C55.123 49.1972 54.4242 49.2914 53.9279 48.9662C53.4316 48.641 53.3257 48.0195 53.6913 47.5781C54.057 47.1367 54.7557 47.0425 55.252 47.3677C55.7483 47.6929 55.8543 48.3144 55.4886 48.7558Z" fill="#BD1106"/>
<path d="M54.4167 45.5306C54.051 45.972 53.3523 46.0662 52.856 45.741C52.3596 45.4158 52.2537 44.7944 52.6194 44.353C52.985 43.9116 53.6838 43.8174 54.1801 44.1426C54.6764 44.4678 54.7823 45.0892 54.4167 45.5306Z" fill="#BD1106"/>
<path d="M51.3283 50.2337C50.9626 50.6751 50.2639 50.7693 49.7675 50.4441C49.2712 50.1189 49.1653 49.4974 49.531 49.056C49.8966 48.6146 50.5954 48.5204 51.0917 48.8456C51.588 49.1708 51.6939 49.7923 51.3283 50.2337Z" fill="#BD1106"/>
<path d="M50.8932 47.1071C50.5275 47.5485 49.8288 47.6427 49.3324 47.3175C48.8361 46.9923 48.7302 46.3708 49.0959 45.9295C49.4615 45.4881 50.1603 45.3939 50.6566 45.7191C51.1529 46.0443 51.2588 46.6657 50.8932 47.1071Z" fill="#BD1106"/>
<path d="M46.967 50.7636C46.6928 51.0946 46.1687 51.1653 45.7965 50.9214C45.4242 50.6775 45.3448 50.2114 45.619 49.8804C45.8933 49.5493 46.4173 49.4787 46.7896 49.7226C47.1618 49.9665 47.2412 50.4326 46.967 50.7636Z" fill="#BD1106"/>
</g>
<defs>
<filter id="filter0_d_212_3451" x="0" y="0" width="100" height="100" filterUnits="userSpaceOnUse" color-interpolation-filters="sRGB">
<feFlood flood-opacity="0" result="BackgroundImageFix"/>
<feColorMatrix in="SourceAlpha" type="matrix" values="0 0 0 0 0 0 0 0 0 0 0 0 0 0 0 0 0 0 127 0" result="hardAlpha"/>
<feOffset dx="4" dy="4"/>
<feColorMatrix type="matrix" values="0 0 0 0 0 0 0 0 0 0 0 0 0 0 0 0 0 0 0.2 0"/>
<feBlend mode="normal" in2="BackgroundImageFix" result="effect1_dropShadow_212_3451"/>
<feBlend mode="normal" in="SourceGraphic" in2="effect1_dropShadow_212_3451" result="shape"/>
</filter>
</defs>
</svg>
