<svg width="40" height="40" viewBox="0 0 40 40" fill="none" xmlns="http://www.w3.org/2000/svg">
<g filter="url(#filter0_d_255_2812)">
<path d="M21.6345 19.0786C16.9858 24.0256 12.5477 32.7725 7.94069 28.4433C3.33365 24.114 11.9632 19.3059 16.6119 14.3588C21.2607 9.41181 24.9084 7.80061 26.2954 9.10392C27.6823 10.4072 26.2832 14.1315 21.6345 19.0786Z" fill="#4CAA1F"/>
<path fill-rule="evenodd" clip-rule="evenodd" d="M11.5753 30.31C10.1281 30.6774 8.70162 30.3021 7.37002 29.0508C6.03805 27.7991 5.58189 26.4035 5.88199 24.9442C6.16299 23.5778 7.08543 22.2772 8.19082 21.0701C9.30952 19.8485 10.7176 18.617 12.1 17.4102L12.1492 17.3672C13.5313 16.1607 14.8895 14.9751 16.0046 13.7884C18.3632 11.2785 20.5121 9.56527 22.2952 8.64686C23.1852 8.18849 24.0285 7.90489 24.7895 7.84863C25.5621 7.79152 26.3041 7.96885 26.866 8.49684C27.4284 9.02528 27.6503 9.75469 27.6392 10.5288C27.6282 11.2907 27.3948 12.148 26.9904 13.0622C26.1801 14.894 24.5996 17.1403 22.2418 19.6494C21.1784 20.781 20.1221 22.1216 19.0443 23.4893C18.975 23.5774 18.9055 23.6656 18.8359 23.7538C17.6991 25.1955 16.5348 26.6567 15.3609 27.8293C14.2002 28.9887 12.9362 29.9645 11.5753 30.31ZM18.3965 22.9651C19.4675 21.6057 20.5452 20.2379 21.6345 19.0787C26.2832 14.1317 27.6823 10.4074 26.2954 9.10413C24.9084 7.80081 21.2607 9.41201 16.6119 14.359C15.4683 15.5761 14.0837 16.7847 12.7145 17.9799C8.51832 21.6428 4.46705 25.1793 7.94069 28.4435C11.4682 31.7583 14.8967 27.407 18.3965 22.9651Z" fill="#2B710A"/>
<path fill-rule="evenodd" clip-rule="evenodd" d="M17.7011 19.5393C18.6646 18.2944 19.6341 17.0417 20.6242 15.9881C23.4518 12.979 24.9112 10.4249 25.1517 8.67383C25.6227 8.68959 26.0077 8.83453 26.2954 9.1049C27.6824 10.4082 26.2833 14.1325 21.6346 19.0795C20.5453 20.2387 19.4676 21.6065 18.3966 22.9659C14.8967 27.4077 11.4683 31.7591 7.94077 28.4443C6.27972 26.8834 6.33934 25.2602 7.31267 23.5908C7.48817 23.8193 7.69672 24.0483 7.94077 24.2776C11.4683 27.5924 14.5526 23.6073 17.7011 19.5393Z" fill="#419C15"/>
<path d="M21.4583 11.042C22.0441 11.9958 18.6235 16.4587 14.9999 19.3753C12.7622 21.1765 8.74993 24.3753 8.5997 23.0009C8.12904 22.4551 12.7763 18.4627 14.7916 16.8753C19.1666 13.4294 20.5857 10.3291 21.4583 11.042Z" fill="#5FCF2A"/>
<path fill-rule="evenodd" clip-rule="evenodd" d="M13.0029 19.4969C13.1656 19.6596 13.1656 19.9234 13.0029 20.0861C12.373 20.7161 11.8481 21.1233 11.2085 21.6196C10.9799 21.797 10.7366 21.9858 10.4686 22.2002C10.2889 22.344 10.0267 22.3148 9.88299 22.1351C9.73923 21.9554 9.76837 21.6932 9.94806 21.5495C10.2386 21.3171 10.4936 21.1191 10.7274 20.9377C11.3511 20.4537 11.8234 20.0872 12.4137 19.4969C12.5764 19.3342 12.8402 19.3342 13.0029 19.4969Z" fill="#A0EA29"/>
<path d="M27.1267 23.9335C21.7218 28.0409 16.7903 36.156 12.1653 30.0701C7.54026 23.9841 16.6796 21.406 22.0845 17.2986C27.4894 13.1912 30.3457 13.3636 31.7381 15.1957C33.1304 17.0279 32.5315 19.826 27.1267 23.9335Z" fill="#58C923"/>
<path fill-rule="evenodd" clip-rule="evenodd" d="M15.6725 33.0891C14.1461 33.0497 12.7578 32.2269 11.5017 30.574C10.2455 28.9211 9.82456 27.3631 10.1954 25.8819C10.5529 24.4542 11.6036 23.2896 12.8409 22.2931C14.0873 21.2892 15.6465 20.3613 17.1794 19.4537C17.2167 19.4317 17.254 19.4096 17.2913 19.3876C18.8093 18.489 20.3063 17.603 21.5802 16.6348C24.3224 14.5509 26.5211 13.4687 28.2888 13.1959C29.1859 13.0575 29.9926 13.1245 30.7 13.3951C31.4102 13.6668 31.9711 14.1249 32.4014 14.6912C32.8318 15.2575 33.123 15.9206 33.1945 16.6776C33.2658 17.4316 33.1143 18.2268 32.7407 19.0541C32.0045 20.6841 30.373 22.5127 27.6308 24.5966C26.3568 25.5648 25.1022 26.7698 23.83 27.9917L23.7363 28.0817C22.4514 29.3157 21.1397 30.5693 19.8387 31.5014C18.5473 32.4266 17.1438 33.127 15.6725 33.0891ZM23.269 27.3751C24.5285 26.1653 25.8136 24.931 27.1266 23.9332C32.5314 19.8257 33.1303 17.0276 31.7379 15.1954C30.3456 13.3633 27.4893 13.1909 22.0844 17.2983C20.7714 18.2961 19.238 19.2037 17.7351 20.0932C13.0514 22.8653 8.66369 25.4623 12.1652 30.0698C15.6666 34.6773 19.3438 31.1453 23.269 27.3751Z" fill="#2B710A"/>
<path fill-rule="evenodd" clip-rule="evenodd" d="M22.4356 25.7096C23.6951 24.4999 24.9802 23.2655 26.2932 22.2677C30.4738 19.0907 31.779 16.697 31.5115 14.9277C31.5909 15.0128 31.6664 15.1025 31.7379 15.1967C33.1302 17.0288 32.5314 19.827 27.1265 23.9344C25.8135 24.9322 24.5285 26.1665 23.2689 27.3763C19.3437 31.1465 15.6666 34.6785 12.1651 30.071C11.616 29.3484 11.2609 28.6753 11.0706 28.0432C11.1522 28.1622 11.2392 28.2826 11.3318 28.4044C14.8332 33.0118 18.5104 29.4799 22.4356 25.7096Z" fill="#4CAA1F"/>
<path d="M25.8725 17.5877C26.4582 18.5416 18.7499 23.9582 18.7499 23.9582C18.7499 23.9582 12.4036 27.713 11.933 27.1672C11.4623 26.6213 14.3572 23.7295 16.6666 22.6125C22.7475 19.6711 24.9999 16.8749 25.8725 17.5877Z" fill="#79E645"/>
<path d="M19.074 20.4004C19.074 20.6976 18.833 20.9386 18.5358 20.9386C18.2386 20.9386 17.9976 20.6976 17.9976 20.4004C17.9976 20.1032 18.2386 19.8622 18.5358 19.8622C18.833 19.8622 19.074 20.1032 19.074 20.4004Z" fill="#47A21D"/>
<path d="M22.662 18.9652C22.662 19.2624 22.421 19.5034 22.1238 19.5034C21.8265 19.5034 21.5856 19.2624 21.5856 18.9652C21.5856 18.668 21.8265 18.427 22.1238 18.427C22.421 18.427 22.662 18.668 22.662 18.9652Z" fill="#47A21D"/>
<path d="M24.8147 16.8124C24.8147 17.1097 24.5738 17.3506 24.2765 17.3506C23.9793 17.3506 23.7383 17.1097 23.7383 16.8124C23.7383 16.5152 23.9793 16.2742 24.2765 16.2742C24.5738 16.2742 24.8147 16.5152 24.8147 16.8124Z" fill="#47A21D"/>
<path d="M15.8448 23.2708C15.8448 23.568 15.6039 23.809 15.3066 23.809C15.0094 23.809 14.7684 23.568 14.7684 23.2708C14.7684 22.9735 15.0094 22.7326 15.3066 22.7326C15.6039 22.7326 15.8448 22.9735 15.8448 23.2708Z" fill="#47A21D"/>
<path d="M20.868 19.1446C20.868 19.3428 20.7073 19.5034 20.5092 19.5034C20.311 19.5034 20.1504 19.3428 20.1504 19.1446C20.1504 18.9464 20.311 18.7858 20.5092 18.7858C20.7073 18.7858 20.868 18.9464 20.868 19.1446Z" fill="#47A21D"/>
<path d="M20.1504 20.9386C20.1504 21.1367 19.9897 21.2974 19.7916 21.2974C19.5934 21.2974 19.4328 21.1367 19.4328 20.9386C19.4328 20.7404 19.5934 20.5798 19.7916 20.5798C19.9897 20.5798 20.1504 20.7404 20.1504 20.9386Z" fill="#47A21D"/>
<path d="M23.3795 17.3506C23.3795 17.5488 23.2189 17.7094 23.0208 17.7094C22.8226 17.7094 22.662 17.5488 22.662 17.3506C22.662 17.1525 22.8226 16.9918 23.0208 16.9918C23.2189 16.9918 23.3795 17.1525 23.3795 17.3506Z" fill="#47A21D"/>
<path d="M26.2499 15.9154C26.2499 16.1136 26.0893 16.2742 25.8911 16.2742C25.693 16.2742 25.5323 16.1136 25.5323 15.9154C25.5323 15.7173 25.693 15.5566 25.8911 15.5566C26.0893 15.5566 26.2499 15.7173 26.2499 15.9154Z" fill="#47A21D"/>
<path d="M14.0508 23.809C14.0508 24.0071 13.8902 24.1677 13.692 24.1677C13.4939 24.1677 13.3333 24.0071 13.3333 23.809C13.3333 23.6108 13.4939 23.4502 13.692 23.4502C13.8902 23.4502 14.0508 23.6108 14.0508 23.809Z" fill="#47A21D"/>
<path d="M16.5624 22.015C16.5624 22.2131 16.4018 22.3738 16.2036 22.3738C16.0055 22.3738 15.8448 22.2131 15.8448 22.015C15.8448 21.8168 16.0055 21.6562 16.2036 21.6562C16.4018 21.6562 16.5624 21.8168 16.5624 22.015Z" fill="#47A21D"/>
<path d="M18.3564 21.6562C18.3564 22.0525 18.0351 22.3738 17.6388 22.3738C17.2425 22.3738 16.9212 22.0525 16.9212 21.6562C16.9212 21.2599 17.2425 20.9386 17.6388 20.9386C18.0351 20.9386 18.3564 21.2599 18.3564 21.6562Z" fill="#47A21D"/>
<path d="M21.25 26.4583C21.25 26.8035 20.9702 27.0833 20.625 27.0833C20.2798 27.0833 20 26.8035 20 26.4583C20 26.1132 20.2798 25.8333 20.625 25.8333C20.9702 25.8333 21.25 26.1132 21.25 26.4583Z" fill="#79E745"/>
<path d="M18.75 30.625C18.75 30.9702 18.4702 31.25 18.125 31.25C17.7798 31.25 17.5 30.9702 17.5 30.625C17.5 30.2798 17.7798 30 18.125 30C18.4702 30 18.75 30.2798 18.75 30.625Z" fill="#79E745"/>
<path d="M25.4167 24.375C25.4167 24.7202 25.1368 25 24.7917 25C24.4465 25 24.1667 24.7202 24.1667 24.375C24.1667 24.0298 24.4465 23.75 24.7917 23.75C25.1368 23.75 25.4167 24.0298 25.4167 24.375Z" fill="#79E745"/>
<path d="M30 20.625C30 20.9702 29.7202 21.25 29.375 21.25C29.0298 21.25 28.75 20.9702 28.75 20.625C28.75 20.2798 29.0298 20 29.375 20C29.7202 20 30 20.2798 30 20.625Z" fill="#79E745"/>
<path d="M22.5 27.0833C22.5 27.3135 22.3135 27.5 22.0833 27.5C21.8532 27.5 21.6667 27.3135 21.6667 27.0833C21.6667 26.8532 21.8532 26.6667 22.0833 26.6667C22.3135 26.6667 22.5 26.8532 22.5 27.0833Z" fill="#79E745"/>
<path d="M26.6667 23.3333C26.6667 23.5635 26.4801 23.75 26.25 23.75C26.0199 23.75 25.8333 23.5635 25.8333 23.3333C25.8333 23.1032 26.0199 22.9167 26.25 22.9167C26.4801 22.9167 26.6667 23.1032 26.6667 23.3333Z" fill="#79E745"/>
<path d="M24.1667 25.4167C24.1667 25.8769 23.7936 26.25 23.3333 26.25C22.8731 26.25 22.5 25.8769 22.5 25.4167C22.5 24.9564 22.8731 24.5833 23.3333 24.5833C23.7936 24.5833 24.1667 24.9564 24.1667 25.4167Z" fill="#79E745"/>
<path d="M27.9167 22.0833C27.9167 22.5436 27.5436 22.9167 27.0833 22.9167C26.6231 22.9167 26.25 22.5436 26.25 22.0833C26.25 21.6231 26.6231 21.25 27.0833 21.25C27.5436 21.25 27.9167 21.6231 27.9167 22.0833Z" fill="#79E745"/>
<path d="M20.4167 28.75C20.4167 29.2102 20.0436 29.5833 19.5833 29.5833C19.1231 29.5833 18.75 29.2102 18.75 28.75C18.75 28.2898 19.1231 27.9167 19.5833 27.9167C20.0436 27.9167 20.4167 28.2898 20.4167 28.75Z" fill="#79E745"/>
<path fill-rule="evenodd" clip-rule="evenodd" d="M19.3168 22.0846C19.4542 22.2692 19.4158 22.5302 19.2312 22.6676C18.7119 23.0539 17.7888 23.5816 16.8904 24.0951C16.8225 24.134 16.7547 24.1727 16.6872 24.2113C15.6965 24.7782 14.7866 25.3077 14.3773 25.6514C14.2011 25.7994 13.9382 25.7765 13.7903 25.6002C13.6423 25.424 13.6652 25.1612 13.8414 25.0132C14.3228 24.6091 15.3166 24.0355 16.2733 23.488C16.3326 23.4541 16.3919 23.4202 16.4509 23.3865C17.3754 22.8578 18.2571 22.3536 18.7338 21.999C18.9184 21.8616 19.1794 21.9 19.3168 22.0846Z" fill="white"/>
</g>
<defs>
<filter id="filter0_d_255_2812" x="0" y="0" width="44" height="44" filterUnits="userSpaceOnUse" color-interpolation-filters="sRGB">
<feFlood flood-opacity="0" result="BackgroundImageFix"/>
<feColorMatrix in="SourceAlpha" type="matrix" values="0 0 0 0 0 0 0 0 0 0 0 0 0 0 0 0 0 0 127 0" result="hardAlpha"/>
<feOffset dx="4" dy="4"/>
<feColorMatrix type="matrix" values="0 0 0 0 0 0 0 0 0 0 0 0 0 0 0 0 0 0 0.2 0"/>
<feBlend mode="normal" in2="BackgroundImageFix" result="effect1_dropShadow_255_2812"/>
<feBlend mode="normal" in="SourceGraphic" in2="effect1_dropShadow_255_2812" result="shape"/>
</filter>
</defs>
</svg>
