<svg width="29" height="18" viewBox="0 0 29 18" fill="none" xmlns="http://www.w3.org/2000/svg">
<path d="M23.7256 8.22968C23.4936 6.33262 22.5582 4.56337 21.0727 3.21201C19.5873 1.86065 17.64 1.00736 15.55 0.792041C13.46 0.576725 11.3515 1.01216 9.57001 2.02695C7.78853 3.04175 6.43987 4.57568 5.74514 6.37727C4.15317 6.49551 2.67331 7.16797 1.61534 8.25388C0.557364 9.3398 0.00329112 10.755 0.0691002 12.2032C0.134909 13.6514 0.815499 15.0204 1.9684 16.0236C3.12131 17.0268 4.65715 17.5864 6.25445 17.5853H23.7812C25.1484 17.5853 26.4596 17.0925 27.4263 16.2152C28.3931 15.3379 28.9362 14.1481 28.9362 12.9075C28.9362 11.6669 28.3931 10.477 27.4263 9.59978C26.4596 8.72252 25.1484 8.22968 23.7812 8.22968H23.7256Z" fill="white"/>
</svg>
