<svg width="30" height="28" viewBox="0 0 30 28" fill="none" xmlns="http://www.w3.org/2000/svg">
<path d="M10.1365 8.15499C10.1365 4.35946 6.2124 1.93032 6.04509 1.8337C5.79357 1.67943 5.49693 1.59699 5.19335 1.59699C4.88976 1.59699 4.59312 1.67943 4.3416 1.8337C4.17429 1.94412 0.250183 4.35946 0.250183 8.15499C0.250183 9.34466 0.770979 10.4856 1.698 11.3268C2.62503 12.168 3.88234 12.6406 5.19335 12.6406C6.50436 12.6406 7.76167 12.168 8.68869 11.3268C9.61572 10.4856 10.1365 9.34466 10.1365 8.15499ZM5.19335 9.88023C4.68911 9.88023 4.20553 9.69847 3.84898 9.37492C3.49244 9.05138 3.29213 8.61255 3.29213 8.15499C3.41729 6.8464 4.09924 5.63351 5.19335 4.77352C6.29398 5.62885 6.97738 6.84433 7.09456 8.15499C7.09456 8.61255 6.89426 9.05138 6.53771 9.37492C6.18116 9.69847 5.69758 9.88023 5.19335 9.88023ZM14.4104 11.4951C14.1589 11.3408 13.8623 11.2583 13.5587 11.2583C13.2551 11.2583 12.9585 11.3408 12.707 11.4951C12.4484 11.6607 6.33408 15.4976 6.33408 21.2668C6.33408 23.0056 7.09524 24.6731 8.45012 25.9026C9.805 27.132 11.6426 27.8228 13.5587 27.8228C15.4748 27.8228 17.3124 27.132 18.6673 25.9026C20.0222 24.6731 20.7833 23.0056 20.7833 21.2668C20.7833 15.401 14.6994 11.6469 14.4104 11.4951ZM13.5587 25.0624C13.0094 25.0624 12.4655 24.9642 11.9581 24.7734C11.4506 24.5827 10.9895 24.3031 10.6011 23.9507C10.2127 23.5982 9.90461 23.1798 9.69441 22.7193C9.48421 22.2588 9.37602 21.7653 9.37602 21.2668C9.37602 18.0786 12.129 15.5114 13.5739 14.3659C15.0036 15.4562 17.7414 17.9958 17.7414 21.2668C17.7414 21.7653 17.6332 22.2588 17.423 22.7193C17.2128 23.1798 16.9047 23.5982 16.5163 23.9507C16.1279 24.3031 15.6668 24.5827 15.1593 24.7734C14.6519 24.9642 14.108 25.0624 13.5587 25.0624ZM23.9165 0.45351C23.665 0.299238 23.3684 0.216797 23.0648 0.216797C22.7612 0.216797 22.4646 0.299238 22.213 0.45351C22.0001 0.59153 16.9809 3.73837 16.9809 8.50004C16.9809 9.96424 17.6219 11.3685 18.7628 12.4038C19.9038 13.4392 21.4512 14.0208 23.0648 14.0208C24.6783 14.0208 26.2258 13.4392 27.3667 12.4038C28.5077 11.3685 29.1487 9.96424 29.1487 8.50004C29.1487 3.68316 24.1295 0.577728 23.9165 0.45351ZM23.0648 11.2604C22.258 11.2604 21.4843 10.9696 20.9138 10.4519C20.3433 9.93426 20.0228 9.23214 20.0228 8.50004C20.1271 7.50343 20.4499 6.53579 20.9723 5.65406C21.4947 4.77232 22.2062 3.99428 23.0648 3.36572C23.9266 3.9916 24.6403 4.76898 25.163 5.65125C25.6857 6.53351 26.0067 7.50247 26.1067 8.50004C26.1067 9.23214 25.7862 9.93426 25.2158 10.4519C24.6453 10.9696 23.8716 11.2604 23.0648 11.2604Z" fill="white"/>
</svg>
