<svg width="30" height="18" viewBox="0 0 30 18" fill="none" xmlns="http://www.w3.org/2000/svg">
<path d="M24.5164 8.22968C24.2844 6.33262 23.349 4.56337 21.8636 3.21201C20.3781 1.86065 18.4308 1.00736 16.3408 0.792041C14.2509 0.576725 12.1423 1.01216 10.3608 2.02695C8.57936 3.04175 7.2307 4.57568 6.53597 6.37727C4.944 6.49551 3.46414 7.16797 2.40617 8.25388C1.3482 9.3398 0.794124 10.755 0.859933 12.2032C0.925742 13.6514 1.60633 15.0204 2.75924 16.0236C3.91214 17.0268 5.44798 17.5864 7.04527 17.5853H24.5721C25.9392 17.5853 27.2504 17.0925 28.2171 16.2152C29.1839 15.3379 29.727 14.1481 29.727 12.9075C29.727 11.6669 29.1839 10.477 28.2171 9.59978C27.2504 8.72252 25.9392 8.22968 24.5721 8.22968H24.5164Z" fill="white"/>
</svg>
