<svg width="113" height="103" viewBox="0 0 113 103" fill="none" xmlns="http://www.w3.org/2000/svg">
<path d="M56.6995 76.745C64.1541 76.745 71.3034 74.0577 76.5746 69.2744C81.8459 64.4911 84.8072 58.0035 84.8072 51.2388C84.8072 44.4742 81.8459 37.9866 76.5746 33.2033C71.3034 28.4199 64.1541 25.7327 56.6995 25.7327C49.2449 25.7327 42.0956 28.4199 36.8243 33.2033C31.5531 37.9866 28.5918 44.4742 28.5918 51.2388C28.5918 58.0035 31.5531 64.4911 36.8243 69.2744C42.0956 74.0577 49.2449 76.745 56.6995 76.745ZM56.6995 0.226562C57.6313 0.226563 58.525 0.562468 59.1839 1.16038C59.8428 1.7583 60.213 2.56925 60.213 3.41483V16.1679C60.213 17.0135 59.8428 17.8244 59.1839 18.4223C58.525 19.0203 57.6313 19.3562 56.6995 19.3562C55.7677 19.3562 54.874 19.0203 54.2151 18.4223C53.5562 17.8244 53.186 17.0135 53.186 16.1679V3.41483C53.186 2.56925 53.5562 1.7583 54.2151 1.16038C54.874 0.562468 55.7677 0.226563 56.6995 0.226563V0.226562ZM56.6995 83.1215C57.6313 83.1215 58.525 83.4574 59.1839 84.0553C59.8428 84.6533 60.213 85.4642 60.213 86.3098V99.0629C60.213 99.9084 59.8428 100.719 59.1839 101.317C58.525 101.915 57.6313 102.251 56.6995 102.251C55.7677 102.251 54.874 101.915 54.2151 101.317C53.5562 100.719 53.186 99.9084 53.186 99.0629V86.3098C53.186 85.4642 53.5562 84.6533 54.2151 84.0553C54.874 83.4574 55.7677 83.1215 56.6995 83.1215ZM112.915 51.2388C112.915 52.0844 112.545 52.8954 111.886 53.4933C111.227 54.0912 110.333 54.4271 109.401 54.4271H95.3476C94.4158 54.4271 93.5221 54.0912 92.8632 53.4933C92.2043 52.8954 91.8341 52.0844 91.8341 51.2388C91.8341 50.3933 92.2043 49.5823 92.8632 48.9844C93.5221 48.3865 94.4158 48.0506 95.3476 48.0506H109.401C110.333 48.0506 111.227 48.3865 111.886 48.9844C112.545 49.5823 112.915 50.3933 112.915 51.2388ZM21.5649 51.2388C21.5649 52.0844 21.1947 52.8954 20.5358 53.4933C19.8769 54.0912 18.9832 54.4271 18.0514 54.4271H3.99753C3.06571 54.4271 2.17204 54.0912 1.51314 53.4933C0.854237 52.8954 0.48407 52.0844 0.48407 51.2388C0.48407 50.3933 0.854237 49.5823 1.51314 48.9844C2.17204 48.3865 3.06571 48.0506 3.99753 48.0506H18.0514C18.9832 48.0506 19.8769 48.3865 20.5358 48.9844C21.1947 49.5823 21.5649 50.3933 21.5649 51.2388ZM96.4508 15.1668C97.1095 15.7647 97.4795 16.5755 97.4795 17.4209C97.4795 18.2663 97.1095 19.0771 96.4508 19.675L86.5147 28.6978C86.1881 28.9938 85.8004 29.2285 85.3737 29.3886C84.9471 29.5486 84.4899 29.6308 84.0282 29.6305C83.0959 29.6299 82.202 29.2933 81.5432 28.6946C81.217 28.3982 80.9583 28.0463 80.782 27.6592C80.6056 27.272 80.515 26.8572 80.5153 26.4382C80.516 25.5922 80.887 24.781 81.5467 24.1832L91.4828 15.1668C92.1417 14.5691 93.0352 14.2333 93.9668 14.2333C94.8985 14.2333 95.7919 14.5691 96.4508 15.1668ZM31.8523 73.7863C32.511 74.3842 32.881 75.195 32.881 76.0404C32.881 76.8858 32.511 77.6966 31.8523 78.2945L21.9162 87.3109C21.2536 87.8917 20.366 88.213 19.4448 88.2058C18.5236 88.1985 17.6424 87.8632 16.991 87.2721C16.3395 86.6809 15.97 85.8813 15.962 85.0453C15.954 84.2094 16.3082 83.404 16.9482 82.8027L26.8842 73.7863C27.5431 73.1886 28.4366 72.8528 29.3683 72.8528C30.2999 72.8528 31.1934 73.1886 31.8523 73.7863ZM96.4508 87.3109C95.7919 87.9086 94.8985 88.2444 93.9668 88.2444C93.0352 88.2444 92.1417 87.9086 91.4828 87.3109L81.5467 78.2945C80.9067 77.6932 80.5526 76.8878 80.5606 76.0518C80.5686 75.2159 80.9381 74.4162 81.5895 73.8251C82.2409 73.234 83.1222 72.8987 84.0434 72.8914C84.9646 72.8841 85.8521 73.2055 86.5147 73.7863L96.4508 82.8027C97.1095 83.4006 97.4795 84.2114 97.4795 85.0568C97.4795 85.9022 97.1095 86.713 96.4508 87.3109ZM31.8523 28.6978C31.1934 29.2955 30.2999 29.6313 29.3683 29.6313C28.4366 29.6313 27.5431 29.2955 26.8842 28.6978L16.9482 19.675C16.6126 19.3809 16.3449 19.0291 16.1608 18.6401C15.9767 18.2511 15.8797 17.8328 15.8757 17.4094C15.8716 16.9861 15.9605 16.5662 16.1372 16.1744C16.3138 15.7826 16.5747 15.4266 16.9046 15.1273C17.2345 14.8279 17.6268 14.5912 18.0586 14.4309C18.4904 14.2706 18.953 14.1899 19.4195 14.1936C19.8861 14.1972 20.3471 14.2852 20.7757 14.4523C21.2044 14.6194 21.5921 14.8623 21.9162 15.1668L31.8523 24.1832C32.1795 24.4794 32.4391 24.8312 32.6162 25.2185C32.7933 25.6059 32.8845 26.0211 32.8845 26.4405C32.8845 26.8599 32.7933 27.2751 32.6162 27.6625C32.4391 28.0498 32.1795 28.4016 31.8523 28.6978Z" fill="white"/>
</svg>
