<svg width="30" height="27" viewBox="0 0 30 27" fill="none" xmlns="http://www.w3.org/2000/svg">
<path d="M15.0816 19.7125C16.9959 19.7125 18.8319 19.0224 20.1855 17.794C21.5392 16.5657 22.2996 14.8996 22.2996 13.1625C22.2996 11.4253 21.5392 9.7593 20.1855 8.53093C18.8319 7.30257 16.9959 6.61249 15.0816 6.61249C13.1672 6.61249 11.3313 7.30257 9.9776 8.53093C8.62395 9.7593 7.86347 11.4253 7.86347 13.1625C7.86347 14.8996 8.62395 16.5657 9.9776 17.794C11.3313 19.0224 13.1672 19.7125 15.0816 19.7125ZM15.0816 0.0625C15.3209 0.0625 15.5503 0.148761 15.7196 0.302306C15.8888 0.455851 15.9838 0.664103 15.9838 0.881248V4.15624C15.9838 4.37339 15.8888 4.58164 15.7196 4.73518C15.5503 4.88873 15.3209 4.97499 15.0816 4.97499C14.8423 4.97499 14.6128 4.88873 14.4436 4.73518C14.2744 4.58164 14.1793 4.37339 14.1793 4.15624V0.881248C14.1793 0.664103 14.2744 0.455851 14.4436 0.302306C14.6128 0.148761 14.8423 0.0625 15.0816 0.0625V0.0625ZM15.0816 21.35C15.3209 21.35 15.5503 21.4362 15.7196 21.5898C15.8888 21.7433 15.9838 21.9516 15.9838 22.1687V25.4437C15.9838 25.6608 15.8888 25.8691 15.7196 26.0226C15.5503 26.1762 15.3209 26.2625 15.0816 26.2625C14.8423 26.2625 14.6128 26.1762 14.4436 26.0226C14.2744 25.8691 14.1793 25.6608 14.1793 25.4437V22.1687C14.1793 21.9516 14.2744 21.7433 14.4436 21.5898C14.6128 21.4362 14.8423 21.35 15.0816 21.35ZM29.5177 13.1625C29.5177 13.3796 29.4227 13.5879 29.2535 13.7414C29.0843 13.895 28.8548 13.9812 28.6155 13.9812H25.0064C24.7671 13.9812 24.5376 13.895 24.3684 13.7414C24.1992 13.5879 24.1042 13.3796 24.1042 13.1625C24.1042 12.9453 24.1992 12.7371 24.3684 12.5835C24.5376 12.43 24.7671 12.3437 25.0064 12.3437H28.6155C28.8548 12.3437 29.0843 12.43 29.2535 12.5835C29.4227 12.7371 29.5177 12.9453 29.5177 13.1625ZM6.05895 13.1625C6.05895 13.3796 5.96389 13.5879 5.79468 13.7414C5.62548 13.895 5.39598 13.9812 5.15669 13.9812H1.54765C1.30835 13.9812 1.07886 13.895 0.909652 13.7414C0.740445 13.5879 0.645386 13.3796 0.645386 13.1625C0.645386 12.9453 0.740445 12.7371 0.909652 12.5835C1.07886 12.43 1.30835 12.3437 1.54765 12.3437H5.15669C5.39598 12.3437 5.62548 12.43 5.79468 12.5835C5.96389 12.7371 6.05895 12.9453 6.05895 13.1625ZM25.2897 3.89916C25.4589 4.05269 25.5539 4.26091 25.5539 4.47801C25.5539 4.69511 25.4589 4.90333 25.2897 5.05687L22.7381 7.37392C22.6543 7.44994 22.5547 7.51022 22.4451 7.55132C22.3356 7.59242 22.2182 7.61353 22.0996 7.61345C21.8602 7.6133 21.6306 7.52684 21.4614 7.37311C21.3777 7.29698 21.3112 7.20663 21.266 7.10721C21.2207 7.00779 21.1974 6.90125 21.1975 6.79367C21.1977 6.5764 21.2929 6.3681 21.4623 6.21458L24.0139 3.89916C24.1831 3.74566 24.4126 3.65944 24.6518 3.65944C24.8911 3.65944 25.1205 3.74566 25.2897 3.89916ZM8.70077 18.9527C8.86992 19.1062 8.96494 19.3144 8.96494 19.5315C8.96494 19.7486 8.86992 19.9568 8.70077 20.1104L6.14918 22.4258C5.97901 22.5749 5.7511 22.6575 5.51453 22.6556C5.27796 22.6537 5.05166 22.5676 4.88437 22.4158C4.71708 22.264 4.62219 22.0587 4.62014 21.844C4.61808 21.6293 4.70903 21.4225 4.87338 21.2681L7.42497 18.9527C7.59417 18.7992 7.82362 18.7129 8.06287 18.7129C8.30212 18.7129 8.53157 18.7992 8.70077 18.9527ZM25.2897 22.4258C25.1205 22.5793 24.8911 22.6655 24.6518 22.6655C24.4126 22.6655 24.1831 22.5793 24.0139 22.4258L21.4623 20.1104C21.298 19.956 21.2071 19.7491 21.2091 19.5345C21.2112 19.3198 21.306 19.1144 21.4733 18.9626C21.6406 18.8108 21.8669 18.7247 22.1035 18.7229C22.3401 18.721 22.568 18.8035 22.7381 18.9527L25.2897 21.2681C25.4589 21.4216 25.5539 21.6298 25.5539 21.8469C25.5539 22.064 25.4589 22.2723 25.2897 22.4258ZM8.70077 7.37392C8.53157 7.52742 8.30212 7.61364 8.06287 7.61364C7.82362 7.61364 7.59417 7.52742 7.42497 7.37392L4.87338 5.05687C4.7872 4.98134 4.71847 4.89099 4.67118 4.7911C4.6239 4.69121 4.59901 4.58378 4.59796 4.47506C4.59692 4.36635 4.61975 4.25854 4.66512 4.15792C4.71048 4.0573 4.77748 3.96588 4.8622 3.88901C4.94691 3.81213 5.04765 3.75134 5.15854 3.71017C5.26942 3.669 5.38823 3.64829 5.50803 3.64923C5.62783 3.65018 5.74623 3.67276 5.85631 3.71567C5.96639 3.75858 6.06595 3.82096 6.14918 3.89916L8.70077 6.21458C8.78479 6.29063 8.85146 6.38098 8.89694 6.48045C8.94243 6.57992 8.96584 6.68656 8.96584 6.79425C8.96584 6.90194 8.94243 7.00858 8.89694 7.10805C8.85146 7.20752 8.78479 7.29787 8.70077 7.37392Z" fill="white"/>
</svg>
