<svg width="16" height="17" viewBox="0 0 16 17" fill="none" xmlns="http://www.w3.org/2000/svg">
<path d="M7.64251 0.693399L7.86861 0.697171C11.9233 0.818573 15.1626 3.85503 15.1489 7.57052L15.1487 7.6528C15.1026 9.8691 13.8805 12.0514 11.853 13.9989C10.8528 14.9444 9.73584 15.7814 8.5244 16.4932L8.53323 16.4873L8.49053 16.5202C8.00626 16.8359 7.36452 16.8585 6.85775 16.5878L6.74333 16.5202L6.68988 16.4821L6.32352 16.2583C4.80193 15.3064 3.4468 14.1516 2.30648 12.8359L2.02591 12.5036C0.83125 11.0828 0.152967 9.35836 0.085083 7.5493L0.0891838 7.32021C0.222515 3.62942 3.55842 0.680849 7.64251 0.693399ZM7.63796 1.91358L7.42511 1.91619C4.10386 2.00807 1.43692 4.48245 1.42555 7.52808L1.44246 7.81515C1.55758 9.24684 2.12949 10.6193 3.09463 11.7671C4.29282 13.2236 5.76323 14.4768 7.43859 15.4694L7.51144 15.5193C7.57201 15.567 7.66185 15.567 7.72242 15.5193L7.79737 15.4682C8.922 14.8073 9.95891 14.0303 10.8837 13.1561C12.6974 11.4139 13.7696 9.49936 13.8084 7.64125L13.8055 7.37469C13.7046 4.35155 10.9861 1.92397 7.63796 1.91358ZM7.61693 5.0365C9.20164 5.0365 10.4863 6.20585 10.4863 7.64832C10.4863 9.09079 9.20164 10.2601 7.61693 10.2601C6.03222 10.2601 4.74756 9.09079 4.74756 7.64832C4.74756 6.20585 6.03222 5.0365 7.61693 5.0365ZM7.61693 6.25665C6.77254 6.25665 6.08803 6.87972 6.08803 7.64832C6.08803 8.41692 6.77254 9.04 7.61693 9.04C8.46132 9.04 9.14584 8.41692 9.14584 7.64832C9.14584 6.87972 8.46132 6.25665 7.61693 6.25665Z" fill="white"/>
</svg>
