<svg width="17" height="16" viewBox="0 0 17 16" fill="none" xmlns="http://www.w3.org/2000/svg">
<path d="M8.41143 2.58286L9.98857 5.77143L10.2514 6.34286L10.8229 6.42857L14.3429 6.93714L11.84 9.39429L11.4114 9.81143L11.5143 10.3829L12.1143 13.8857L8.96571 12.2343L8.41143 12L7.88 12.28L4.73143 13.9086L5.30286 10.4057L5.40571 9.83429L4.98286 9.39429L2.45714 6.90857L5.97714 6.4L6.54857 6.31429L6.81143 5.74286L8.41143 2.58286ZM8.41143 0L5.81143 5.26857L0 6.10857L4.20571 10.2114L3.21143 16L8.41143 13.2686L13.6114 16L12.6171 10.2114L16.8229 6.11429L11.0114 5.26857L8.41143 0Z" fill="#343A40"/>
</svg>
