<svg width="29" height="27" viewBox="0 0 29 27" fill="none" xmlns="http://www.w3.org/2000/svg">
<path d="M14.5213 19.7125C16.4356 19.7125 18.2716 19.0224 19.6252 17.794C20.9789 16.5657 21.7393 14.8996 21.7393 13.1625C21.7393 11.4253 20.9789 9.7593 19.6252 8.53093C18.2716 7.30257 16.4356 6.61249 14.5213 6.61249C12.6069 6.61249 10.771 7.30257 9.4173 8.53093C8.06364 9.7593 7.30317 11.4253 7.30317 13.1625C7.30317 14.8996 8.06364 16.5657 9.4173 17.794C10.771 19.0224 12.6069 19.7125 14.5213 19.7125ZM14.5213 0.0625C14.7605 0.0625 14.99 0.148761 15.1593 0.302306C15.3285 0.455851 15.4235 0.664103 15.4235 0.881248V4.15624C15.4235 4.37339 15.3285 4.58164 15.1593 4.73518C14.99 4.88873 14.7605 4.97499 14.5213 4.97499C14.282 4.97499 14.0525 4.88873 13.8833 4.73518C13.7141 4.58164 13.619 4.37339 13.619 4.15624V0.881248C13.619 0.664103 13.7141 0.455851 13.8833 0.302306C14.0525 0.148761 14.282 0.0625 14.5213 0.0625V0.0625ZM14.5213 21.35C14.7605 21.35 14.99 21.4362 15.1593 21.5898C15.3285 21.7433 15.4235 21.9516 15.4235 22.1687V25.4437C15.4235 25.6608 15.3285 25.8691 15.1593 26.0226C14.99 26.1762 14.7605 26.2625 14.5213 26.2625C14.282 26.2625 14.0525 26.1762 13.8833 26.0226C13.7141 25.8691 13.619 25.6608 13.619 25.4437V22.1687C13.619 21.9516 13.7141 21.7433 13.8833 21.5898C14.0525 21.4362 14.282 21.35 14.5213 21.35ZM28.9574 13.1625C28.9574 13.3796 28.8624 13.5879 28.6932 13.7414C28.524 13.895 28.2945 13.9812 28.0552 13.9812H24.4461C24.2068 13.9812 23.9773 13.895 23.8081 13.7414C23.6389 13.5879 23.5439 13.3796 23.5439 13.1625C23.5439 12.9453 23.6389 12.7371 23.8081 12.5835C23.9773 12.43 24.2068 12.3437 24.4461 12.3437H28.0552C28.2945 12.3437 28.524 12.43 28.6932 12.5835C28.8624 12.7371 28.9574 12.9453 28.9574 13.1625ZM5.49865 13.1625C5.49865 13.3796 5.40359 13.5879 5.23438 13.7414C5.06517 13.895 4.83568 13.9812 4.59639 13.9812H0.987344C0.748049 13.9812 0.518556 13.895 0.349349 13.7414C0.180142 13.5879 0.085083 13.3796 0.085083 13.1625C0.085083 12.9453 0.180142 12.7371 0.349349 12.5835C0.518556 12.43 0.748049 12.3437 0.987344 12.3437H4.59639C4.83568 12.3437 5.06517 12.43 5.23438 12.5835C5.40359 12.7371 5.49865 12.9453 5.49865 13.1625ZM24.7294 3.89916C24.8986 4.05269 24.9936 4.26091 24.9936 4.47801C24.9936 4.69511 24.8986 4.90333 24.7294 5.05687L22.1778 7.37392C22.094 7.44994 21.9944 7.51022 21.8848 7.55132C21.7753 7.59242 21.6579 7.61353 21.5393 7.61345C21.2999 7.6133 21.0703 7.52684 20.9011 7.37311C20.8174 7.29698 20.7509 7.20663 20.7057 7.10721C20.6604 7.00779 20.6371 6.90125 20.6372 6.79367C20.6373 6.5764 20.7326 6.3681 20.902 6.21458L23.4536 3.89916C23.6228 3.74566 23.8523 3.65944 24.0915 3.65944C24.3308 3.65944 24.5602 3.74566 24.7294 3.89916ZM8.14047 18.9527C8.30962 19.1062 8.40464 19.3144 8.40464 19.5315C8.40464 19.7486 8.30962 19.9568 8.14047 20.1104L5.58887 22.4258C5.4187 22.5749 5.19079 22.6575 4.95422 22.6556C4.71765 22.6537 4.49135 22.5676 4.32407 22.4158C4.15678 22.264 4.06189 22.0587 4.05984 21.844C4.05778 21.6293 4.14872 21.4225 4.31308 21.2681L6.86467 18.9527C7.03387 18.7992 7.26332 18.7129 7.50257 18.7129C7.74182 18.7129 7.97127 18.7992 8.14047 18.9527ZM24.7294 22.4258C24.5602 22.5793 24.3308 22.6655 24.0915 22.6655C23.8523 22.6655 23.6228 22.5793 23.4536 22.4258L20.902 20.1104C20.7377 19.956 20.6467 19.7491 20.6488 19.5345C20.6509 19.3198 20.7457 19.1144 20.913 18.9626C21.0803 18.8108 21.3066 18.7247 21.5432 18.7229C21.7798 18.721 22.0077 18.8035 22.1778 18.9527L24.7294 21.2681C24.8986 21.4216 24.9936 21.6298 24.9936 21.8469C24.9936 22.064 24.8986 22.2723 24.7294 22.4258ZM8.14047 7.37392C7.97127 7.52742 7.74182 7.61364 7.50257 7.61364C7.26332 7.61364 7.03387 7.52742 6.86467 7.37392L4.31308 5.05687C4.2269 4.98134 4.15817 4.89099 4.11088 4.7911C4.06359 4.69121 4.0387 4.58378 4.03766 4.47506C4.03662 4.36635 4.05945 4.25854 4.10482 4.15792C4.15018 4.0573 4.21718 3.96588 4.30189 3.88901C4.38661 3.81213 4.48735 3.75134 4.59823 3.71017C4.70912 3.669 4.82793 3.64829 4.94773 3.64923C5.06753 3.65018 5.18592 3.67276 5.296 3.71567C5.40608 3.75858 5.50564 3.82096 5.58887 3.89916L8.14047 6.21458C8.22449 6.29063 8.29115 6.38098 8.33664 6.48045C8.38213 6.57992 8.40554 6.68656 8.40554 6.79425C8.40554 6.90194 8.38213 7.00858 8.33664 7.10805C8.29115 7.20752 8.22449 7.29787 8.14047 7.37392Z" fill="white"/>
</svg>
