<svg width="16" height="12" viewBox="0 0 16 12" fill="none" xmlns="http://www.w3.org/2000/svg">
<path fill-rule="evenodd" clip-rule="evenodd" d="M8.33033 2.60741C10.5462 2.6075 12.6774 3.45894 14.2833 4.98574C14.4043 5.10361 14.5976 5.10213 14.7167 4.98241L15.8727 3.81574C15.933 3.75502 15.9666 3.67276 15.9661 3.58718C15.9656 3.5016 15.931 3.41975 15.87 3.35974C11.6549 -0.679809 5.0051 -0.679809 0.789998 3.35974C0.728939 3.41971 0.694296 3.50153 0.693733 3.58712C0.69317 3.6727 0.726734 3.75497 0.786998 3.81574L1.94333 4.98241C2.06236 5.10231 2.25581 5.1038 2.37666 4.98574C3.98282 3.45884 6.11422 2.6074 8.33033 2.60741ZM8.33033 6.40307C9.54782 6.403 10.7219 6.85553 11.6243 7.67274C11.7464 7.78872 11.9387 7.7862 12.0577 7.66707L13.2123 6.50041C13.2731 6.43921 13.3069 6.35619 13.306 6.26993C13.3051 6.18366 13.2697 6.10135 13.2077 6.04141C10.4595 3.48502 6.20353 3.48502 3.45533 6.04141C3.39325 6.10135 3.35784 6.1837 3.35702 6.27C3.35621 6.35629 3.39006 6.4393 3.451 6.50041L4.60533 7.66707C4.72432 7.7862 4.9166 7.78872 5.03866 7.67274C5.94054 6.85607 7.11365 6.40358 8.33033 6.40307ZM10.6433 8.95689C10.6451 9.0434 10.6111 9.1268 10.5493 9.18741L8.552 11.2031C8.49345 11.2623 8.41362 11.2957 8.33033 11.2957C8.24704 11.2957 8.16722 11.2623 8.10866 11.2031L6.111 9.18741C6.04929 9.12675 6.01534 9.04333 6.01717 8.95682C6.019 8.87031 6.05644 8.78839 6.12067 8.73041C7.39624 7.65152 9.26443 7.65152 10.54 8.73041C10.6042 8.78844 10.6416 8.87038 10.6433 8.95689Z" fill="white"/>
</svg>
