<svg width="16" height="12" viewBox="0 0 16 12" fill="none" xmlns="http://www.w3.org/2000/svg">
<path fill-rule="evenodd" clip-rule="evenodd" d="M8.33045 2.60741C10.5463 2.6075 12.6775 3.45894 14.2835 4.98574C14.4044 5.10361 14.5977 5.10213 14.7168 4.98241L15.8728 3.81574C15.9331 3.75502 15.9667 3.67276 15.9662 3.58718C15.9657 3.5016 15.9311 3.41975 15.8701 3.35974C11.655 -0.679809 5.00522 -0.679809 0.79012 3.35974C0.729062 3.41971 0.694418 3.50153 0.693855 3.58712C0.693292 3.6727 0.726856 3.75497 0.78712 3.81574L1.94345 4.98241C2.06248 5.10231 2.25593 5.1038 2.37679 4.98574C3.98294 3.45884 6.11434 2.6074 8.33045 2.60741ZM8.33045 6.40307C9.54794 6.403 10.722 6.85553 11.6245 7.67274C11.7465 7.78872 11.9388 7.7862 12.0578 7.66707L13.2125 6.50041C13.2733 6.43921 13.307 6.35619 13.3061 6.26993C13.3052 6.18366 13.2698 6.10135 13.2078 6.04141C10.4596 3.48502 6.20365 3.48502 3.45545 6.04141C3.39338 6.10135 3.35796 6.1837 3.35714 6.27C3.35633 6.35629 3.39019 6.4393 3.45112 6.50041L4.60545 7.66707C4.72444 7.7862 4.91672 7.78872 5.03879 7.67274C5.94066 6.85607 7.11377 6.40358 8.33045 6.40307ZM10.6434 8.95689C10.6452 9.0434 10.6112 9.1268 10.5495 9.18741L8.55212 11.2031C8.49357 11.2623 8.41374 11.2957 8.33045 11.2957C8.24716 11.2957 8.16734 11.2623 8.10879 11.2031L6.11112 9.18741C6.04941 9.12675 6.01546 9.04333 6.01729 8.95682C6.01912 8.87031 6.05657 8.78839 6.12079 8.73041C7.39636 7.65152 9.26455 7.65152 10.5401 8.73041C10.6043 8.78844 10.6417 8.87038 10.6434 8.95689Z" fill="white"/>
</svg>
